<svg width="467" height="451" viewBox="0 0 467 451" fill="none" xmlns="http://www.w3.org/2000/svg">
<path d="M42.5275 410.081C173.437 408.43 309.087 406.541 439.546 408.827L438.33 410.938C390.162 324.763 338.263 238.649 288.283 153.507L238.235 67.6838H243.587C187.414 166.642 101.308 310.748 42.5428 410.051L42.5275 410.081ZM42 410.387C99.5186 308.699 179.753 163.889 238.235 64.633L240.926 60L243.571 64.633L292.848 150.877C341.987 237.449 391.003 326.116 442 411.595C310.647 413.95 173.636 412.038 42 410.372V410.387Z" fill="#AAAAAA"/>
<path d="M241.102 221.531C211.521 263.23 179.126 309.311 148.474 350.017L147.71 348.358C165.409 349.803 183.102 351.355 200.817 352.654C212.652 353.534 228.838 354.596 240.681 355.384C280.538 357.762 320.517 360.109 360.336 362.823L359.044 365.346C320.38 319.472 279.047 268.246 241.109 221.531H241.102ZM241.102 221.225C281.135 268.108 324.715 318.646 363.708 366.172C322.697 363.19 281.586 359.841 240.612 356.508C209.219 354.046 177.092 352.088 145.691 350.338C175.838 307.667 209.662 263.047 241.109 221.225H241.102Z" fill="#40C3D5"/>
<path d="M241.094 241.784C205.496 281.098 169.14 321.223 132.257 359.275L131.577 357.746L158.161 357.624C182.681 357.463 213.21 356.645 237.898 355.926C268.726 354.978 312.941 353.962 344.174 353.327L342.996 356.049C309.355 319.227 274.146 279.263 241.063 241.784H241.094ZM241.094 241.478C275.408 278.04 311.824 316.773 345.435 353.87L347.866 356.546C314.99 356.92 270.385 357.662 237.929 357.7C203.24 357.8 164.109 358.465 129.482 359.642C165.509 319.739 203.645 280.127 241.109 241.493L241.094 241.478Z" fill="#808080"/>
<path d="M241.102 209.894C222.133 241.333 198.637 280.112 179.431 311.138C172.55 322.214 165.585 333.252 158.536 344.252L157.718 342.539C217.775 351.217 283.39 358.511 343.799 365.476L370.391 368.672L369.053 371.073C327.085 319.686 282.236 262.267 241.102 209.909V209.894ZM241.102 209.588C285.072 262.856 330.855 318.05 373.678 372.066C372.073 371.875 345.947 368.481 343.478 368.175C283.161 360.078 217.844 351.11 157.458 344.772L155.722 344.58L156.64 343.051C183.04 299.41 213.485 252.664 241.102 209.58V209.588Z" fill="white"/>
<path d="M210.582 16V5.776H217.335V6.928H211.878V10.3408H216.471V11.4208H211.878V16H210.582ZM219.227 16V5.776H223.605C224.056 5.776 224.469 5.872 224.843 6.064C225.227 6.2464 225.554 6.496 225.822 6.8128C226.101 7.12 226.317 7.4704 226.47 7.864C226.624 8.248 226.701 8.6416 226.701 9.0448C226.701 9.4 226.648 9.7456 226.542 10.0816C226.446 10.408 226.302 10.7056 226.11 10.9744C225.928 11.2432 225.702 11.4736 225.434 11.6656C225.174 11.8576 224.882 11.9968 224.555 12.0832L227.032 16H225.563L223.23 12.328H220.523V16H219.227ZM220.523 11.176H223.619C223.888 11.176 224.128 11.1184 224.339 11.0032C224.56 10.888 224.747 10.7344 224.901 10.5424C225.054 10.3408 225.174 10.1104 225.261 9.8512C225.347 9.592 225.39 9.3232 225.39 9.0448C225.39 8.7568 225.338 8.488 225.232 8.2384C225.136 7.9792 225.002 7.7536 224.829 7.5616C224.666 7.36 224.469 7.2064 224.238 7.1008C224.018 6.9856 223.782 6.928 223.533 6.928H220.523V11.176ZM233.146 14.9056C233.741 14.9056 234.236 14.7904 234.629 14.56C235.023 14.3296 235.335 14.032 235.565 13.6672C235.805 13.2928 235.973 12.8704 236.069 12.4C236.165 11.92 236.213 11.4352 236.213 10.9456V5.776H237.509V10.9456C237.509 11.6368 237.428 12.2944 237.264 12.9184C237.111 13.5328 236.861 14.0752 236.516 14.5456C236.17 15.016 235.719 15.3904 235.162 15.6688C234.615 15.9376 233.948 16.072 233.16 16.072C232.344 16.072 231.658 15.928 231.101 15.64C230.544 15.352 230.093 14.9728 229.748 14.5024C229.412 14.0224 229.167 13.4752 229.013 12.8608C228.869 12.2368 228.797 11.5984 228.797 10.9456V5.776H230.093V10.9456C230.093 11.4544 230.141 11.9488 230.237 12.4288C230.343 12.8992 230.511 13.3168 230.741 13.6816C230.981 14.0464 231.293 14.344 231.677 14.5744C232.071 14.7952 232.56 14.9056 233.146 14.9056ZM240.062 16V5.776H241.358V16H240.062ZM251.425 6.928H247.897V16H246.601V6.928H243.073V5.776H251.425V6.928ZM259.152 7.9216C259.037 7.7872 258.883 7.6576 258.691 7.5328C258.499 7.408 258.283 7.2976 258.043 7.2016C257.803 7.096 257.539 7.0144 257.251 6.9568C256.973 6.8896 256.68 6.856 256.373 6.856C255.576 6.856 254.991 7.0048 254.616 7.3024C254.251 7.6 254.069 8.008 254.069 8.5264C254.069 8.8048 254.122 9.0352 254.227 9.2176C254.333 9.4 254.496 9.5584 254.717 9.6928C254.947 9.8176 255.231 9.928 255.567 10.024C255.903 10.12 256.301 10.2208 256.762 10.3264C257.29 10.4416 257.765 10.576 258.187 10.7296C258.619 10.8736 258.984 11.056 259.282 11.2768C259.589 11.4976 259.819 11.7664 259.973 12.0832C260.136 12.4 260.218 12.7888 260.218 13.2496C260.218 13.7392 260.122 14.1664 259.93 14.5312C259.738 14.8864 259.474 15.184 259.138 15.424C258.811 15.6544 258.423 15.8272 257.971 15.9424C257.52 16.048 257.031 16.1008 256.503 16.1008C255.715 16.1008 254.967 15.9808 254.256 15.7408C253.555 15.4912 252.917 15.1312 252.341 14.6608L252.96 13.5664C253.114 13.7296 253.311 13.8928 253.551 14.056C253.8 14.2192 254.079 14.368 254.386 14.5024C254.703 14.6272 255.039 14.7328 255.394 14.8192C255.759 14.896 256.138 14.9344 256.531 14.9344C257.261 14.9344 257.827 14.8048 258.231 14.5456C258.634 14.2864 258.835 13.8976 258.835 13.3792C258.835 13.0912 258.768 12.8512 258.634 12.6592C258.509 12.4576 258.322 12.2848 258.072 12.1408C257.823 11.9968 257.511 11.872 257.136 11.7664C256.771 11.6512 256.354 11.536 255.883 11.4208C255.365 11.296 254.909 11.1616 254.515 11.0176C254.122 10.8736 253.791 10.7008 253.522 10.4992C253.263 10.2976 253.066 10.0528 252.931 9.7648C252.797 9.4768 252.73 9.1312 252.73 8.728C252.73 8.2384 252.821 7.8064 253.003 7.432C253.186 7.0576 253.44 6.7408 253.767 6.4816C254.093 6.2224 254.482 6.0304 254.933 5.9056C255.384 5.7712 255.874 5.704 256.402 5.704C257.093 5.704 257.717 5.8096 258.274 6.0208C258.831 6.232 259.325 6.5152 259.757 6.8704L259.152 7.9216ZM272.905 16L271.839 14.8912C271.426 15.2944 270.961 15.6064 270.442 15.8272C269.933 16.0384 269.386 16.144 268.801 16.144C268.33 16.144 267.893 16.072 267.49 15.928C267.087 15.784 266.737 15.5872 266.439 15.3376C266.141 15.0784 265.906 14.776 265.733 14.4304C265.57 14.0848 265.489 13.7056 265.489 13.2928C265.489 12.9568 265.541 12.6448 265.647 12.3568C265.762 12.0688 265.911 11.8048 266.093 11.5648C266.285 11.3248 266.501 11.104 266.741 10.9024C266.981 10.6912 267.236 10.4944 267.505 10.312C267.274 10.0528 267.077 9.8176 266.914 9.6064C266.751 9.3952 266.617 9.1984 266.511 9.016C266.415 8.824 266.343 8.6464 266.295 8.4832C266.247 8.3104 266.223 8.1328 266.223 7.9504C266.223 7.624 266.29 7.3216 266.425 7.0432C266.559 6.7552 266.741 6.5104 266.972 6.3088C267.212 6.0976 267.49 5.9344 267.807 5.8192C268.133 5.704 268.484 5.6464 268.858 5.6464C269.204 5.6464 269.525 5.6944 269.823 5.7904C270.13 5.8864 270.394 6.0256 270.615 6.208C270.845 6.3904 271.023 6.6112 271.148 6.8704C271.282 7.1296 271.349 7.4176 271.349 7.7344C271.349 8.0224 271.292 8.2912 271.177 8.5408C271.071 8.7904 270.922 9.0256 270.73 9.2464C270.548 9.4576 270.327 9.6592 270.068 9.8512C269.809 10.0432 269.535 10.2352 269.247 10.4272L271.853 13.1632C272.036 12.8176 272.175 12.4432 272.271 12.04C272.377 11.6272 272.429 11.1904 272.429 10.7296H273.481C273.471 11.3536 273.389 11.9344 273.236 12.472C273.092 13.0096 272.881 13.4992 272.602 13.9408L274.575 16H272.905ZM268.93 15.136C269.362 15.136 269.765 15.0496 270.14 14.8768C270.514 14.704 270.85 14.464 271.148 14.1568L268.239 11.0896C267.788 11.416 267.418 11.7568 267.13 12.112C266.852 12.4576 266.713 12.856 266.713 13.3072C266.713 13.5952 266.775 13.8544 266.9 14.0848C267.025 14.3152 267.188 14.5072 267.389 14.6608C267.601 14.8144 267.836 14.9344 268.095 15.0208C268.364 15.0976 268.642 15.136 268.93 15.136ZM267.389 7.9216C267.389 8.0272 267.404 8.1328 267.433 8.2384C267.471 8.3344 267.529 8.4496 267.605 8.584C267.692 8.7088 267.807 8.8624 267.951 9.0448C268.095 9.2176 268.282 9.424 268.513 9.664C269.012 9.3472 269.415 9.0448 269.722 8.7568C270.029 8.4592 270.183 8.128 270.183 7.7632C270.183 7.4272 270.058 7.1536 269.809 6.9424C269.559 6.7216 269.242 6.6112 268.858 6.6112C268.426 6.6112 268.071 6.7408 267.793 7C267.524 7.2496 267.389 7.5568 267.389 7.9216ZM208.394 37V26.776H209.69V35.848H215.392V37H208.394ZM220.855 25.552L220.019 25.264L220.855 23.8096H222.122L220.855 25.552ZM223.994 35.848V37H217.053V26.776H223.864V27.928H218.349V31.24H223.144V32.32H218.349V35.848H223.994ZM233.039 35.6176C232.137 36.5872 231.1 37.072 229.929 37.072C229.247 37.072 228.614 36.9232 228.028 36.6256C227.452 36.328 226.953 35.9392 226.53 35.4592C226.108 34.9696 225.772 34.4128 225.522 33.7888C225.282 33.1648 225.162 32.5216 225.162 31.8592C225.162 31.168 225.282 30.5152 225.522 29.9008C225.762 29.2768 226.094 28.7296 226.516 28.2592C226.938 27.7792 227.442 27.4 228.028 27.1216C228.614 26.8432 229.247 26.704 229.929 26.704C230.918 26.704 231.729 26.9104 232.362 27.3232C233.006 27.736 233.495 28.2736 233.831 28.936L232.838 29.6272C232.53 29.032 232.122 28.5904 231.614 28.3024C231.105 28.0144 230.534 27.8704 229.9 27.8704C229.382 27.8704 228.911 27.9856 228.489 28.216C228.066 28.4368 227.706 28.7344 227.409 29.1088C227.111 29.4736 226.881 29.9008 226.718 30.3904C226.554 30.8704 226.473 31.3696 226.473 31.888C226.473 32.4352 226.564 32.9536 226.746 33.4432C226.929 33.9232 227.178 34.3504 227.495 34.7248C227.812 35.0896 228.186 35.3776 228.618 35.5888C229.05 35.8 229.521 35.9056 230.03 35.9056C231.143 35.9056 232.146 35.368 233.039 34.2928V32.8816H230.836V31.9024H234.134V37H233.039V35.6176ZM240.559 35.9056C241.154 35.9056 241.649 35.7904 242.042 35.56C242.436 35.3296 242.748 35.032 242.978 34.6672C243.218 34.2928 243.386 33.8704 243.482 33.4C243.578 32.92 243.626 32.4352 243.626 31.9456V26.776H244.922V31.9456C244.922 32.6368 244.841 33.2944 244.678 33.9184C244.524 34.5328 244.274 35.0752 243.929 35.5456C243.583 36.016 243.132 36.3904 242.575 36.6688C242.028 36.9376 241.361 37.072 240.574 37.072C239.758 37.072 239.071 36.928 238.514 36.64C237.958 36.352 237.506 35.9728 237.161 35.5024C236.825 35.0224 236.58 34.4752 236.426 33.8608C236.282 33.2368 236.21 32.5984 236.21 31.9456V26.776H237.506V31.9456C237.506 32.4544 237.554 32.9488 237.65 33.4288C237.756 33.8992 237.924 34.3168 238.154 34.6816C238.394 35.0464 238.706 35.344 239.09 35.5744C239.484 35.7952 239.974 35.9056 240.559 35.9056ZM256.316 37V29.0944L252.918 35.1568H252.184L248.771 29.0944V37H247.475V26.776H248.843L252.544 33.4144L256.259 26.776H257.612V37H256.316ZM267.252 35.848V37H260.311V26.776H267.122V27.928H261.607V31.24H266.402V32.32H261.607V35.848H267.252ZM275.284 28.9216C275.169 28.7872 275.015 28.6576 274.823 28.5328C274.631 28.408 274.415 28.2976 274.175 28.2016C273.935 28.096 273.671 28.0144 273.383 27.9568C273.105 27.8896 272.812 27.856 272.505 27.856C271.708 27.856 271.123 28.0048 270.748 28.3024C270.383 28.6 270.201 29.008 270.201 29.5264C270.201 29.8048 270.254 30.0352 270.359 30.2176C270.465 30.4 270.628 30.5584 270.849 30.6928C271.079 30.8176 271.363 30.928 271.699 31.024C272.035 31.12 272.433 31.2208 272.894 31.3264C273.422 31.4416 273.897 31.576 274.319 31.7296C274.751 31.8736 275.116 32.056 275.414 32.2768C275.721 32.4976 275.951 32.7664 276.105 33.0832C276.268 33.4 276.35 33.7888 276.35 34.2496C276.35 34.7392 276.254 35.1664 276.062 35.5312C275.87 35.8864 275.606 36.184 275.27 36.424C274.943 36.6544 274.555 36.8272 274.103 36.9424C273.652 37.048 273.163 37.1008 272.635 37.1008C271.847 37.1008 271.099 36.9808 270.388 36.7408C269.687 36.4912 269.049 36.1312 268.473 35.6608L269.092 34.5664C269.246 34.7296 269.443 34.8928 269.683 35.056C269.932 35.2192 270.211 35.368 270.518 35.5024C270.835 35.6272 271.171 35.7328 271.526 35.8192C271.891 35.896 272.27 35.9344 272.663 35.9344C273.393 35.9344 273.959 35.8048 274.363 35.5456C274.766 35.2864 274.967 34.8976 274.967 34.3792C274.967 34.0912 274.9 33.8512 274.766 33.6592C274.641 33.4576 274.454 33.2848 274.204 33.1408C273.955 32.9968 273.643 32.872 273.268 32.7664C272.903 32.6512 272.486 32.536 272.015 32.4208C271.497 32.296 271.041 32.1616 270.647 32.0176C270.254 31.8736 269.923 31.7008 269.654 31.4992C269.395 31.2976 269.198 31.0528 269.063 30.7648C268.929 30.4768 268.862 30.1312 268.862 29.728C268.862 29.2384 268.953 28.8064 269.135 28.432C269.318 28.0576 269.572 27.7408 269.899 27.4816C270.225 27.2224 270.614 27.0304 271.065 26.9056C271.516 26.7712 272.006 26.704 272.534 26.704C273.225 26.704 273.849 26.8096 274.406 27.0208C274.963 27.232 275.457 27.5152 275.889 27.8704L275.284 28.9216Z" fill="#AAAAAA"/>
<path d="M1.66697 445V434.776H8.42057V435.928H2.96297V439.341H7.55657V440.421H2.96297V445H1.66697ZM12.6352 434.776H13.7296L17.9056 445H16.5232L15.3136 442.005H11.0224L9.82718 445H8.44478L12.6352 434.776ZM15.0256 440.997L13.1824 436.274L11.2816 440.997H15.0256ZM25.3843 436.922C25.2691 436.787 25.1155 436.658 24.9235 436.533C24.7315 436.408 24.5155 436.298 24.2755 436.202C24.0355 436.096 23.7715 436.014 23.4835 435.957C23.2051 435.89 22.9123 435.856 22.6051 435.856C21.8083 435.856 21.2227 436.005 20.8483 436.302C20.4835 436.6 20.3011 437.008 20.3011 437.526C20.3011 437.805 20.3539 438.035 20.4595 438.218C20.5651 438.4 20.7283 438.558 20.9491 438.693C21.1795 438.818 21.4627 438.928 21.7987 439.024C22.1347 439.12 22.5331 439.221 22.9939 439.326C23.5219 439.442 23.9971 439.576 24.4195 439.73C24.8515 439.874 25.2163 440.056 25.5139 440.277C25.8211 440.498 26.0515 440.766 26.2051 441.083C26.3683 441.4 26.4499 441.789 26.4499 442.25C26.4499 442.739 26.3539 443.166 26.1619 443.531C25.9699 443.886 25.7059 444.184 25.3699 444.424C25.0435 444.654 24.6547 444.827 24.2035 444.942C23.7523 445.048 23.2627 445.101 22.7347 445.101C21.9475 445.101 21.1987 444.981 20.4883 444.741C19.7875 444.491 19.1491 444.131 18.5731 443.661L19.1923 442.566C19.3459 442.73 19.5427 442.893 19.7827 443.056C20.0323 443.219 20.3107 443.368 20.6179 443.502C20.9347 443.627 21.2707 443.733 21.6259 443.819C21.9907 443.896 22.3699 443.934 22.7635 443.934C23.4931 443.934 24.0595 443.805 24.4627 443.546C24.8659 443.286 25.0675 442.898 25.0675 442.379C25.0675 442.091 25.0003 441.851 24.8659 441.659C24.7411 441.458 24.5539 441.285 24.3043 441.141C24.0547 440.997 23.7427 440.872 23.3683 440.766C23.0035 440.651 22.5859 440.536 22.1155 440.421C21.5971 440.296 21.1411 440.162 20.7475 440.018C20.3539 439.874 20.0227 439.701 19.7539 439.499C19.4947 439.298 19.2979 439.053 19.1635 438.765C19.0291 438.477 18.9619 438.131 18.9619 437.728C18.9619 437.238 19.0531 436.806 19.2355 436.432C19.4179 436.058 19.6723 435.741 19.9987 435.482C20.3251 435.222 20.7139 435.03 21.1651 434.906C21.6163 434.771 22.1059 434.704 22.6339 434.704C23.3251 434.704 23.9491 434.81 24.5059 435.021C25.0627 435.232 25.5571 435.515 25.9891 435.87L25.3843 436.922ZM35.7773 435.928H32.2493V445H30.9533V435.928H27.4253V434.776H35.7773V435.928ZM36.3255 441.645V440.493H40.5735V441.645H36.3255ZM42.967 445V434.776H49.7206V435.928H44.263V439.341H48.8566V440.421H44.263V445H42.967ZM55.5767 445.072C54.8567 445.072 54.1991 444.928 53.6039 444.64C53.0183 444.342 52.5143 443.954 52.0919 443.474C51.6695 442.984 51.3431 442.427 51.1127 441.803C50.8823 441.179 50.7671 440.541 50.7671 439.888C50.7671 439.206 50.8871 438.554 51.1271 437.93C51.3767 437.306 51.7175 436.754 52.1495 436.274C52.5815 435.794 53.0903 435.414 53.6759 435.136C54.2711 434.848 54.9143 434.704 55.6055 434.704C56.3255 434.704 56.9783 434.858 57.5639 435.165C58.1495 435.462 58.6535 435.856 59.0759 436.346C59.4983 436.835 59.8247 437.392 60.0551 438.016C60.2855 438.63 60.4007 439.259 60.4007 439.902C60.4007 440.584 60.2759 441.237 60.0263 441.861C59.7863 442.485 59.4503 443.037 59.0183 443.517C58.5959 443.987 58.0871 444.366 57.4919 444.654C56.9063 444.933 56.2679 445.072 55.5767 445.072ZM52.0775 439.888C52.0775 440.406 52.1591 440.91 52.3223 441.4C52.4951 441.88 52.7351 442.307 53.0423 442.682C53.3495 443.056 53.7191 443.354 54.1511 443.574C54.5831 443.795 55.0631 443.906 55.5911 443.906C56.1383 443.906 56.6279 443.79 57.0599 443.56C57.4919 443.32 57.8567 443.013 58.1543 442.638C58.4615 442.254 58.6919 441.822 58.8455 441.342C59.0087 440.862 59.0903 440.378 59.0903 439.888C59.0903 439.37 59.0039 438.87 58.8311 438.39C58.6679 437.901 58.4279 437.474 58.1111 437.109C57.8039 436.734 57.4343 436.437 57.0023 436.216C56.5799 435.995 56.1095 435.885 55.5911 435.885C55.0439 435.885 54.5543 436 54.1223 436.23C53.6903 436.461 53.3207 436.763 53.0135 437.138C52.7159 437.512 52.4855 437.939 52.3223 438.419C52.1591 438.899 52.0775 439.389 52.0775 439.888ZM66.5985 445.072C65.8785 445.072 65.2209 444.928 64.6257 444.64C64.0401 444.342 63.5361 443.954 63.1137 443.474C62.6913 442.984 62.3649 442.427 62.1345 441.803C61.9041 441.179 61.7889 440.541 61.7889 439.888C61.7889 439.206 61.9089 438.554 62.1489 437.93C62.3985 437.306 62.7393 436.754 63.1713 436.274C63.6033 435.794 64.1121 435.414 64.6977 435.136C65.2929 434.848 65.9361 434.704 66.6273 434.704C67.3473 434.704 68.0001 434.858 68.5857 435.165C69.1713 435.462 69.6753 435.856 70.0977 436.346C70.5201 436.835 70.8465 437.392 71.0769 438.016C71.3073 438.63 71.4225 439.259 71.4225 439.902C71.4225 440.584 71.2977 441.237 71.0481 441.861C70.8081 442.485 70.4721 443.037 70.0401 443.517C69.6177 443.987 69.1089 444.366 68.5137 444.654C67.9281 444.933 67.2897 445.072 66.5985 445.072ZM63.0993 439.888C63.0993 440.406 63.1809 440.91 63.3441 441.4C63.5169 441.88 63.7569 442.307 64.0641 442.682C64.3713 443.056 64.7409 443.354 65.1729 443.574C65.6049 443.795 66.0849 443.906 66.6129 443.906C67.1601 443.906 67.6497 443.79 68.0817 443.56C68.5137 443.32 68.8785 443.013 69.1761 442.638C69.4833 442.254 69.7137 441.822 69.8673 441.342C70.0305 440.862 70.1121 440.378 70.1121 439.888C70.1121 439.37 70.0257 438.87 69.8529 438.39C69.6897 437.901 69.4497 437.474 69.1329 437.109C68.8257 436.734 68.4561 436.437 68.0241 436.216C67.6017 435.995 67.1313 435.885 66.6129 435.885C66.0657 435.885 65.5761 436 65.1441 436.23C64.7121 436.461 64.3425 436.763 64.0353 437.138C63.7377 437.512 63.5073 437.939 63.3441 438.419C63.1809 438.899 63.0993 439.389 63.0993 439.888ZM73.4732 445V434.776H77.0156C77.8316 434.776 78.5468 434.91 79.1612 435.179C79.7852 435.448 80.3036 435.813 80.7164 436.274C81.1292 436.734 81.4364 437.277 81.638 437.901C81.8492 438.515 81.9548 439.173 81.9548 439.874C81.9548 440.651 81.8396 441.357 81.6092 441.99C81.3788 442.614 81.0476 443.152 80.6156 443.603C80.1836 444.045 79.6604 444.39 79.046 444.64C78.4412 444.88 77.7644 445 77.0156 445H73.4732ZM80.6444 439.874C80.6444 439.298 80.5628 438.77 80.3996 438.29C80.246 437.8 80.0108 437.382 79.694 437.037C79.3868 436.691 79.0076 436.422 78.5564 436.23C78.1052 436.029 77.5916 435.928 77.0156 435.928H74.7692V443.848H77.0156C77.6012 443.848 78.1196 443.747 78.5708 443.546C79.0316 443.344 79.4108 443.066 79.7084 442.71C80.0156 442.355 80.246 441.938 80.3996 441.458C80.5628 440.968 80.6444 440.44 80.6444 439.874Z" fill="#AAAAAA"/>
<path d="M425.294 436.922C425.179 436.787 425.026 436.658 424.834 436.533C424.642 436.408 424.426 436.298 424.186 436.202C423.946 436.096 423.682 436.014 423.394 435.957C423.115 435.89 422.822 435.856 422.515 435.856C421.718 435.856 421.133 436.005 420.758 436.302C420.394 436.6 420.211 437.008 420.211 437.526C420.211 437.805 420.264 438.035 420.37 438.218C420.475 438.4 420.638 438.558 420.859 438.693C421.09 438.818 421.373 438.928 421.709 439.024C422.045 439.12 422.443 439.221 422.904 439.326C423.432 439.442 423.907 439.576 424.33 439.73C424.762 439.874 425.126 440.056 425.424 440.277C425.731 440.498 425.962 440.766 426.115 441.083C426.278 441.4 426.36 441.789 426.36 442.25C426.36 442.739 426.264 443.166 426.072 443.531C425.88 443.886 425.616 444.184 425.28 444.424C424.954 444.654 424.565 444.827 424.114 444.942C423.662 445.048 423.173 445.101 422.645 445.101C421.858 445.101 421.109 444.981 420.398 444.741C419.698 444.491 419.059 444.131 418.483 443.661L419.102 442.566C419.256 442.73 419.453 442.893 419.693 443.056C419.942 443.219 420.221 443.368 420.528 443.502C420.845 443.627 421.181 443.733 421.536 443.819C421.901 443.896 422.28 443.934 422.674 443.934C423.403 443.934 423.97 443.805 424.373 443.546C424.776 443.286 424.978 442.898 424.978 442.379C424.978 442.091 424.91 441.851 424.776 441.659C424.651 441.458 424.464 441.285 424.214 441.141C423.965 440.997 423.653 440.872 423.278 440.766C422.914 440.651 422.496 440.536 422.026 440.421C421.507 440.296 421.051 440.162 420.658 440.018C420.264 439.874 419.933 439.701 419.664 439.499C419.405 439.298 419.208 439.053 419.074 438.765C418.939 438.477 418.872 438.131 418.872 437.728C418.872 437.238 418.963 436.806 419.146 436.432C419.328 436.058 419.582 435.741 419.909 435.482C420.235 435.222 420.624 435.03 421.075 434.906C421.526 434.771 422.016 434.704 422.544 434.704C423.235 434.704 423.859 434.81 424.416 435.021C424.973 435.232 425.467 435.515 425.899 435.87L425.294 436.922ZM432.462 445.072C431.742 445.072 431.084 444.928 430.489 444.64C429.903 444.342 429.399 443.954 428.977 443.474C428.555 442.984 428.228 442.427 427.998 441.803C427.767 441.179 427.652 440.541 427.652 439.888C427.652 439.206 427.772 438.554 428.012 437.93C428.262 437.306 428.603 436.754 429.035 436.274C429.467 435.794 429.975 435.414 430.561 435.136C431.156 434.848 431.799 434.704 432.491 434.704C433.211 434.704 433.863 434.858 434.449 435.165C435.035 435.462 435.539 435.856 435.961 436.346C436.383 436.835 436.71 437.392 436.94 438.016C437.171 438.63 437.286 439.259 437.286 439.902C437.286 440.584 437.161 441.237 436.911 441.861C436.671 442.485 436.335 443.037 435.903 443.517C435.481 443.987 434.972 444.366 434.377 444.654C433.791 444.933 433.153 445.072 432.462 445.072ZM428.963 439.888C428.963 440.406 429.044 440.91 429.207 441.4C429.38 441.88 429.62 442.307 429.927 442.682C430.235 443.056 430.604 443.354 431.036 443.574C431.468 443.795 431.948 443.906 432.476 443.906C433.023 443.906 433.513 443.79 433.945 443.56C434.377 443.32 434.742 443.013 435.039 442.638C435.347 442.254 435.577 441.822 435.731 441.342C435.894 440.862 435.975 440.378 435.975 439.888C435.975 439.37 435.889 438.87 435.716 438.39C435.553 437.901 435.313 437.474 434.996 437.109C434.689 436.734 434.319 436.437 433.887 436.216C433.465 435.995 432.995 435.885 432.476 435.885C431.929 435.885 431.439 436 431.007 436.23C430.575 436.461 430.206 436.763 429.899 437.138C429.601 437.512 429.371 437.939 429.207 438.419C429.044 438.899 428.963 439.389 428.963 439.888ZM439.337 445V434.776H442.879C443.695 434.776 444.41 434.91 445.025 435.179C445.649 435.448 446.167 435.813 446.58 436.274C446.993 436.734 447.3 437.277 447.501 437.901C447.713 438.515 447.818 439.173 447.818 439.874C447.818 440.651 447.703 441.357 447.473 441.99C447.242 442.614 446.911 443.152 446.479 443.603C446.047 444.045 445.524 444.39 444.909 444.64C444.305 444.88 443.628 445 442.879 445H439.337ZM446.508 439.874C446.508 439.298 446.426 438.77 446.263 438.29C446.109 437.8 445.874 437.382 445.557 437.037C445.25 436.691 444.871 436.422 444.42 436.23C443.969 436.029 443.455 435.928 442.879 435.928H440.633V443.848H442.879C443.465 443.848 443.983 443.747 444.434 443.546C444.895 443.344 445.274 443.066 445.572 442.71C445.879 442.355 446.109 441.938 446.263 441.458C446.426 440.968 446.508 440.44 446.508 439.874ZM452.639 434.776H453.733L457.909 445H456.527L455.317 442.005H451.026L449.831 445H448.449L452.639 434.776ZM455.029 440.997L453.186 436.274L451.285 440.997H455.029ZM465.388 436.922C465.273 436.787 465.119 436.658 464.927 436.533C464.735 436.408 464.519 436.298 464.279 436.202C464.039 436.096 463.775 436.014 463.487 435.957C463.209 435.89 462.916 435.856 462.609 435.856C461.812 435.856 461.227 436.005 460.852 436.302C460.487 436.6 460.305 437.008 460.305 437.526C460.305 437.805 460.358 438.035 460.463 438.218C460.569 438.4 460.732 438.558 460.953 438.693C461.183 438.818 461.467 438.928 461.803 439.024C462.139 439.12 462.537 439.221 462.998 439.326C463.526 439.442 464.001 439.576 464.423 439.73C464.855 439.874 465.22 440.056 465.518 440.277C465.825 440.498 466.055 440.766 466.209 441.083C466.372 441.4 466.454 441.789 466.454 442.25C466.454 442.739 466.358 443.166 466.166 443.531C465.974 443.886 465.71 444.184 465.374 444.424C465.047 444.654 464.659 444.827 464.207 444.942C463.756 445.048 463.267 445.101 462.739 445.101C461.951 445.101 461.203 444.981 460.492 444.741C459.791 444.491 459.153 444.131 458.577 443.661L459.196 442.566C459.35 442.73 459.547 442.893 459.787 443.056C460.036 443.219 460.315 443.368 460.622 443.502C460.939 443.627 461.275 443.733 461.63 443.819C461.995 443.896 462.374 443.934 462.767 443.934C463.497 443.934 464.063 443.805 464.467 443.546C464.87 443.286 465.071 442.898 465.071 442.379C465.071 442.091 465.004 441.851 464.87 441.659C464.745 441.458 464.558 441.285 464.308 441.141C464.059 440.997 463.747 440.872 463.372 440.766C463.007 440.651 462.59 440.536 462.119 440.421C461.601 440.296 461.145 440.162 460.751 440.018C460.358 439.874 460.027 439.701 459.758 439.499C459.499 439.298 459.302 439.053 459.167 438.765C459.033 438.477 458.966 438.131 458.966 437.728C458.966 437.238 459.057 436.806 459.239 436.432C459.422 436.058 459.676 435.741 460.003 435.482C460.329 435.222 460.718 435.03 461.169 434.906C461.62 434.771 462.11 434.704 462.638 434.704C463.329 434.704 463.953 434.81 464.51 435.021C465.067 435.232 465.561 435.515 465.993 435.87L465.388 436.922Z" fill="#AAAAAA"/>
</svg>
