<svg width="561" height="465" viewBox="0 0 561 465" fill="none" xmlns="http://www.w3.org/2000/svg">
<path d="M502.071 215.776L505.455 224.373L508.824 215.776H510.192L506.016 226H504.893L500.703 215.776H502.071ZM511.82 226V215.776H513.116V226H511.82ZM521.816 217.922C521.7 217.787 521.547 217.658 521.355 217.533C521.163 217.408 520.947 217.298 520.707 217.202C520.467 217.096 520.203 217.014 519.915 216.957C519.636 216.89 519.344 216.856 519.036 216.856C518.24 216.856 517.654 217.005 517.28 217.302C516.915 217.6 516.732 218.008 516.732 218.526C516.732 218.805 516.785 219.035 516.891 219.218C516.996 219.4 517.16 219.558 517.38 219.693C517.611 219.818 517.894 219.928 518.23 220.024C518.566 220.12 518.964 220.221 519.425 220.326C519.953 220.442 520.428 220.576 520.851 220.73C521.283 220.874 521.648 221.056 521.945 221.277C522.252 221.498 522.483 221.766 522.636 222.083C522.8 222.4 522.881 222.789 522.881 223.25C522.881 223.739 522.785 224.166 522.593 224.531C522.401 224.886 522.137 225.184 521.801 225.424C521.475 225.654 521.086 225.827 520.635 225.942C520.184 226.048 519.694 226.101 519.166 226.101C518.379 226.101 517.63 225.981 516.92 225.741C516.219 225.491 515.58 225.131 515.004 224.661L515.624 223.566C515.777 223.73 515.974 223.893 516.214 224.056C516.464 224.219 516.742 224.368 517.049 224.502C517.366 224.627 517.702 224.733 518.057 224.819C518.422 224.896 518.801 224.934 519.195 224.934C519.924 224.934 520.491 224.805 520.894 224.546C521.297 224.286 521.499 223.898 521.499 223.379C521.499 223.091 521.432 222.851 521.297 222.659C521.172 222.458 520.985 222.285 520.736 222.141C520.486 221.997 520.174 221.872 519.8 221.766C519.435 221.651 519.017 221.536 518.547 221.421C518.028 221.296 517.572 221.162 517.179 221.018C516.785 220.874 516.454 220.701 516.185 220.499C515.926 220.298 515.729 220.053 515.595 219.765C515.46 219.477 515.393 219.131 515.393 218.728C515.393 218.238 515.484 217.806 515.667 217.432C515.849 217.058 516.104 216.741 516.43 216.482C516.756 216.222 517.145 216.03 517.596 215.906C518.048 215.771 518.537 215.704 519.065 215.704C519.756 215.704 520.38 215.81 520.937 216.021C521.494 216.232 521.988 216.515 522.42 216.87L521.816 217.922ZM524.836 226V215.776H526.132V226H524.836ZM536.199 216.928H532.671V226H531.375V216.928H527.847V215.776H536.199V216.928ZM544.862 224.848V226H537.922V215.776H544.733V216.928H539.218V220.24H544.013V221.32H539.218V224.848H544.862ZM552.895 217.922C552.78 217.787 552.626 217.658 552.434 217.533C552.242 217.408 552.026 217.298 551.786 217.202C551.546 217.096 551.282 217.014 550.994 216.957C550.716 216.89 550.423 216.856 550.116 216.856C549.319 216.856 548.734 217.005 548.359 217.302C547.994 217.6 547.812 218.008 547.812 218.526C547.812 218.805 547.865 219.035 547.97 219.218C548.076 219.4 548.239 219.558 548.46 219.693C548.69 219.818 548.974 219.928 549.31 220.024C549.646 220.12 550.044 220.221 550.505 220.326C551.033 220.442 551.508 220.576 551.93 220.73C552.362 220.874 552.727 221.056 553.025 221.277C553.332 221.498 553.562 221.766 553.716 222.083C553.879 222.4 553.961 222.789 553.961 223.25C553.961 223.739 553.865 224.166 553.673 224.531C553.481 224.886 553.217 225.184 552.881 225.424C552.554 225.654 552.166 225.827 551.714 225.942C551.263 226.048 550.774 226.101 550.246 226.101C549.458 226.101 548.71 225.981 547.999 225.741C547.298 225.491 546.66 225.131 546.084 224.661L546.703 223.566C546.857 223.73 547.054 223.893 547.294 224.056C547.543 224.219 547.822 224.368 548.129 224.502C548.446 224.627 548.782 224.733 549.137 224.819C549.502 224.896 549.881 224.934 550.274 224.934C551.004 224.934 551.57 224.805 551.974 224.546C552.377 224.286 552.578 223.898 552.578 223.379C552.578 223.091 552.511 222.851 552.377 222.659C552.252 222.458 552.065 222.285 551.815 222.141C551.566 221.997 551.254 221.872 550.879 221.766C550.514 221.651 550.097 221.536 549.626 221.421C549.108 221.296 548.652 221.162 548.258 221.018C547.865 220.874 547.534 220.701 547.265 220.499C547.006 220.298 546.809 220.053 546.674 219.765C546.54 219.477 546.473 219.131 546.473 218.728C546.473 218.238 546.564 217.806 546.746 217.432C546.929 217.058 547.183 216.741 547.51 216.482C547.836 216.222 548.225 216.03 548.676 215.906C549.127 215.771 549.617 215.704 550.145 215.704C550.836 215.704 551.46 215.81 552.017 216.021C552.574 216.232 553.068 216.515 553.5 216.87L552.895 217.922ZM495.539 247V236.776H499.801C500.252 236.776 500.665 236.872 501.04 237.064C501.424 237.246 501.75 237.496 502.019 237.813C502.297 238.12 502.513 238.47 502.667 238.864C502.82 239.248 502.897 239.642 502.897 240.045C502.897 240.467 502.825 240.875 502.681 241.269C502.537 241.662 502.331 242.013 502.062 242.32C501.803 242.627 501.486 242.872 501.112 243.054C500.747 243.237 500.339 243.328 499.888 243.328H496.835V247H495.539ZM496.835 242.176H499.816C500.084 242.176 500.324 242.123 500.536 242.018C500.756 241.902 500.944 241.749 501.097 241.557C501.251 241.355 501.371 241.125 501.457 240.866C501.544 240.606 501.587 240.333 501.587 240.045C501.587 239.747 501.534 239.469 501.428 239.21C501.332 238.95 501.198 238.725 501.025 238.533C500.862 238.341 500.665 238.192 500.435 238.086C500.214 237.981 499.979 237.928 499.729 237.928H496.835V242.176ZM507.14 236.776H508.234L512.41 247H511.028L509.818 244.005H505.527L504.332 247H502.949L507.14 236.776ZM509.53 242.997L507.687 238.274L505.786 242.997H509.53ZM514.025 247V236.776H518.402C518.854 236.776 519.266 236.872 519.641 237.064C520.025 237.246 520.351 237.496 520.62 237.813C520.898 238.12 521.114 238.47 521.268 238.864C521.422 239.248 521.498 239.642 521.498 240.045C521.498 240.4 521.446 240.746 521.34 241.082C521.244 241.408 521.1 241.706 520.908 241.974C520.726 242.243 520.5 242.474 520.231 242.666C519.972 242.858 519.679 242.997 519.353 243.083L521.83 247H520.361L518.028 243.328H515.321V247H514.025ZM515.321 242.176H518.417C518.686 242.176 518.926 242.118 519.137 242.003C519.358 241.888 519.545 241.734 519.698 241.542C519.852 241.341 519.972 241.11 520.058 240.851C520.145 240.592 520.188 240.323 520.188 240.045C520.188 239.757 520.135 239.488 520.03 239.238C519.934 238.979 519.799 238.754 519.626 238.562C519.463 238.36 519.266 238.206 519.036 238.101C518.815 237.986 518.58 237.928 518.33 237.928H515.321V242.176ZM530.68 245.848V247H523.739V236.776H530.55V237.928H525.035V241.24H529.83V242.32H525.035V245.848H530.68ZM534.004 239.195V247H532.708V236.776H533.716L540.052 244.739V236.79H541.348V247H540.253L534.004 239.195ZM551.412 237.928H547.884V247H546.588V237.928H543.06V236.776H551.412V237.928ZM559.139 238.922C559.024 238.787 558.87 238.658 558.678 238.533C558.486 238.408 558.27 238.298 558.03 238.202C557.79 238.096 557.526 238.014 557.238 237.957C556.96 237.89 556.667 237.856 556.36 237.856C555.563 237.856 554.977 238.005 554.603 238.302C554.238 238.6 554.056 239.008 554.056 239.526C554.056 239.805 554.109 240.035 554.214 240.218C554.32 240.4 554.483 240.558 554.704 240.693C554.934 240.818 555.217 240.928 555.553 241.024C555.889 241.12 556.288 241.221 556.749 241.326C557.277 241.442 557.752 241.576 558.174 241.73C558.606 241.874 558.971 242.056 559.269 242.277C559.576 242.498 559.806 242.766 559.96 243.083C560.123 243.4 560.205 243.789 560.205 244.25C560.205 244.739 560.109 245.166 559.917 245.531C559.725 245.886 559.461 246.184 559.125 246.424C558.798 246.654 558.409 246.827 557.958 246.942C557.507 247.048 557.017 247.101 556.489 247.101C555.702 247.101 554.953 246.981 554.243 246.741C553.542 246.491 552.904 246.131 552.328 245.661L552.947 244.566C553.101 244.73 553.297 244.893 553.537 245.056C553.787 245.219 554.065 245.368 554.373 245.502C554.689 245.627 555.025 245.733 555.381 245.819C555.745 245.896 556.125 245.934 556.518 245.934C557.248 245.934 557.814 245.805 558.217 245.546C558.621 245.286 558.822 244.898 558.822 244.379C558.822 244.091 558.755 243.851 558.621 243.659C558.496 243.458 558.309 243.285 558.059 243.141C557.809 242.997 557.497 242.872 557.123 242.766C556.758 242.651 556.341 242.536 555.87 242.421C555.352 242.296 554.896 242.162 554.502 242.018C554.109 241.874 553.777 241.701 553.509 241.499C553.249 241.298 553.053 241.053 552.918 240.765C552.784 240.477 552.717 240.131 552.717 239.728C552.717 239.238 552.808 238.806 552.99 238.432C553.173 238.058 553.427 237.741 553.753 237.482C554.08 237.222 554.469 237.03 554.92 236.906C555.371 236.771 555.861 236.704 556.389 236.704C557.08 236.704 557.704 236.81 558.261 237.021C558.817 237.232 559.312 237.515 559.744 237.87L559.139 238.922Z" fill="#AAAAAA"/>
<path d="M266.386 436.508V426.284H270.764C271.215 426.284 271.628 426.38 272.002 426.572C272.386 426.754 272.713 427.004 272.982 427.321C273.26 427.628 273.476 427.978 273.63 428.372C273.783 428.756 273.86 429.149 273.86 429.553C273.86 429.908 273.807 430.253 273.702 430.589C273.606 430.916 273.462 431.213 273.27 431.482C273.087 431.751 272.862 431.981 272.593 432.173C272.334 432.365 272.041 432.505 271.714 432.591L274.191 436.508H272.722L270.39 432.836H267.682V436.508H266.386ZM267.682 431.684H270.778C271.047 431.684 271.287 431.626 271.498 431.511C271.719 431.396 271.906 431.242 272.06 431.05C272.214 430.849 272.334 430.618 272.42 430.359C272.506 430.1 272.55 429.831 272.55 429.553C272.55 429.265 272.497 428.996 272.391 428.746C272.295 428.487 272.161 428.261 271.988 428.069C271.825 427.868 271.628 427.714 271.398 427.609C271.177 427.493 270.942 427.436 270.692 427.436H267.682V431.684ZM279.211 426.284H280.305L284.481 436.508H283.099L281.889 433.513H277.598L276.403 436.508H275.021L279.211 426.284ZM281.601 432.505L279.758 427.781L277.857 432.505H281.601ZM286.096 436.508V426.284H290.358C290.809 426.284 291.222 426.38 291.597 426.572C291.981 426.754 292.307 427.004 292.576 427.321C292.854 427.628 293.07 427.978 293.224 428.372C293.377 428.756 293.454 429.149 293.454 429.553C293.454 429.975 293.382 430.383 293.238 430.777C293.094 431.17 292.888 431.521 292.619 431.828C292.36 432.135 292.043 432.38 291.669 432.562C291.304 432.745 290.896 432.836 290.445 432.836H287.392V436.508H286.096ZM287.392 431.684H290.373C290.641 431.684 290.881 431.631 291.093 431.525C291.313 431.41 291.501 431.257 291.654 431.065C291.808 430.863 291.928 430.633 292.014 430.373C292.101 430.114 292.144 429.841 292.144 429.553C292.144 429.255 292.091 428.977 291.985 428.717C291.889 428.458 291.755 428.233 291.582 428.041C291.419 427.849 291.222 427.7 290.992 427.594C290.771 427.489 290.536 427.436 290.286 427.436H287.392V431.684ZM295.318 436.508V426.284H299.58C300.031 426.284 300.444 426.38 300.819 426.572C301.203 426.754 301.529 427.004 301.798 427.321C302.076 427.628 302.292 427.978 302.446 428.372C302.599 428.756 302.676 429.149 302.676 429.553C302.676 429.975 302.604 430.383 302.46 430.777C302.316 431.17 302.11 431.521 301.841 431.828C301.582 432.135 301.265 432.38 300.891 432.562C300.526 432.745 300.118 432.836 299.667 432.836H296.614V436.508H295.318ZM296.614 431.684H299.595C299.863 431.684 300.103 431.631 300.315 431.525C300.535 431.41 300.723 431.257 300.876 431.065C301.03 430.863 301.15 430.633 301.236 430.373C301.323 430.114 301.366 429.841 301.366 429.553C301.366 429.255 301.313 428.977 301.207 428.717C301.111 428.458 300.977 428.233 300.804 428.041C300.641 427.849 300.444 427.7 300.214 427.594C299.993 427.489 299.758 427.436 299.508 427.436H296.614V431.684ZM308.687 436.58C307.967 436.58 307.309 436.436 306.714 436.148C306.128 435.85 305.624 435.461 305.202 434.981C304.78 434.492 304.453 433.935 304.223 433.311C303.992 432.687 303.877 432.049 303.877 431.396C303.877 430.714 303.997 430.061 304.237 429.437C304.487 428.813 304.828 428.261 305.26 427.781C305.692 427.301 306.2 426.922 306.786 426.644C307.381 426.356 308.024 426.212 308.716 426.212C309.436 426.212 310.088 426.365 310.674 426.673C311.26 426.97 311.764 427.364 312.186 427.853C312.608 428.343 312.935 428.9 313.165 429.524C313.396 430.138 313.511 430.767 313.511 431.41C313.511 432.092 313.386 432.745 313.136 433.369C312.896 433.993 312.56 434.545 312.128 435.025C311.706 435.495 311.197 435.874 310.602 436.162C310.016 436.441 309.378 436.58 308.687 436.58ZM305.188 431.396C305.188 431.914 305.269 432.418 305.432 432.908C305.605 433.388 305.845 433.815 306.152 434.189C306.46 434.564 306.829 434.861 307.261 435.082C307.693 435.303 308.173 435.413 308.701 435.413C309.248 435.413 309.738 435.298 310.17 435.068C310.602 434.828 310.967 434.521 311.264 434.146C311.572 433.762 311.802 433.33 311.956 432.85C312.119 432.37 312.2 431.885 312.2 431.396C312.2 430.877 312.114 430.378 311.941 429.898C311.778 429.409 311.538 428.981 311.221 428.617C310.914 428.242 310.544 427.945 310.112 427.724C309.69 427.503 309.22 427.393 308.701 427.393C308.154 427.393 307.664 427.508 307.232 427.738C306.8 427.969 306.431 428.271 306.124 428.645C305.826 429.02 305.596 429.447 305.432 429.927C305.269 430.407 305.188 430.897 305.188 431.396ZM315.561 436.508V426.284H319.939C320.39 426.284 320.803 426.38 321.177 426.572C321.561 426.754 321.888 427.004 322.157 427.321C322.435 427.628 322.651 427.978 322.805 428.372C322.958 428.756 323.035 429.149 323.035 429.553C323.035 429.908 322.982 430.253 322.877 430.589C322.781 430.916 322.637 431.213 322.445 431.482C322.262 431.751 322.037 431.981 321.768 432.173C321.509 432.365 321.216 432.505 320.889 432.591L323.366 436.508H321.897L319.565 432.836H316.857V436.508H315.561ZM316.857 431.684H319.953C320.222 431.684 320.462 431.626 320.673 431.511C320.894 431.396 321.081 431.242 321.235 431.05C321.389 430.849 321.509 430.618 321.595 430.359C321.681 430.1 321.725 429.831 321.725 429.553C321.725 429.265 321.672 428.996 321.566 428.746C321.47 428.487 321.336 428.261 321.163 428.069C321 427.868 320.803 427.714 320.573 427.609C320.352 427.493 320.117 427.436 319.867 427.436H316.857V431.684ZM332.564 427.436H329.036V436.508H327.74V427.436H324.212V426.284H332.564V427.436ZM340.291 428.429C340.176 428.295 340.023 428.165 339.831 428.041C339.639 427.916 339.423 427.805 339.183 427.709C338.942 427.604 338.678 427.522 338.39 427.465C338.112 427.397 337.819 427.364 337.512 427.364C336.715 427.364 336.13 427.513 335.755 427.81C335.391 428.108 335.208 428.516 335.208 429.034C335.208 429.313 335.261 429.543 335.367 429.725C335.472 429.908 335.635 430.066 335.856 430.201C336.087 430.325 336.37 430.436 336.706 430.532C337.042 430.628 337.44 430.729 337.901 430.834C338.429 430.949 338.904 431.084 339.327 431.237C339.759 431.381 340.123 431.564 340.421 431.785C340.728 432.005 340.959 432.274 341.112 432.591C341.275 432.908 341.357 433.297 341.357 433.757C341.357 434.247 341.261 434.674 341.069 435.039C340.877 435.394 340.613 435.692 340.277 435.932C339.951 436.162 339.562 436.335 339.111 436.45C338.659 436.556 338.17 436.609 337.642 436.609C336.855 436.609 336.106 436.489 335.395 436.249C334.694 435.999 334.056 435.639 333.48 435.169L334.099 434.074C334.253 434.237 334.45 434.401 334.69 434.564C334.939 434.727 335.218 434.876 335.525 435.01C335.842 435.135 336.178 435.241 336.533 435.327C336.898 435.404 337.277 435.442 337.671 435.442C338.4 435.442 338.967 435.313 339.37 435.053C339.773 434.794 339.975 434.405 339.975 433.887C339.975 433.599 339.907 433.359 339.773 433.167C339.648 432.965 339.461 432.793 339.211 432.649C338.962 432.505 338.65 432.38 338.275 432.274C337.91 432.159 337.493 432.044 337.022 431.929C336.504 431.804 336.048 431.669 335.655 431.525C335.261 431.381 334.93 431.209 334.661 431.007C334.402 430.805 334.205 430.561 334.07 430.273C333.936 429.985 333.869 429.639 333.869 429.236C333.869 428.746 333.96 428.314 334.143 427.94C334.325 427.565 334.579 427.249 334.906 426.989C335.232 426.73 335.621 426.538 336.072 426.413C336.523 426.279 337.013 426.212 337.541 426.212C338.232 426.212 338.856 426.317 339.413 426.529C339.97 426.74 340.464 427.023 340.896 427.378L340.291 428.429ZM278.261 449.429C278.146 449.295 277.992 449.165 277.8 449.041C277.608 448.916 277.392 448.805 277.152 448.709C276.912 448.604 276.648 448.522 276.36 448.465C276.082 448.397 275.789 448.364 275.482 448.364C274.685 448.364 274.099 448.513 273.725 448.81C273.36 449.108 273.178 449.516 273.178 450.034C273.178 450.313 273.23 450.543 273.336 450.725C273.442 450.908 273.605 451.066 273.826 451.201C274.056 451.325 274.339 451.436 274.675 451.532C275.011 451.628 275.41 451.729 275.87 451.834C276.398 451.949 276.874 452.084 277.296 452.237C277.728 452.381 278.093 452.564 278.39 452.785C278.698 453.005 278.928 453.274 279.082 453.591C279.245 453.908 279.326 454.297 279.326 454.757C279.326 455.247 279.23 455.674 279.038 456.039C278.846 456.394 278.582 456.692 278.246 456.932C277.92 457.162 277.531 457.335 277.08 457.45C276.629 457.556 276.139 457.609 275.611 457.609C274.824 457.609 274.075 457.489 273.365 457.249C272.664 456.999 272.026 456.639 271.45 456.169L272.069 455.074C272.222 455.237 272.419 455.401 272.659 455.564C272.909 455.727 273.187 455.876 273.494 456.01C273.811 456.135 274.147 456.241 274.502 456.327C274.867 456.404 275.246 456.442 275.64 456.442C276.37 456.442 276.936 456.313 277.339 456.053C277.742 455.794 277.944 455.405 277.944 454.887C277.944 454.599 277.877 454.359 277.742 454.167C277.618 453.965 277.43 453.793 277.181 453.649C276.931 453.505 276.619 453.38 276.245 453.274C275.88 453.159 275.462 453.044 274.992 452.929C274.474 452.804 274.018 452.669 273.624 452.525C273.23 452.381 272.899 452.209 272.63 452.007C272.371 451.805 272.174 451.561 272.04 451.273C271.906 450.985 271.838 450.639 271.838 450.236C271.838 449.746 271.93 449.314 272.112 448.94C272.294 448.565 272.549 448.249 272.875 447.989C273.202 447.73 273.59 447.538 274.042 447.413C274.493 447.279 274.982 447.212 275.51 447.212C276.202 447.212 276.826 447.317 277.382 447.529C277.939 447.74 278.434 448.023 278.866 448.378L278.261 449.429ZM288.222 456.356V457.508H281.281V447.284H288.092V448.436H282.577V451.748H287.372V452.828H282.577V456.356H288.222ZM290.509 447.284L293.619 451.546L296.73 447.284H298.155L294.311 452.468L298.04 457.508H296.615L293.619 453.389L290.624 457.508H289.184L292.914 452.468L289.069 447.284H290.509ZM303.873 456.413C304.469 456.413 304.963 456.298 305.357 456.068C305.75 455.837 306.062 455.54 306.293 455.175C306.533 454.801 306.701 454.378 306.797 453.908C306.893 453.428 306.941 452.943 306.941 452.453V447.284H308.237V452.453C308.237 453.145 308.155 453.802 307.992 454.426C307.838 455.041 307.589 455.583 307.243 456.053C306.897 456.524 306.446 456.898 305.889 457.177C305.342 457.445 304.675 457.58 303.888 457.58C303.072 457.58 302.385 457.436 301.829 457.148C301.272 456.86 300.821 456.481 300.475 456.01C300.139 455.53 299.894 454.983 299.741 454.369C299.597 453.745 299.525 453.106 299.525 452.453V447.284H300.821V452.453C300.821 452.962 300.869 453.457 300.965 453.937C301.07 454.407 301.238 454.825 301.469 455.189C301.709 455.554 302.021 455.852 302.405 456.082C302.798 456.303 303.288 456.413 303.873 456.413ZM317.73 456.356V457.508H310.789V447.284H317.6V448.436H312.085V451.748H316.88V452.828H312.085V456.356H317.73ZM319.758 457.508V447.284H321.054V456.356H326.756V457.508H319.758ZM334.422 449.429C334.307 449.295 334.153 449.165 333.961 449.041C333.769 448.916 333.553 448.805 333.313 448.709C333.073 448.604 332.809 448.522 332.521 448.465C332.243 448.397 331.95 448.364 331.643 448.364C330.846 448.364 330.26 448.513 329.886 448.81C329.521 449.108 329.339 449.516 329.339 450.034C329.339 450.313 329.391 450.543 329.497 450.725C329.603 450.908 329.766 451.066 329.987 451.201C330.217 451.325 330.5 451.436 330.836 451.532C331.172 451.628 331.571 451.729 332.031 451.834C332.559 451.949 333.035 452.084 333.457 452.237C333.889 452.381 334.254 452.564 334.551 452.785C334.859 453.005 335.089 453.274 335.243 453.591C335.406 453.908 335.487 454.297 335.487 454.757C335.487 455.247 335.391 455.674 335.199 456.039C335.007 456.394 334.743 456.692 334.407 456.932C334.081 457.162 333.692 457.335 333.241 457.45C332.79 457.556 332.3 457.609 331.772 457.609C330.985 457.609 330.236 457.489 329.526 457.249C328.825 456.999 328.187 456.639 327.611 456.169L328.23 455.074C328.383 455.237 328.58 455.401 328.82 455.564C329.07 455.727 329.348 455.876 329.655 456.01C329.972 456.135 330.308 456.241 330.663 456.327C331.028 456.404 331.407 456.442 331.801 456.442C332.531 456.442 333.097 456.313 333.5 456.053C333.903 455.794 334.105 455.405 334.105 454.887C334.105 454.599 334.038 454.359 333.903 454.167C333.779 453.965 333.591 453.793 333.342 453.649C333.092 453.505 332.78 453.38 332.406 453.274C332.041 453.159 331.623 453.044 331.153 452.929C330.635 452.804 330.179 452.669 329.785 452.525C329.391 452.381 329.06 452.209 328.791 452.007C328.532 451.805 328.335 451.561 328.201 451.273C328.067 450.985 327.999 450.639 327.999 450.236C327.999 449.746 328.091 449.314 328.273 448.94C328.455 448.565 328.71 448.249 329.036 447.989C329.363 447.73 329.751 447.538 330.203 447.413C330.654 447.279 331.143 447.212 331.671 447.212C332.363 447.212 332.987 447.317 333.543 447.529C334.1 447.74 334.595 448.023 335.027 448.378L334.422 449.429Z" fill="#AAAAAA"/>
<path d="M24.7171 217.922C24.6019 217.787 24.4483 217.658 24.2563 217.533C24.0643 217.408 23.8483 217.298 23.6083 217.202C23.3683 217.096 23.1043 217.014 22.8163 216.957C22.5379 216.89 22.2451 216.856 21.9379 216.856C21.1411 216.856 20.5555 217.005 20.1811 217.302C19.8163 217.6 19.6339 218.008 19.6339 218.526C19.6339 218.805 19.6867 219.035 19.7923 219.218C19.8979 219.4 20.0611 219.558 20.2819 219.693C20.5123 219.818 20.7955 219.928 21.1315 220.024C21.4675 220.12 21.8659 220.221 22.3267 220.326C22.8547 220.442 23.3299 220.576 23.7523 220.73C24.1843 220.874 24.5491 221.056 24.8467 221.277C25.1539 221.498 25.3843 221.766 25.5379 222.083C25.7011 222.4 25.7827 222.789 25.7827 223.25C25.7827 223.739 25.6867 224.166 25.4947 224.531C25.3027 224.886 25.0387 225.184 24.7027 225.424C24.3763 225.654 23.9875 225.827 23.5363 225.942C23.0851 226.048 22.5955 226.101 22.0675 226.101C21.2803 226.101 20.5315 225.981 19.8211 225.741C19.1203 225.491 18.4819 225.131 17.9059 224.661L18.5251 223.566C18.6787 223.73 18.8755 223.893 19.1155 224.056C19.3651 224.219 19.6435 224.368 19.9507 224.502C20.2675 224.627 20.6035 224.733 20.9587 224.819C21.3235 224.896 21.7027 224.934 22.0963 224.934C22.8259 224.934 23.3923 224.805 23.7955 224.546C24.1987 224.286 24.4003 223.898 24.4003 223.379C24.4003 223.091 24.3331 222.851 24.1987 222.659C24.0739 222.458 23.8867 222.285 23.6371 222.141C23.3875 221.997 23.0755 221.872 22.7011 221.766C22.3363 221.651 21.9187 221.536 21.4483 221.421C20.9299 221.296 20.4739 221.162 20.0803 221.018C19.6867 220.874 19.3555 220.701 19.0867 220.499C18.8275 220.298 18.6307 220.053 18.4963 219.765C18.3619 219.477 18.2947 219.131 18.2947 218.728C18.2947 218.238 18.3859 217.806 18.5683 217.432C18.7507 217.058 19.0051 216.741 19.3315 216.482C19.6579 216.222 20.0467 216.03 20.4979 215.906C20.9491 215.771 21.4387 215.704 21.9667 215.704C22.6579 215.704 23.2819 215.81 23.8387 216.021C24.3955 216.232 24.8899 216.515 25.3219 216.87L24.7171 217.922ZM27.7373 226V215.776H29.0333V226H27.7373ZM39.1007 216.928H35.5727V226H34.2767V216.928H30.7487V215.776H39.1007V216.928ZM45.028 224.906C45.6232 224.906 46.1176 224.79 46.5112 224.56C46.9048 224.33 47.2168 224.032 47.4472 223.667C47.6872 223.293 47.8552 222.87 47.9512 222.4C48.0472 221.92 48.0952 221.435 48.0952 220.946V215.776H49.3912V220.946C49.3912 221.637 49.3096 222.294 49.1464 222.918C48.9928 223.533 48.7432 224.075 48.3976 224.546C48.052 225.016 47.6008 225.39 47.044 225.669C46.4968 225.938 45.8296 226.072 45.0424 226.072C44.2264 226.072 43.54 225.928 42.9832 225.64C42.4264 225.352 41.9752 224.973 41.6296 224.502C41.2936 224.022 41.0488 223.475 40.8952 222.861C40.7512 222.237 40.6792 221.598 40.6792 220.946V215.776H41.9752V220.946C41.9752 221.454 42.0232 221.949 42.1192 222.429C42.2248 222.899 42.3928 223.317 42.6232 223.682C42.8632 224.046 43.1752 224.344 43.5592 224.574C43.9528 224.795 44.4424 224.906 45.028 224.906ZM54.6321 215.776H55.7265L59.9025 226H58.5201L57.3105 223.005H53.0193L51.8241 226H50.4417L54.6321 215.776ZM57.0225 221.997L55.1793 217.274L53.2785 221.997H57.0225ZM67.9195 216.928H64.3915V226H63.0955V216.928H59.5675V215.776H67.9195V216.928ZM69.642 226V215.776H70.938V226H69.642ZM77.7798 226.072C77.0598 226.072 76.4022 225.928 75.807 225.64C75.2214 225.342 74.7174 224.954 74.295 224.474C73.8726 223.984 73.5462 223.427 73.3158 222.803C73.0854 222.179 72.9702 221.541 72.9702 220.888C72.9702 220.206 73.0902 219.554 73.3302 218.93C73.5798 218.306 73.9206 217.754 74.3526 217.274C74.7846 216.794 75.2934 216.414 75.879 216.136C76.4742 215.848 77.1174 215.704 77.8086 215.704C78.5286 215.704 79.1814 215.858 79.767 216.165C80.3526 216.462 80.8566 216.856 81.279 217.346C81.7014 217.835 82.0278 218.392 82.2582 219.016C82.4886 219.63 82.6038 220.259 82.6038 220.902C82.6038 221.584 82.479 222.237 82.2294 222.861C81.9894 223.485 81.6534 224.037 81.2214 224.517C80.799 224.987 80.2902 225.366 79.695 225.654C79.1094 225.933 78.471 226.072 77.7798 226.072ZM74.2806 220.888C74.2806 221.406 74.3622 221.91 74.5254 222.4C74.6982 222.88 74.9382 223.307 75.2454 223.682C75.5526 224.056 75.9222 224.354 76.3542 224.574C76.7862 224.795 77.2662 224.906 77.7942 224.906C78.3414 224.906 78.831 224.79 79.263 224.56C79.695 224.32 80.0598 224.013 80.3574 223.638C80.6646 223.254 80.895 222.822 81.0486 222.342C81.2118 221.862 81.2934 221.378 81.2934 220.888C81.2934 220.37 81.207 219.87 81.0342 219.39C80.871 218.901 80.631 218.474 80.3142 218.109C80.007 217.734 79.6374 217.437 79.2054 217.216C78.783 216.995 78.3126 216.885 77.7942 216.885C77.247 216.885 76.7574 217 76.3254 217.23C75.8934 217.461 75.5238 217.763 75.2166 218.138C74.919 218.512 74.6886 218.939 74.5254 219.419C74.3622 219.899 74.2806 220.389 74.2806 220.888ZM85.9505 218.195V226H84.6545V215.776H85.6625L91.9985 223.739V215.79H93.2945V226H92.2001L85.9505 218.195ZM7.70614 238.922C7.59094 238.787 7.43734 238.658 7.24534 238.533C7.05334 238.408 6.83734 238.298 6.59734 238.202C6.35734 238.096 6.09334 238.014 5.80534 237.957C5.52694 237.89 5.23414 237.856 4.92694 237.856C4.13014 237.856 3.54454 238.005 3.17014 238.302C2.80534 238.6 2.62294 239.008 2.62294 239.526C2.62294 239.805 2.67574 240.035 2.78134 240.218C2.88694 240.4 3.05014 240.558 3.27094 240.693C3.50134 240.818 3.78454 240.928 4.12054 241.024C4.45654 241.12 4.85494 241.221 5.31574 241.326C5.84374 241.442 6.31894 241.576 6.74134 241.73C7.17334 241.874 7.53814 242.056 7.83574 242.277C8.14294 242.498 8.37334 242.766 8.52694 243.083C8.69014 243.4 8.77174 243.789 8.77174 244.25C8.77174 244.739 8.67574 245.166 8.48375 245.531C8.29174 245.886 8.02774 246.184 7.69174 246.424C7.36534 246.654 6.97654 246.827 6.52534 246.942C6.07414 247.048 5.58454 247.101 5.05654 247.101C4.26934 247.101 3.52054 246.981 2.81014 246.741C2.10934 246.491 1.47094 246.131 0.894945 245.661L1.51414 244.566C1.66774 244.73 1.86454 244.893 2.10454 245.056C2.35414 245.219 2.63254 245.368 2.93974 245.502C3.25654 245.627 3.59254 245.733 3.94774 245.819C4.31254 245.896 4.69174 245.934 5.08534 245.934C5.81494 245.934 6.38134 245.805 6.78454 245.546C7.18774 245.286 7.38934 244.898 7.38934 244.379C7.38934 244.091 7.32214 243.851 7.18774 243.659C7.06294 243.458 6.87574 243.285 6.62614 243.141C6.37654 242.997 6.06454 242.872 5.69014 242.766C5.32534 242.651 4.90774 242.536 4.43734 242.421C3.91894 242.296 3.46294 242.162 3.06934 242.018C2.67574 241.874 2.34454 241.701 2.07574 241.499C1.81654 241.298 1.61974 241.053 1.48534 240.765C1.35094 240.477 1.28374 240.131 1.28374 239.728C1.28374 239.238 1.37494 238.806 1.55734 238.432C1.73974 238.058 1.99414 237.741 2.32054 237.482C2.64694 237.222 3.03574 237.03 3.48694 236.906C3.93814 236.771 4.42774 236.704 4.95574 236.704C5.64694 236.704 6.27094 236.81 6.82774 237.021C7.38454 237.232 7.87894 237.515 8.31094 237.87L7.70614 238.922ZM17.6671 245.848V247H10.7263V236.776H17.5375V237.928H12.0223V241.24H16.8175V242.32H12.0223V245.848H17.6671ZM20.9911 239.195V247H19.6951V236.776H20.7031L27.0391 244.739V236.79H28.3351V247H27.2407L20.9911 239.195ZM38.3991 237.928H34.8711V247H33.5751V237.928H30.0471V236.776H38.3991V237.928ZM40.1217 247V236.776H41.4177V247H40.1217ZM52.9539 247V239.094L49.5555 245.157H48.8211L45.4083 239.094V247H44.1123V236.776H45.4803L49.1811 243.414L52.8963 236.776H54.2499V247H52.9539ZM63.889 245.848V247H56.9482V236.776H63.7594V237.928H58.2442V241.24H63.0394V242.32H58.2442V245.848H63.889ZM67.213 239.195V247H65.917V236.776H66.925L73.261 244.739V236.79H74.557V247H73.4626L67.213 239.195ZM84.621 237.928H81.093V247H79.797V237.928H76.269V236.776H84.621V237.928ZM88.4836 236.776H89.578L93.754 247H92.3716L91.162 244.005H86.8708L85.6756 247H84.2932L88.4836 236.776ZM90.874 242.997L89.0308 238.274L87.13 242.997H90.874ZM95.3685 247V236.776H96.6645V245.848H102.367V247H95.3685ZM110.969 245.848V247H104.028V236.776H110.839V237.928H105.324V241.24H110.119V242.32H105.324V245.848H110.969Z" fill="#AAAAAA"/>
<path d="M269.741 8.1952V16H268.445V5.776H269.453L275.789 13.7392V5.7904H277.085V16H275.991L269.741 8.1952ZM283.924 16.072C283.204 16.072 282.546 15.928 281.951 15.64C281.365 15.3424 280.861 14.9536 280.439 14.4736C280.016 13.984 279.69 13.4272 279.46 12.8032C279.229 12.1792 279.114 11.5408 279.114 10.888C279.114 10.2064 279.234 9.5536 279.474 8.9296C279.724 8.3056 280.064 7.7536 280.496 7.2736C280.928 6.7936 281.437 6.4144 282.023 6.136C282.618 5.848 283.261 5.704 283.952 5.704C284.672 5.704 285.325 5.8576 285.911 6.1648C286.496 6.4624 287 6.856 287.423 7.3456C287.845 7.8352 288.172 8.392 288.402 9.016C288.632 9.6304 288.748 10.2592 288.748 10.9024C288.748 11.584 288.623 12.2368 288.373 12.8608C288.133 13.4848 287.797 14.0368 287.365 14.5168C286.943 14.9872 286.434 15.3664 285.839 15.6544C285.253 15.9328 284.615 16.072 283.924 16.072ZM280.424 10.888C280.424 11.4064 280.506 11.9104 280.669 12.4C280.842 12.88 281.082 13.3072 281.389 13.6816C281.696 14.056 282.066 14.3536 282.498 14.5744C282.93 14.7952 283.41 14.9056 283.938 14.9056C284.485 14.9056 284.975 14.7904 285.407 14.56C285.839 14.32 286.204 14.0128 286.501 13.6384C286.808 13.2544 287.039 12.8224 287.192 12.3424C287.356 11.8624 287.437 11.3776 287.437 10.888C287.437 10.3696 287.351 9.8704 287.178 9.3904C287.015 8.9008 286.775 8.4736 286.458 8.1088C286.151 7.7344 285.781 7.4368 285.349 7.216C284.927 6.9952 284.456 6.8848 283.938 6.8848C283.391 6.8848 282.901 7 282.469 7.2304C282.037 7.4608 281.668 7.7632 281.36 8.1376C281.063 8.512 280.832 8.9392 280.669 9.4192C280.506 9.8992 280.424 10.3888 280.424 10.888ZM299.64 16V8.0944L296.241 14.1568H295.507L292.094 8.0944V16H290.798V5.776H292.166L295.867 12.4144L299.582 5.776H300.936V16H299.64ZM311.482 13.3648C311.482 13.7584 311.401 14.1184 311.237 14.4448C311.084 14.7712 310.868 15.0496 310.589 15.28C310.321 15.5104 310.004 15.688 309.639 15.8128C309.284 15.9376 308.9 16 308.487 16H303.634V5.776H308.717C309.073 5.776 309.394 5.8528 309.682 6.0064C309.97 6.16 310.215 6.3616 310.417 6.6112C310.618 6.8512 310.772 7.1296 310.877 7.4464C310.993 7.7536 311.05 8.0656 311.05 8.3824C311.05 8.8912 310.921 9.3616 310.661 9.7936C310.412 10.2256 310.052 10.5472 309.581 10.7584C310.167 10.9312 310.628 11.2528 310.964 11.7232C311.309 12.184 311.482 12.7312 311.482 13.3648ZM310.172 13.1344C310.172 12.904 310.129 12.6832 310.042 12.472C309.965 12.2512 309.855 12.0592 309.711 11.896C309.577 11.7328 309.413 11.6032 309.221 11.5072C309.029 11.4112 308.818 11.3632 308.588 11.3632H304.93V14.8768H308.487C308.727 14.8768 308.948 14.8288 309.149 14.7328C309.351 14.6368 309.529 14.512 309.682 14.3584C309.836 14.1952 309.956 14.008 310.042 13.7968C310.129 13.5856 310.172 13.3648 310.172 13.1344ZM304.93 6.8992V10.312H308.185C308.415 10.312 308.626 10.2688 308.818 10.1824C309.01 10.0864 309.173 9.9616 309.308 9.808C309.452 9.6544 309.562 9.4768 309.639 9.2752C309.725 9.064 309.769 8.8432 309.769 8.6128C309.769 8.3728 309.73 8.1472 309.653 7.936C309.577 7.7248 309.471 7.5424 309.337 7.3888C309.212 7.2352 309.053 7.1152 308.861 7.0288C308.679 6.9424 308.482 6.8992 308.271 6.8992H304.93ZM313.545 16V5.776H317.923C318.374 5.776 318.787 5.872 319.161 6.064C319.545 6.2464 319.871 6.496 320.14 6.8128C320.419 7.12 320.635 7.4704 320.788 7.864C320.942 8.248 321.019 8.6416 321.019 9.0448C321.019 9.4 320.966 9.7456 320.86 10.0816C320.764 10.408 320.62 10.7056 320.428 10.9744C320.246 11.2432 320.02 11.4736 319.751 11.6656C319.492 11.8576 319.199 11.9968 318.873 12.0832L321.35 16H319.881L317.548 12.328H314.841V16H313.545ZM314.841 11.176H317.937C318.206 11.176 318.446 11.1184 318.657 11.0032C318.878 10.888 319.065 10.7344 319.219 10.5424C319.372 10.3408 319.492 10.1104 319.579 9.8512C319.665 9.592 319.708 9.3232 319.708 9.0448C319.708 8.7568 319.655 8.488 319.55 8.2384C319.454 7.9792 319.319 7.7536 319.147 7.5616C318.983 7.36 318.787 7.2064 318.556 7.1008C318.335 6.9856 318.1 6.928 317.851 6.928H314.841V11.176ZM330.2 14.848V16H323.259V5.776H330.07V6.928H324.555V10.24H329.35V11.32H324.555V14.848H330.2ZM338.233 7.9216C338.118 7.7872 337.964 7.6576 337.772 7.5328C337.58 7.408 337.364 7.2976 337.124 7.2016C336.884 7.096 336.62 7.0144 336.332 6.9568C336.054 6.8896 335.761 6.856 335.454 6.856C334.657 6.856 334.071 7.0048 333.697 7.3024C333.332 7.6 333.15 8.008 333.15 8.5264C333.15 8.8048 333.202 9.0352 333.308 9.2176C333.414 9.4 333.577 9.5584 333.798 9.6928C334.028 9.8176 334.311 9.928 334.647 10.024C334.983 10.12 335.382 10.2208 335.842 10.3264C336.37 10.4416 336.846 10.576 337.268 10.7296C337.7 10.8736 338.065 11.056 338.362 11.2768C338.67 11.4976 338.9 11.7664 339.054 12.0832C339.217 12.4 339.298 12.7888 339.298 13.2496C339.298 13.7392 339.202 14.1664 339.01 14.5312C338.818 14.8864 338.554 15.184 338.218 15.424C337.892 15.6544 337.503 15.8272 337.052 15.9424C336.601 16.048 336.111 16.1008 335.583 16.1008C334.796 16.1008 334.047 15.9808 333.337 15.7408C332.636 15.4912 331.998 15.1312 331.422 14.6608L332.041 13.5664C332.194 13.7296 332.391 13.8928 332.631 14.056C332.881 14.2192 333.159 14.368 333.466 14.5024C333.783 14.6272 334.119 14.7328 334.474 14.8192C334.839 14.896 335.218 14.9344 335.612 14.9344C336.342 14.9344 336.908 14.8048 337.311 14.5456C337.714 14.2864 337.916 13.8976 337.916 13.3792C337.916 13.0912 337.849 12.8512 337.714 12.6592C337.59 12.4576 337.402 12.2848 337.153 12.1408C336.903 11.9968 336.591 11.872 336.217 11.7664C335.852 11.6512 335.434 11.536 334.964 11.4208C334.446 11.296 333.99 11.1616 333.596 11.0176C333.202 10.8736 332.871 10.7008 332.602 10.4992C332.343 10.2976 332.146 10.0528 332.012 9.7648C331.878 9.4768 331.81 9.1312 331.81 8.728C331.81 8.2384 331.902 7.8064 332.084 7.432C332.266 7.0576 332.521 6.7408 332.847 6.4816C333.174 6.2224 333.562 6.0304 334.014 5.9056C334.465 5.7712 334.954 5.704 335.482 5.704C336.174 5.704 336.798 5.8096 337.354 6.0208C337.911 6.232 338.406 6.5152 338.838 6.8704L338.233 7.9216ZM290.036 26.776H291.13L295.306 37H293.924L292.714 34.0048H288.423L287.228 37H285.846L290.036 26.776ZM292.426 32.9968L290.583 28.2736L288.682 32.9968H292.426ZM305.762 37V29.0944L302.364 35.1568H301.63L298.217 29.0944V37H296.921V26.776H298.289L301.99 33.4144L305.705 26.776H307.058V37H305.762ZM309.757 37V26.776H311.053V37H309.757ZM319.752 28.9216C319.637 28.7872 319.483 28.6576 319.291 28.5328C319.099 28.408 318.883 28.2976 318.643 28.2016C318.403 28.096 318.139 28.0144 317.851 27.9568C317.573 27.8896 317.28 27.856 316.973 27.856C316.176 27.856 315.591 28.0048 315.216 28.3024C314.851 28.6 314.669 29.008 314.669 29.5264C314.669 29.8048 314.722 30.0352 314.827 30.2176C314.933 30.4 315.096 30.5584 315.317 30.6928C315.547 30.8176 315.831 30.928 316.167 31.024C316.503 31.12 316.901 31.2208 317.362 31.3264C317.89 31.4416 318.365 31.576 318.787 31.7296C319.219 31.8736 319.584 32.056 319.882 32.2768C320.189 32.4976 320.419 32.7664 320.573 33.0832C320.736 33.4 320.818 33.7888 320.818 34.2496C320.818 34.7392 320.722 35.1664 320.53 35.5312C320.338 35.8864 320.074 36.184 319.738 36.424C319.411 36.6544 319.023 36.8272 318.571 36.9424C318.12 37.048 317.631 37.1008 317.103 37.1008C316.315 37.1008 315.567 36.9808 314.856 36.7408C314.155 36.4912 313.517 36.1312 312.941 35.6608L313.56 34.5664C313.714 34.7296 313.911 34.8928 314.151 35.056C314.4 35.2192 314.679 35.368 314.986 35.5024C315.303 35.6272 315.639 35.7328 315.994 35.8192C316.359 35.896 316.738 35.9344 317.131 35.9344C317.861 35.9344 318.427 35.8048 318.831 35.5456C319.234 35.2864 319.435 34.8976 319.435 34.3792C319.435 34.0912 319.368 33.8512 319.234 33.6592C319.109 33.4576 318.922 33.2848 318.672 33.1408C318.423 32.9968 318.111 32.872 317.736 32.7664C317.371 32.6512 316.954 32.536 316.483 32.4208C315.965 32.296 315.509 32.1616 315.115 32.0176C314.722 31.8736 314.391 31.7008 314.122 31.4992C313.863 31.2976 313.666 31.0528 313.531 30.7648C313.397 30.4768 313.33 30.1312 313.33 29.728C313.33 29.2384 313.421 28.8064 313.603 28.432C313.786 28.0576 314.04 27.7408 314.367 27.4816C314.693 27.2224 315.082 27.0304 315.533 26.9056C315.984 26.7712 316.474 26.704 317.002 26.704C317.693 26.704 318.317 26.8096 318.874 27.0208C319.431 27.232 319.925 27.5152 320.357 27.8704L319.752 28.9216Z" fill="#AAAAAA"/>
<path d="M302.51 404.5C252.372 356.436 200.388 305.919 151.223 256.723C143.421 248.952 135.733 241.059 128 233.242C139.668 221.847 161.387 200.69 173.116 189.348C216.075 147.946 259.779 103.947 301.332 61.1699L302.479 60L303.688 61.1699C332.585 89.242 361.354 117.459 389.993 145.819C414.614 170.463 451.526 206.494 475.721 231.016L478 233.295L475.721 235.574C420.6 290.513 358.733 350.283 302.518 404.508L302.51 404.5ZM302.51 403.893C356.568 347.769 416.391 286.038 471.155 230.985V235.543C446.952 211.234 410.314 174.595 385.967 149.808C357.581 121.219 329.374 92.4506 301.348 63.5023H303.703L282.083 84.6134C239.39 126.114 195.906 170.524 154.459 213.407L133.355 235.042V231.464C147.622 245.472 161.775 259.569 175.813 273.755C217.815 316.106 261.169 360.842 302.495 403.87L302.51 403.893Z" fill="#AAAAAA"/>
<path d="M302.54 282.445C286.481 268.216 263.114 247.933 247.427 233.674C256.208 211.88 265.317 190.214 274.531 168.594C282.417 149.785 294.7 121.692 302.905 102.822C306.566 124.647 310.881 147.27 315.394 168.996C319.792 190.092 323.895 212.176 327.617 233.454C320.674 247.683 309.848 268.194 302.548 282.445H302.54ZM302.479 282.141C306.278 273.83 315.842 252.826 319.541 244.857C321.41 240.793 323.34 236.774 325.239 232.74L325.133 233.5C321.008 212.411 317.004 190.48 313.578 169.331C310.152 148.182 306.225 126.159 302.001 105.17L303.224 105.299C290.917 136.339 276.757 171.207 264.01 201.845C259.559 212.53 255.046 223.191 250.473 233.826L250.116 232.208C265.043 246.164 287.552 267.837 302.479 282.141Z" fill="#40C3D5"/>
<path d="M302.525 287.664C288.038 271.81 267.064 249.445 252.911 233.606C260.508 210.057 269.07 184.501 277.122 161.05C285.516 136.278 294.184 111.604 302.859 86.9302C305.138 99.8445 307.63 112.698 310.099 125.567C317.263 161.415 325.437 197.051 331.916 233.036L332 233.469L331.803 233.849C323.682 249.407 310.995 272.053 302.525 287.664V287.664ZM302.525 287.368C310.274 271.498 321.783 248.215 329.637 232.672L329.524 233.485C324.601 209.611 320.043 185.669 315.85 161.658C311.656 137.648 307.022 113.726 301.948 89.8928L303.338 89.984C293.873 119.808 283.929 150.195 274.083 179.951C268.302 197.355 261.8 216.453 255.798 233.682L255.525 232.33C268.955 247.85 289.071 271.483 302.51 287.337L302.525 287.368Z" fill="white"/>
<path d="M302.67 273.443C284.559 261.903 259.369 246.209 241.669 234.525L240.484 233.765L241.182 232.512L248.62 219.172C265.628 188.953 284.688 156.485 302.176 126.66L302.936 125.399C304.495 134.758 306.146 144.095 307.889 153.408C313.108 180.035 318.425 206.638 322.656 233.446C317.058 245.328 308.641 261.554 302.7 273.465L302.67 273.443ZM302.594 273.154C307.707 261.189 315.052 244.385 320.317 232.74L320.226 233.446C315.052 206.942 310.973 180.27 306.787 153.575C305.336 144.695 303.749 135.837 302.123 126.987L303.088 127.154C284.043 162.099 263.783 199.467 243.834 234.001L243.348 231.965C260.486 243.664 285.357 260.999 302.601 273.154H302.594Z" fill="#808080"/>
</svg>
