<svg width="484" height="446" viewBox="0 0 484 446" fill="none" xmlns="http://www.w3.org/2000/svg">
<path d="M220.685 7.9216C220.57 7.7872 220.416 7.6576 220.224 7.5328C220.032 7.408 219.816 7.2976 219.576 7.2016C219.336 7.096 219.072 7.0144 218.784 6.9568C218.506 6.8896 218.213 6.856 217.906 6.856C217.109 6.856 216.523 7.0048 216.149 7.3024C215.784 7.6 215.602 8.008 215.602 8.5264C215.602 8.8048 215.655 9.0352 215.76 9.2176C215.866 9.4 216.029 9.5584 216.25 9.6928C216.48 9.8176 216.763 9.928 217.099 10.024C217.435 10.12 217.834 10.2208 218.295 10.3264C218.823 10.4416 219.298 10.576 219.72 10.7296C220.152 10.8736 220.517 11.056 220.815 11.2768C221.122 11.4976 221.352 11.7664 221.506 12.0832C221.669 12.4 221.751 12.7888 221.751 13.2496C221.751 13.7392 221.655 14.1664 221.463 14.5312C221.271 14.8864 221.007 15.184 220.671 15.424C220.344 15.6544 219.955 15.8272 219.504 15.9424C219.053 16.048 218.563 16.1008 218.035 16.1008C217.248 16.1008 216.499 15.9808 215.789 15.7408C215.088 15.4912 214.45 15.1312 213.874 14.6608L214.493 13.5664C214.647 13.7296 214.843 13.8928 215.083 14.056C215.333 14.2192 215.611 14.368 215.919 14.5024C216.235 14.6272 216.571 14.7328 216.927 14.8192C217.291 14.896 217.671 14.9344 218.064 14.9344C218.794 14.9344 219.36 14.8048 219.763 14.5456C220.167 14.2864 220.368 13.8976 220.368 13.3792C220.368 13.0912 220.301 12.8512 220.167 12.6592C220.042 12.4576 219.855 12.2848 219.605 12.1408C219.355 11.9968 219.043 11.872 218.669 11.7664C218.304 11.6512 217.887 11.536 217.416 11.4208C216.898 11.296 216.442 11.1616 216.048 11.0176C215.655 10.8736 215.323 10.7008 215.055 10.4992C214.795 10.2976 214.599 10.0528 214.464 9.7648C214.33 9.4768 214.263 9.1312 214.263 8.728C214.263 8.2384 214.354 7.8064 214.536 7.432C214.719 7.0576 214.973 6.7408 215.299 6.4816C215.626 6.2224 216.015 6.0304 216.466 5.9056C216.917 5.7712 217.407 5.704 217.935 5.704C218.626 5.704 219.25 5.8096 219.807 6.0208C220.363 6.232 220.858 6.5152 221.29 6.8704L220.685 7.9216ZM227.852 16.072C227.132 16.072 226.475 15.928 225.88 15.64C225.294 15.3424 224.79 14.9536 224.368 14.4736C223.945 13.984 223.619 13.4272 223.388 12.8032C223.158 12.1792 223.043 11.5408 223.043 10.888C223.043 10.2064 223.163 9.5536 223.403 8.9296C223.652 8.3056 223.993 7.7536 224.425 7.2736C224.857 6.7936 225.366 6.4144 225.952 6.136C226.547 5.848 227.19 5.704 227.881 5.704C228.601 5.704 229.254 5.8576 229.84 6.1648C230.425 6.4624 230.929 6.856 231.352 7.3456C231.774 7.8352 232.1 8.392 232.331 9.016C232.561 9.6304 232.676 10.2592 232.676 10.9024C232.676 11.584 232.552 12.2368 232.302 12.8608C232.062 13.4848 231.726 14.0368 231.294 14.5168C230.872 14.9872 230.363 15.3664 229.768 15.6544C229.182 15.9328 228.544 16.072 227.852 16.072ZM224.353 10.888C224.353 11.4064 224.435 11.9104 224.598 12.4C224.771 12.88 225.011 13.3072 225.318 13.6816C225.625 14.056 225.995 14.3536 226.427 14.5744C226.859 14.7952 227.339 14.9056 227.867 14.9056C228.414 14.9056 228.904 14.7904 229.336 14.56C229.768 14.32 230.132 14.0128 230.43 13.6384C230.737 13.2544 230.968 12.8224 231.121 12.3424C231.284 11.8624 231.366 11.3776 231.366 10.888C231.366 10.3696 231.28 9.8704 231.107 9.3904C230.944 8.9008 230.704 8.4736 230.387 8.1088C230.08 7.7344 229.71 7.4368 229.278 7.216C228.856 6.9952 228.385 6.8848 227.867 6.8848C227.32 6.8848 226.83 7 226.398 7.2304C225.966 7.4608 225.596 7.7632 225.289 8.1376C224.992 8.512 224.761 8.9392 224.598 9.4192C224.435 9.8992 224.353 10.3888 224.353 10.888ZM243.569 16V8.0944L240.17 14.1568H239.436L236.023 8.0944V16H234.727V5.776H236.095L239.796 12.4144L243.511 5.776H244.865V16H243.569ZM256.405 16V8.0944L253.006 14.1568H252.272L248.859 8.0944V16H247.563V5.776H248.931L252.632 12.4144L256.347 5.776H257.701V16H256.405ZM267.34 14.848V16H260.399V5.776H267.21V6.928H261.695V10.24H266.49V11.32H261.695V14.848H267.34ZM269.368 16V5.776H270.664V16H269.368ZM273.358 16V5.776H274.654V14.848H280.357V16H273.358Z" fill="#AAAAAA"/>
<path d="M23.5314 417.165C23.1474 417.443 22.725 417.664 22.2642 417.827C21.8034 417.99 21.3138 418.072 20.7954 418.072C20.0754 418.072 19.4178 417.923 18.8226 417.626C18.237 417.328 17.733 416.939 17.3106 416.459C16.8882 415.979 16.5618 415.427 16.3314 414.803C16.101 414.179 15.9858 413.541 15.9858 412.888C15.9858 412.206 16.1058 411.554 16.3458 410.93C16.5954 410.306 16.9362 409.754 17.3682 409.274C17.8002 408.794 18.309 408.414 18.8946 408.136C19.4898 407.848 20.133 407.704 20.8242 407.704C21.5442 407.704 22.197 407.858 22.7826 408.165C23.3682 408.462 23.8722 408.856 24.2946 409.346C24.717 409.835 25.0434 410.392 25.2738 411.016C25.5042 411.63 25.6194 412.259 25.6194 412.902C25.6194 413.594 25.4946 414.251 25.245 414.875C25.005 415.49 24.669 416.037 24.237 416.517L25.5186 418H24.2514L23.5314 417.165ZM20.8098 416.906C21.1842 416.906 21.5346 416.848 21.861 416.733C22.1874 416.618 22.485 416.459 22.7538 416.258L21.3858 414.659H22.653L23.4306 415.566C23.709 415.192 23.925 414.774 24.0786 414.314C24.2322 413.853 24.309 413.378 24.309 412.888C24.309 412.37 24.2226 411.87 24.0498 411.39C23.8866 410.901 23.6466 410.469 23.3298 410.094C23.0226 409.72 22.653 409.422 22.221 409.202C21.7986 408.981 21.3282 408.87 20.8098 408.87C20.2626 408.87 19.773 408.986 19.341 409.216C18.909 409.446 18.5394 409.754 18.2322 410.138C17.9346 410.512 17.7042 410.939 17.541 411.419C17.3778 411.899 17.2962 412.389 17.2962 412.888C17.2962 413.406 17.3778 413.91 17.541 414.4C17.7138 414.88 17.9538 415.307 18.261 415.682C18.5682 416.056 18.9378 416.354 19.3698 416.574C19.8018 416.795 20.2818 416.906 20.8098 416.906ZM31.8468 416.906C32.442 416.906 32.9364 416.79 33.33 416.56C33.7236 416.33 34.0356 416.032 34.266 415.667C34.506 415.293 34.674 414.87 34.77 414.4C34.866 413.92 34.914 413.435 34.914 412.946V407.776H36.21V412.946C36.21 413.637 36.1284 414.294 35.9652 414.918C35.8116 415.533 35.562 416.075 35.2164 416.546C34.8708 417.016 34.4196 417.39 33.8628 417.669C33.3156 417.938 32.6484 418.072 31.8612 418.072C31.0452 418.072 30.3588 417.928 29.802 417.64C29.2452 417.352 28.794 416.973 28.4484 416.502C28.1124 416.022 27.8676 415.475 27.714 414.861C27.57 414.237 27.498 413.598 27.498 412.946V407.776H28.794V412.946C28.794 413.454 28.842 413.949 28.938 414.429C29.0436 414.899 29.2116 415.317 29.442 415.682C29.682 416.046 29.994 416.344 30.378 416.574C30.7716 416.795 31.2612 416.906 31.8468 416.906ZM41.4508 407.776H42.5452L46.7212 418H45.3388L44.1292 415.005H39.838L38.6428 418H37.2604L41.4508 407.776ZM43.8412 413.997L41.998 409.274L40.0972 413.997H43.8412ZM48.3357 418V407.776H49.6317V416.848H55.3341V418H48.3357ZM56.9951 418V407.776H58.2911V418H56.9951ZM68.3585 408.928H64.8305V418H63.5345V408.928H60.0065V407.776H68.3585V408.928ZM73.8826 406.552L73.0474 406.264L73.8826 404.81H75.1498L73.8826 406.552ZM77.0218 416.848V418H70.081V407.776H76.8922V408.928H71.377V412.24H76.1722V413.32H71.377V416.848H77.0218ZM1.39509 439V428.776H4.93749C5.75349 428.776 6.46869 428.91 7.08309 429.179C7.70709 429.448 8.22549 429.813 8.63829 430.274C9.05109 430.734 9.35829 431.277 9.55989 431.901C9.77109 432.515 9.87669 433.173 9.87669 433.874C9.87669 434.651 9.76149 435.357 9.53109 435.99C9.30069 436.614 8.96949 437.152 8.53749 437.603C8.10549 438.045 7.58229 438.39 6.96789 438.64C6.36309 438.88 5.68629 439 4.93749 439H1.39509ZM8.56629 433.874C8.56629 433.298 8.48469 432.77 8.32149 432.29C8.16789 431.8 7.93269 431.382 7.61589 431.037C7.30869 430.691 6.92949 430.422 6.47829 430.23C6.02709 430.029 5.51349 429.928 4.93749 429.928H2.69109V437.848H4.93749C5.52309 437.848 6.04149 437.747 6.49269 437.546C6.95349 437.344 7.33269 437.066 7.63029 436.71C7.93749 436.355 8.16789 435.938 8.32149 435.458C8.48469 434.968 8.56629 434.44 8.56629 433.874ZM16.1577 437.906C16.7529 437.906 17.2473 437.79 17.6409 437.56C18.0345 437.33 18.3465 437.032 18.5769 436.667C18.8169 436.293 18.9849 435.87 19.0809 435.4C19.1769 434.92 19.2249 434.435 19.2249 433.946V428.776H20.5209V433.946C20.5209 434.637 20.4393 435.294 20.2761 435.918C20.1225 436.533 19.8729 437.075 19.5273 437.546C19.1817 438.016 18.7305 438.39 18.1737 438.669C17.6265 438.938 16.9593 439.072 16.1721 439.072C15.3561 439.072 14.6697 438.928 14.1129 438.64C13.5561 438.352 13.1049 437.973 12.7593 437.502C12.4233 437.022 12.1785 436.475 12.0249 435.861C11.8809 435.237 11.8089 434.598 11.8089 433.946V428.776H13.1049V433.946C13.1049 434.454 13.1529 434.949 13.2489 435.429C13.3545 435.899 13.5225 436.317 13.7529 436.682C13.9929 437.046 14.3049 437.344 14.6889 437.574C15.0825 437.795 15.5721 437.906 16.1577 437.906ZM32.9702 430.922C32.855 430.787 32.7014 430.658 32.5094 430.533C32.3174 430.408 32.1014 430.298 31.8614 430.202C31.6214 430.096 31.3574 430.014 31.0694 429.957C30.791 429.89 30.4982 429.856 30.191 429.856C29.3942 429.856 28.8086 430.005 28.4342 430.302C28.0694 430.6 27.887 431.008 27.887 431.526C27.887 431.805 27.9398 432.035 28.0454 432.218C28.151 432.4 28.3142 432.558 28.535 432.693C28.7654 432.818 29.0486 432.928 29.3846 433.024C29.7206 433.12 30.119 433.221 30.5798 433.326C31.1078 433.442 31.583 433.576 32.0054 433.73C32.4374 433.874 32.8022 434.056 33.0998 434.277C33.407 434.498 33.6374 434.766 33.791 435.083C33.9542 435.4 34.0358 435.789 34.0358 436.25C34.0358 436.739 33.9398 437.166 33.7478 437.531C33.5558 437.886 33.2918 438.184 32.9558 438.424C32.6294 438.654 32.2406 438.827 31.7894 438.942C31.3382 439.048 30.8486 439.101 30.3206 439.101C29.5334 439.101 28.7846 438.981 28.0742 438.741C27.3734 438.491 26.735 438.131 26.159 437.661L26.7782 436.566C26.9318 436.73 27.1286 436.893 27.3686 437.056C27.6182 437.219 27.8966 437.368 28.2038 437.502C28.5206 437.627 28.8566 437.733 29.2118 437.819C29.5766 437.896 29.9558 437.934 30.3494 437.934C31.079 437.934 31.6454 437.805 32.0486 437.546C32.4518 437.286 32.6534 436.898 32.6534 436.379C32.6534 436.091 32.5862 435.851 32.4518 435.659C32.327 435.458 32.1398 435.285 31.8902 435.141C31.6406 434.997 31.3286 434.872 30.9542 434.766C30.5894 434.651 30.1718 434.536 29.7014 434.421C29.183 434.296 28.727 434.162 28.3334 434.018C27.9398 433.874 27.6086 433.701 27.3398 433.499C27.0806 433.298 26.8838 433.053 26.7494 432.765C26.615 432.477 26.5478 432.131 26.5478 431.728C26.5478 431.238 26.639 430.806 26.8214 430.432C27.0038 430.058 27.2582 429.741 27.5846 429.482C27.911 429.222 28.2998 429.03 28.751 428.906C29.2022 428.771 29.6918 428.704 30.2198 428.704C30.911 428.704 31.535 428.81 32.0918 429.021C32.6486 429.232 33.143 429.515 33.575 429.87L32.9702 430.922ZM40.1376 439.072C39.4176 439.072 38.76 438.928 38.1648 438.64C37.5792 438.342 37.0752 437.954 36.6528 437.474C36.2304 436.984 35.904 436.427 35.6736 435.803C35.4432 435.179 35.328 434.541 35.328 433.888C35.328 433.206 35.448 432.554 35.688 431.93C35.9376 431.306 36.2784 430.754 36.7104 430.274C37.1424 429.794 37.6512 429.414 38.2368 429.136C38.832 428.848 39.4752 428.704 40.1664 428.704C40.8864 428.704 41.5392 428.858 42.1248 429.165C42.7104 429.462 43.2144 429.856 43.6368 430.346C44.0592 430.835 44.3856 431.392 44.616 432.016C44.8464 432.63 44.9616 433.259 44.9616 433.902C44.9616 434.584 44.8368 435.237 44.5872 435.861C44.3472 436.485 44.0112 437.037 43.5792 437.517C43.1568 437.987 42.648 438.366 42.0528 438.654C41.4672 438.933 40.8288 439.072 40.1376 439.072ZM36.6384 433.888C36.6384 434.406 36.72 434.91 36.8832 435.4C37.056 435.88 37.296 436.307 37.6032 436.682C37.9104 437.056 38.28 437.354 38.712 437.574C39.144 437.795 39.624 437.906 40.152 437.906C40.6992 437.906 41.1888 437.79 41.6208 437.56C42.0528 437.32 42.4176 437.013 42.7152 436.638C43.0224 436.254 43.2528 435.822 43.4064 435.342C43.5696 434.862 43.6512 434.378 43.6512 433.888C43.6512 433.37 43.5648 432.87 43.392 432.39C43.2288 431.901 42.9888 431.474 42.672 431.109C42.3648 430.734 41.9952 430.437 41.5632 430.216C41.1408 429.995 40.6704 429.885 40.152 429.885C39.6048 429.885 39.1152 430 38.6832 430.23C38.2512 430.461 37.8816 430.763 37.5744 431.138C37.2768 431.512 37.0464 431.939 36.8832 432.419C36.72 432.899 36.6384 433.389 36.6384 433.888ZM55.8539 439V431.094L52.4555 437.157H51.7211L48.3083 431.094V439H47.0123V428.776H48.3803L52.0811 435.414L55.7963 428.776H57.1499V439H55.8539ZM68.6898 439V431.094L65.2914 437.157H64.557L61.1442 431.094V439H59.8482V428.776H61.2162L64.917 435.414L68.6322 428.776H69.9858V439H68.6898ZM79.625 437.848V439H72.6842V428.776H79.4954V429.928H73.9802V433.24H78.7754V434.32H73.9802V437.848H79.625ZM81.6529 439V428.776H82.9489V439H81.6529ZM85.6435 439V428.776H86.9395V437.848H92.6419V439H85.6435Z" fill="#AAAAAA"/>
<path d="M420.177 418V410.094L416.778 416.157H416.044L412.631 410.094V418H411.335V407.776H412.703L416.404 414.414L420.119 407.776H421.473V418H420.177ZM427.281 407.776H428.376L432.552 418H431.169L429.96 415.005H425.668L424.473 418H423.091L427.281 407.776ZM429.672 413.997L427.828 409.274L425.928 413.997H429.672ZM434.166 418V407.776H435.462V416.848H441.165V418H434.166ZM445.936 407.776H447.03L451.206 418H449.824L448.614 415.005H444.323L443.128 418H441.746L445.936 407.776ZM448.326 413.997L446.483 409.274L444.582 413.997H448.326ZM452.821 418V407.776H456.363C457.179 407.776 457.894 407.91 458.509 408.179C459.133 408.448 459.651 408.813 460.064 409.274C460.477 409.734 460.784 410.277 460.986 410.901C461.197 411.515 461.302 412.173 461.302 412.874C461.302 413.651 461.187 414.357 460.957 414.99C460.726 415.614 460.395 416.152 459.963 416.603C459.531 417.045 459.008 417.39 458.394 417.64C457.789 417.88 457.112 418 456.363 418H452.821ZM459.992 412.874C459.992 412.298 459.91 411.77 459.747 411.29C459.594 410.8 459.358 410.382 459.042 410.037C458.734 409.691 458.355 409.422 457.904 409.23C457.453 409.029 456.939 408.928 456.363 408.928H454.117V416.848H456.363C456.949 416.848 457.467 416.747 457.918 416.546C458.379 416.344 458.758 416.066 459.056 415.71C459.363 415.355 459.594 414.938 459.747 414.458C459.91 413.968 459.992 413.44 459.992 412.874ZM463.379 418V407.776H464.675V418H463.379ZM474.31 416.848V418H467.369V407.776H474.181V408.928H468.665V412.24H473.461V413.32H468.665V416.848H474.31ZM482.343 409.922C482.228 409.787 482.074 409.658 481.882 409.533C481.69 409.408 481.474 409.298 481.234 409.202C480.994 409.096 480.73 409.014 480.442 408.957C480.164 408.89 479.871 408.856 479.564 408.856C478.767 408.856 478.181 409.005 477.807 409.302C477.442 409.6 477.26 410.008 477.26 410.526C477.26 410.805 477.312 411.035 477.418 411.218C477.524 411.4 477.687 411.558 477.908 411.693C478.138 411.818 478.421 411.928 478.757 412.024C479.093 412.12 479.492 412.221 479.952 412.326C480.48 412.442 480.956 412.576 481.378 412.73C481.81 412.874 482.175 413.056 482.472 413.277C482.78 413.498 483.01 413.766 483.164 414.083C483.327 414.4 483.408 414.789 483.408 415.25C483.408 415.739 483.312 416.166 483.12 416.531C482.928 416.886 482.664 417.184 482.328 417.424C482.002 417.654 481.613 417.827 481.162 417.942C480.711 418.048 480.221 418.101 479.693 418.101C478.906 418.101 478.157 417.981 477.447 417.741C476.746 417.491 476.108 417.131 475.532 416.661L476.151 415.566C476.304 415.73 476.501 415.893 476.741 416.056C476.991 416.219 477.269 416.368 477.576 416.502C477.893 416.627 478.229 416.733 478.584 416.819C478.949 416.896 479.328 416.934 479.722 416.934C480.452 416.934 481.018 416.805 481.421 416.546C481.824 416.286 482.026 415.898 482.026 415.379C482.026 415.091 481.959 414.851 481.824 414.659C481.7 414.458 481.512 414.285 481.263 414.141C481.013 413.997 480.701 413.872 480.327 413.766C479.962 413.651 479.544 413.536 479.074 413.421C478.556 413.296 478.1 413.162 477.706 413.018C477.312 412.874 476.981 412.701 476.712 412.499C476.453 412.298 476.256 412.053 476.122 411.765C475.988 411.477 475.92 411.131 475.92 410.728C475.92 410.238 476.012 409.806 476.194 409.432C476.376 409.058 476.631 408.741 476.957 408.482C477.284 408.222 477.672 408.03 478.124 407.906C478.575 407.771 479.064 407.704 479.592 407.704C480.284 407.704 480.908 407.81 481.464 408.021C482.021 408.232 482.516 408.515 482.948 408.87L482.343 409.922Z" fill="#AAAAAA"/>
<path d="M446.476 382.16C380.07 270.433 311.121 154.744 248.328 41.4537H250.75C200.571 125.643 152.298 212.991 103.903 298.228L54.9924 383.807L52.3435 379.252C165.3 378.425 331.934 380.922 446.476 382.16V382.16ZM447 382.463C331.03 383.48 166.704 386.38 52.3131 385.37H47L49.6717 380.816L99.3567 295.655C149.391 210.433 201.3 124.277 249.482 38C316.708 149.757 383.068 268.512 446.977 382.501L447 382.463Z" fill="#AAAAAA"/>
<path d="M249.733 162.114C215.714 213.575 166.742 287.389 132.442 337.606L131.159 335.147C151.524 335.526 202.681 336.482 222.317 336.945C249.383 337.613 286.4 338.539 313.474 338.979C333.715 339.344 353.975 339.556 374.256 339.617L373.611 340.816C332.139 283.245 289.793 220.892 249.733 162.114V162.114ZM249.733 161.811C291.478 220.255 335.66 281.856 375.729 341.188C325.824 339.769 272.328 339.503 222.287 339.245C201.11 339.108 149.899 338.486 128.169 338.266L129.816 335.837C167.698 279.541 210.932 217.735 249.74 161.811H249.733Z" fill="#40C3D5"/>
<path d="M249.733 156.05C214.985 210.023 165.657 285.993 130.75 338.714L129.497 336.209C180.928 339.359 246.006 343.625 297.057 347.139C330.302 349.416 364.381 351.443 397.619 353.15L397.042 354.228L359.805 305.302C324.085 257.826 285.072 204.354 249.748 156.05H249.733ZM249.733 155.746C298.712 219.814 351.6 289.264 398.992 354.608C365.315 352.331 330.742 350.266 296.981 348.535C244.905 345.955 178.863 342.289 126.514 339.306C165.793 279.579 209.619 215.215 249.733 155.776V155.746Z" fill="#808080"/>
<path d="M249.733 164.05C229.915 193.917 182.894 265.113 163.547 293.841C153.968 308.065 144.333 322.261 134.643 336.429L133.338 334.016C176.465 333.257 231.046 332.725 273.877 332.277C301.103 331.86 331.121 331.313 358.188 330.38L357.512 331.647C321.353 277.757 284.488 219.071 249.733 164.08V164.05ZM249.733 163.746C285.854 218.069 324.374 275.556 358.894 330.729L359.698 331.989H358.226C331.19 332.148 301.095 332.672 273.9 333.355C230.036 334.653 174.545 336.156 130.446 337.15C164.298 286.22 214.522 214.76 249.755 163.754L249.733 163.746Z" fill="white"/>
</svg>
