<svg width="466" height="419" viewBox="0 0 466 419" fill="none" xmlns="http://www.w3.org/2000/svg">
<path d="M202.562 10.816C202.562 10.2016 202.667 9.592 202.878 8.9872C203.099 8.3728 203.416 7.8256 203.829 7.3456C204.251 6.856 204.765 6.4624 205.37 6.1648C205.974 5.8672 206.661 5.7184 207.429 5.7184C208.341 5.7184 209.123 5.9248 209.776 6.3376C210.429 6.7504 210.914 7.288 211.23 7.9504L210.208 8.6128C210.054 8.2864 209.867 8.0128 209.646 7.792C209.435 7.5712 209.2 7.3936 208.941 7.2592C208.691 7.1248 208.432 7.0288 208.163 6.9712C207.894 6.9136 207.63 6.8848 207.371 6.8848C206.805 6.8848 206.301 7.0048 205.859 7.2448C205.427 7.4752 205.062 7.7824 204.765 8.1664C204.467 8.5408 204.242 8.968 204.088 9.448C203.944 9.9184 203.872 10.3936 203.872 10.8736C203.872 11.4112 203.958 11.9248 204.131 12.4144C204.314 12.8944 204.563 13.3216 204.88 13.696C205.197 14.0704 205.571 14.368 206.003 14.5888C206.435 14.8096 206.906 14.92 207.414 14.92C207.683 14.92 207.957 14.8864 208.235 14.8192C208.523 14.752 208.797 14.6464 209.056 14.5024C209.315 14.3488 209.555 14.1616 209.776 13.9408C210.006 13.7104 210.194 13.4368 210.338 13.12L211.418 13.7104C211.254 14.0944 211.024 14.4352 210.726 14.7328C210.438 15.0208 210.107 15.2656 209.733 15.4672C209.368 15.6688 208.979 15.8224 208.566 15.928C208.154 16.0336 207.75 16.0864 207.357 16.0864C206.656 16.0864 206.013 15.9328 205.427 15.6256C204.842 15.3184 204.333 14.92 203.901 14.4304C203.478 13.9312 203.147 13.3696 202.907 12.7456C202.677 12.112 202.562 11.4688 202.562 10.816ZM213.29 16V5.776H214.586V14.848H220.288V16H213.29ZM225.773 16.072C225.053 16.072 224.395 15.928 223.8 15.64C223.214 15.3424 222.71 14.9536 222.288 14.4736C221.866 13.984 221.539 13.4272 221.309 12.8032C221.078 12.1792 220.963 11.5408 220.963 10.888C220.963 10.2064 221.083 9.5536 221.323 8.9296C221.573 8.3056 221.914 7.7536 222.346 7.2736C222.778 6.7936 223.286 6.4144 223.872 6.136C224.467 5.848 225.11 5.704 225.802 5.704C226.522 5.704 227.174 5.8576 227.76 6.1648C228.346 6.4624 228.85 6.856 229.272 7.3456C229.694 7.8352 230.021 8.392 230.251 9.016C230.482 9.6304 230.597 10.2592 230.597 10.9024C230.597 11.584 230.472 12.2368 230.222 12.8608C229.982 13.4848 229.646 14.0368 229.214 14.5168C228.792 14.9872 228.283 15.3664 227.688 15.6544C227.102 15.9328 226.464 16.072 225.773 16.072ZM222.274 10.888C222.274 11.4064 222.355 11.9104 222.518 12.4C222.691 12.88 222.931 13.3072 223.238 13.6816C223.546 14.056 223.915 14.3536 224.347 14.5744C224.779 14.7952 225.259 14.9056 225.787 14.9056C226.334 14.9056 226.824 14.7904 227.256 14.56C227.688 14.32 228.053 14.0128 228.35 13.6384C228.658 13.2544 228.888 12.8224 229.042 12.3424C229.205 11.8624 229.286 11.3776 229.286 10.888C229.286 10.3696 229.2 9.8704 229.027 9.3904C228.864 8.9008 228.624 8.4736 228.307 8.1088C228 7.7344 227.63 7.4368 227.198 7.216C226.776 6.9952 226.306 6.8848 225.787 6.8848C225.24 6.8848 224.75 7 224.318 7.2304C223.886 7.4608 223.517 7.7632 223.21 8.1376C222.912 8.512 222.682 8.9392 222.518 9.4192C222.355 9.8992 222.274 10.3888 222.274 10.888ZM232.647 16V5.776H236.91C237.361 5.776 237.774 5.872 238.148 6.064C238.532 6.2464 238.859 6.496 239.127 6.8128C239.406 7.12 239.622 7.4704 239.775 7.864C239.929 8.248 240.006 8.6416 240.006 9.0448C240.006 9.4672 239.934 9.8752 239.79 10.2688C239.646 10.6624 239.439 11.0128 239.171 11.32C238.911 11.6272 238.595 11.872 238.22 12.0544C237.855 12.2368 237.447 12.328 236.996 12.328H233.943V16H232.647ZM233.943 11.176H236.924C237.193 11.176 237.433 11.1232 237.644 11.0176C237.865 10.9024 238.052 10.7488 238.206 10.5568C238.359 10.3552 238.479 10.1248 238.566 9.8656C238.652 9.6064 238.695 9.3328 238.695 9.0448C238.695 8.7472 238.643 8.4688 238.537 8.2096C238.441 7.9504 238.307 7.7248 238.134 7.5328C237.971 7.3408 237.774 7.192 237.543 7.0864C237.323 6.9808 237.087 6.928 236.838 6.928H233.943V11.176ZM248.81 14.848V16H241.869V5.776H248.681V6.928H243.165V10.24H247.961V11.32H243.165V14.848H248.81ZM256.843 7.9216C256.728 7.7872 256.574 7.6576 256.382 7.5328C256.19 7.408 255.974 7.2976 255.734 7.2016C255.494 7.096 255.23 7.0144 254.942 6.9568C254.664 6.8896 254.371 6.856 254.064 6.856C253.267 6.856 252.681 7.0048 252.307 7.3024C251.942 7.6 251.76 8.008 251.76 8.5264C251.76 8.8048 251.812 9.0352 251.918 9.2176C252.024 9.4 252.187 9.5584 252.408 9.6928C252.638 9.8176 252.921 9.928 253.257 10.024C253.593 10.12 253.992 10.2208 254.452 10.3264C254.98 10.4416 255.456 10.576 255.878 10.7296C256.31 10.8736 256.675 11.056 256.972 11.2768C257.28 11.4976 257.51 11.7664 257.664 12.0832C257.827 12.4 257.908 12.7888 257.908 13.2496C257.908 13.7392 257.812 14.1664 257.62 14.5312C257.428 14.8864 257.164 15.184 256.828 15.424C256.502 15.6544 256.113 15.8272 255.662 15.9424C255.211 16.048 254.721 16.1008 254.193 16.1008C253.406 16.1008 252.657 15.9808 251.947 15.7408C251.246 15.4912 250.608 15.1312 250.032 14.6608L250.651 13.5664C250.804 13.7296 251.001 13.8928 251.241 14.056C251.491 14.2192 251.769 14.368 252.076 14.5024C252.393 14.6272 252.729 14.7328 253.084 14.8192C253.449 14.896 253.828 14.9344 254.222 14.9344C254.952 14.9344 255.518 14.8048 255.921 14.5456C256.324 14.2864 256.526 13.8976 256.526 13.3792C256.526 13.0912 256.459 12.8512 256.324 12.6592C256.2 12.4576 256.012 12.2848 255.763 12.1408C255.513 11.9968 255.201 11.872 254.827 11.7664C254.462 11.6512 254.044 11.536 253.574 11.4208C253.056 11.296 252.6 11.1616 252.206 11.0176C251.812 10.8736 251.481 10.7008 251.212 10.4992C250.953 10.2976 250.756 10.0528 250.622 9.7648C250.488 9.4768 250.42 9.1312 250.42 8.728C250.42 8.2384 250.512 7.8064 250.694 7.432C250.876 7.0576 251.131 6.7408 251.457 6.4816C251.784 6.2224 252.172 6.0304 252.624 5.9056C253.075 5.7712 253.564 5.704 254.092 5.704C254.784 5.704 255.408 5.8096 255.964 6.0208C256.521 6.232 257.016 6.5152 257.448 6.8704L256.843 7.9216Z" fill="#AAAAAA"/>
<path d="M4.3344 402.776H5.4288L9.6048 413H8.2224L7.0128 410.005H2.7216L1.5264 413H0.144L4.3344 402.776ZM6.7248 408.997L4.8816 404.274L2.9808 408.997H6.7248ZM11.2193 413V402.776H12.5153V411.848H18.2177V413H11.2193ZM18.8928 407.816C18.8928 407.202 18.9984 406.592 19.2096 405.987C19.4304 405.373 19.7472 404.826 20.16 404.346C20.5824 403.856 21.096 403.462 21.7008 403.165C22.3056 402.867 22.992 402.718 23.76 402.718C24.672 402.718 25.4544 402.925 26.1072 403.338C26.76 403.75 27.2448 404.288 27.5616 404.95L26.5392 405.613C26.3856 405.286 26.1984 405.013 25.9776 404.792C25.7664 404.571 25.5312 404.394 25.272 404.259C25.0224 404.125 24.7632 404.029 24.4944 403.971C24.2256 403.914 23.9616 403.885 23.7024 403.885C23.136 403.885 22.632 404.005 22.1904 404.245C21.7584 404.475 21.3936 404.782 21.096 405.166C20.7984 405.541 20.5728 405.968 20.4192 406.448C20.2752 406.918 20.2032 407.394 20.2032 407.874C20.2032 408.411 20.2896 408.925 20.4624 409.414C20.6448 409.894 20.8944 410.322 21.2112 410.696C21.528 411.07 21.9024 411.368 22.3344 411.589C22.7664 411.81 23.2368 411.92 23.7456 411.92C24.0144 411.92 24.288 411.886 24.5664 411.819C24.8544 411.752 25.128 411.646 25.3872 411.502C25.6464 411.349 25.8864 411.162 26.1072 410.941C26.3376 410.71 26.5248 410.437 26.6688 410.12L27.7488 410.71C27.5856 411.094 27.3552 411.435 27.0576 411.733C26.7696 412.021 26.4384 412.266 26.064 412.467C25.6992 412.669 25.3104 412.822 24.8976 412.928C24.4848 413.034 24.0816 413.086 23.688 413.086C22.9872 413.086 22.344 412.933 21.7584 412.626C21.1728 412.318 20.664 411.92 20.232 411.43C19.8096 410.931 19.4784 410.37 19.2384 409.746C19.008 409.112 18.8928 408.469 18.8928 407.816ZM33.6556 413.072C32.9356 413.072 32.278 412.928 31.6828 412.64C31.0972 412.342 30.5932 411.954 30.1708 411.474C29.7484 410.984 29.422 410.427 29.1916 409.803C28.9612 409.179 28.846 408.541 28.846 407.888C28.846 407.206 28.966 406.554 29.206 405.93C29.4556 405.306 29.7964 404.754 30.2284 404.274C30.6604 403.794 31.1692 403.414 31.7548 403.136C32.35 402.848 32.9932 402.704 33.6844 402.704C34.4044 402.704 35.0572 402.858 35.6428 403.165C36.2284 403.462 36.7324 403.856 37.1548 404.346C37.5772 404.835 37.9036 405.392 38.134 406.016C38.3644 406.63 38.4796 407.259 38.4796 407.902C38.4796 408.584 38.3548 409.237 38.1052 409.861C37.8652 410.485 37.5292 411.037 37.0972 411.517C36.6748 411.987 36.166 412.366 35.5708 412.654C34.9852 412.933 34.3468 413.072 33.6556 413.072ZM30.1564 407.888C30.1564 408.406 30.238 408.91 30.4012 409.4C30.574 409.88 30.814 410.307 31.1212 410.682C31.4284 411.056 31.798 411.354 32.23 411.574C32.662 411.795 33.142 411.906 33.67 411.906C34.2172 411.906 34.7068 411.79 35.1388 411.56C35.5708 411.32 35.9356 411.013 36.2332 410.638C36.5404 410.254 36.7708 409.822 36.9244 409.342C37.0876 408.862 37.1692 408.378 37.1692 407.888C37.1692 407.37 37.0828 406.87 36.91 406.39C36.7468 405.901 36.5068 405.474 36.19 405.109C35.8828 404.734 35.5132 404.437 35.0812 404.216C34.6588 403.995 34.1884 403.885 33.67 403.885C33.1228 403.885 32.6332 404 32.2012 404.23C31.7692 404.461 31.3996 404.763 31.0924 405.138C30.7948 405.512 30.5644 405.939 30.4012 406.419C30.238 406.899 30.1564 407.389 30.1564 407.888ZM44.6775 413.072C43.9575 413.072 43.2999 412.928 42.7047 412.64C42.1191 412.342 41.6151 411.954 41.1927 411.474C40.7703 410.984 40.4439 410.427 40.2135 409.803C39.9831 409.179 39.8679 408.541 39.8679 407.888C39.8679 407.206 39.9879 406.554 40.2279 405.93C40.4775 405.306 40.8183 404.754 41.2503 404.274C41.6823 403.794 42.1911 403.414 42.7767 403.136C43.3719 402.848 44.0151 402.704 44.7063 402.704C45.4263 402.704 46.0791 402.858 46.6647 403.165C47.2503 403.462 47.7543 403.856 48.1767 404.346C48.5991 404.835 48.9255 405.392 49.1559 406.016C49.3863 406.63 49.5015 407.259 49.5015 407.902C49.5015 408.584 49.3767 409.237 49.1271 409.861C48.8871 410.485 48.5511 411.037 48.1191 411.517C47.6967 411.987 47.1879 412.366 46.5927 412.654C46.0071 412.933 45.3687 413.072 44.6775 413.072ZM41.1783 407.888C41.1783 408.406 41.2599 408.91 41.4231 409.4C41.5959 409.88 41.8359 410.307 42.1431 410.682C42.4503 411.056 42.8199 411.354 43.2519 411.574C43.6839 411.795 44.1639 411.906 44.6919 411.906C45.2391 411.906 45.7287 411.79 46.1607 411.56C46.5927 411.32 46.9575 411.013 47.2551 410.638C47.5623 410.254 47.7927 409.822 47.9463 409.342C48.1095 408.862 48.1911 408.378 48.1911 407.888C48.1911 407.37 48.1047 406.87 47.9319 406.39C47.7687 405.901 47.5287 405.474 47.2119 405.109C46.9047 404.734 46.5351 404.437 46.1031 404.216C45.6807 403.995 45.2103 403.885 44.6919 403.885C44.1447 403.885 43.6551 404 43.2231 404.23C42.7911 404.461 42.4215 404.763 42.1143 405.138C41.8167 405.512 41.5863 405.939 41.4231 406.419C41.2599 406.899 41.1783 407.389 41.1783 407.888ZM51.5521 413V402.776H52.8481V411.848H58.5505V413H51.5521Z" fill="#AAAAAA"/>
<path d="M396.224 413V402.776H399.766C400.582 402.776 401.298 402.91 401.912 403.179C402.536 403.448 403.054 403.813 403.467 404.274C403.88 404.734 404.187 405.277 404.389 405.901C404.6 406.515 404.706 407.173 404.706 407.874C404.706 408.651 404.59 409.357 404.36 409.99C404.13 410.614 403.798 411.152 403.366 411.603C402.934 412.045 402.411 412.39 401.797 412.64C401.192 412.88 400.515 413 399.766 413H396.224ZM403.395 407.874C403.395 407.298 403.314 406.77 403.15 406.29C402.997 405.8 402.762 405.382 402.445 405.037C402.138 404.691 401.758 404.422 401.307 404.23C400.856 404.029 400.342 403.928 399.766 403.928H397.52V411.848H399.766C400.352 411.848 400.87 411.747 401.322 411.546C401.782 411.344 402.162 411.066 402.459 410.71C402.766 410.355 402.997 409.938 403.15 409.458C403.314 408.968 403.395 408.44 403.395 407.874ZM406.782 413V402.776H411.159C411.611 402.776 412.023 402.872 412.398 403.064C412.782 403.246 413.108 403.496 413.377 403.813C413.655 404.12 413.871 404.47 414.025 404.864C414.179 405.248 414.255 405.642 414.255 406.045C414.255 406.4 414.203 406.746 414.097 407.082C414.001 407.408 413.857 407.706 413.665 407.974C413.483 408.243 413.257 408.474 412.988 408.666C412.729 408.858 412.436 408.997 412.11 409.083L414.587 413H413.118L410.785 409.328H408.078V413H406.782ZM408.078 408.176H411.174C411.443 408.176 411.683 408.118 411.894 408.003C412.115 407.888 412.302 407.734 412.455 407.542C412.609 407.341 412.729 407.11 412.815 406.851C412.902 406.592 412.945 406.323 412.945 406.045C412.945 405.757 412.892 405.488 412.787 405.238C412.691 404.979 412.556 404.754 412.383 404.562C412.22 404.36 412.023 404.206 411.793 404.101C411.572 403.986 411.337 403.928 411.087 403.928H408.078V408.176ZM420.643 413.072C419.923 413.072 419.265 412.928 418.67 412.64C418.085 412.342 417.581 411.954 417.158 411.474C416.736 410.984 416.409 410.427 416.179 409.803C415.949 409.179 415.833 408.541 415.833 407.888C415.833 407.206 415.953 406.554 416.193 405.93C416.443 405.306 416.784 404.754 417.216 404.274C417.648 403.794 418.157 403.414 418.742 403.136C419.337 402.848 419.981 402.704 420.672 402.704C421.392 402.704 422.045 402.858 422.63 403.165C423.216 403.462 423.72 403.856 424.142 404.346C424.565 404.835 424.891 405.392 425.121 406.016C425.352 406.63 425.467 407.259 425.467 407.902C425.467 408.584 425.342 409.237 425.093 409.861C424.853 410.485 424.517 411.037 424.085 411.517C423.662 411.987 423.153 412.366 422.558 412.654C421.973 412.933 421.334 413.072 420.643 413.072ZM417.144 407.888C417.144 408.406 417.225 408.91 417.389 409.4C417.561 409.88 417.801 410.307 418.109 410.682C418.416 411.056 418.785 411.354 419.217 411.574C419.649 411.795 420.129 411.906 420.657 411.906C421.205 411.906 421.694 411.79 422.126 411.56C422.558 411.32 422.923 411.013 423.221 410.638C423.528 410.254 423.758 409.822 423.912 409.342C424.075 408.862 424.157 408.378 424.157 407.888C424.157 407.37 424.07 406.87 423.897 406.39C423.734 405.901 423.494 405.474 423.177 405.109C422.87 404.734 422.501 404.437 422.069 404.216C421.646 403.995 421.176 403.885 420.657 403.885C420.11 403.885 419.621 404 419.189 404.23C418.757 404.461 418.387 404.763 418.08 405.138C417.782 405.512 417.552 405.939 417.389 406.419C417.225 406.899 417.144 407.389 417.144 407.888ZM434.732 411.618C433.83 412.587 432.793 413.072 431.622 413.072C430.94 413.072 430.307 412.923 429.721 412.626C429.145 412.328 428.646 411.939 428.223 411.459C427.801 410.97 427.465 410.413 427.215 409.789C426.975 409.165 426.855 408.522 426.855 407.859C426.855 407.168 426.975 406.515 427.215 405.901C427.455 405.277 427.787 404.73 428.209 404.259C428.631 403.779 429.135 403.4 429.721 403.122C430.307 402.843 430.94 402.704 431.622 402.704C432.611 402.704 433.422 402.91 434.055 403.323C434.699 403.736 435.188 404.274 435.524 404.936L434.531 405.627C434.223 405.032 433.815 404.59 433.307 404.302C432.798 404.014 432.227 403.87 431.593 403.87C431.075 403.87 430.604 403.986 430.182 404.216C429.759 404.437 429.399 404.734 429.102 405.109C428.804 405.474 428.574 405.901 428.411 406.39C428.247 406.87 428.166 407.37 428.166 407.888C428.166 408.435 428.257 408.954 428.439 409.443C428.622 409.923 428.871 410.35 429.188 410.725C429.505 411.09 429.879 411.378 430.311 411.589C430.743 411.8 431.214 411.906 431.723 411.906C432.836 411.906 433.839 411.368 434.732 410.293V408.882H432.529V407.902H435.827V413H434.732V411.618ZM442.252 411.906C442.847 411.906 443.342 411.79 443.735 411.56C444.129 411.33 444.441 411.032 444.671 410.667C444.911 410.293 445.079 409.87 445.175 409.4C445.271 408.92 445.319 408.435 445.319 407.946V402.776H446.615V407.946C446.615 408.637 446.534 409.294 446.371 409.918C446.217 410.533 445.967 411.075 445.622 411.546C445.276 412.016 444.825 412.39 444.268 412.669C443.721 412.938 443.054 413.072 442.267 413.072C441.451 413.072 440.764 412.928 440.207 412.64C439.651 412.352 439.199 411.973 438.854 411.502C438.518 411.022 438.273 410.475 438.119 409.861C437.975 409.237 437.903 408.598 437.903 407.946V402.776H439.199V407.946C439.199 408.454 439.247 408.949 439.343 409.429C439.449 409.899 439.617 410.317 439.847 410.682C440.087 411.046 440.399 411.344 440.783 411.574C441.177 411.795 441.667 411.906 442.252 411.906ZM456.109 411.848V413H449.168V402.776H455.979V403.928H450.464V407.24H455.259V408.32H450.464V411.848H456.109ZM464.141 404.922C464.026 404.787 463.872 404.658 463.68 404.533C463.488 404.408 463.272 404.298 463.032 404.202C462.792 404.096 462.528 404.014 462.24 403.957C461.962 403.89 461.669 403.856 461.362 403.856C460.565 403.856 459.98 404.005 459.605 404.302C459.24 404.6 459.058 405.008 459.058 405.526C459.058 405.805 459.111 406.035 459.216 406.218C459.322 406.4 459.485 406.558 459.706 406.693C459.936 406.818 460.22 406.928 460.556 407.024C460.892 407.12 461.29 407.221 461.751 407.326C462.279 407.442 462.754 407.576 463.176 407.73C463.608 407.874 463.973 408.056 464.271 408.277C464.578 408.498 464.808 408.766 464.962 409.083C465.125 409.4 465.207 409.789 465.207 410.25C465.207 410.739 465.111 411.166 464.919 411.531C464.727 411.886 464.463 412.184 464.127 412.424C463.8 412.654 463.412 412.827 462.96 412.942C462.509 413.048 462.02 413.101 461.492 413.101C460.704 413.101 459.956 412.981 459.245 412.741C458.544 412.491 457.906 412.131 457.33 411.661L457.949 410.566C458.103 410.73 458.3 410.893 458.54 411.056C458.789 411.219 459.068 411.368 459.375 411.502C459.692 411.627 460.028 411.733 460.383 411.819C460.748 411.896 461.127 411.934 461.52 411.934C462.25 411.934 462.816 411.805 463.22 411.546C463.623 411.286 463.824 410.898 463.824 410.379C463.824 410.091 463.757 409.851 463.623 409.659C463.498 409.458 463.311 409.285 463.061 409.141C462.812 408.997 462.5 408.872 462.125 408.766C461.76 408.651 461.343 408.536 460.872 408.421C460.354 408.296 459.898 408.162 459.504 408.018C459.111 407.874 458.78 407.701 458.511 407.499C458.252 407.298 458.055 407.053 457.92 406.765C457.786 406.477 457.719 406.131 457.719 405.728C457.719 405.238 457.81 404.806 457.992 404.432C458.175 404.058 458.429 403.741 458.756 403.482C459.082 403.222 459.471 403.03 459.922 402.906C460.373 402.771 460.863 402.704 461.391 402.704C462.082 402.704 462.706 402.81 463.263 403.021C463.82 403.232 464.314 403.515 464.746 403.87L464.141 404.922Z" fill="#AAAAAA"/>
<path d="M228.565 38.6042C165.339 151.376 99.9762 268.315 33.6091 378.798L32.4086 376.714C129.891 378.066 229.162 376.208 326.652 375.499L424.715 375.023L422.08 379.553C365.188 282.653 284.46 137.861 228.55 38.574L228.565 38.6042ZM228.565 38C287.126 137.392 371.357 277.518 427.365 376.54L430 381.131H424.715L326.629 380.686C228.331 379.968 128.29 378.103 30 379.508C92.8412 266.004 162.13 149.767 228.573 38.0229L228.565 38Z" fill="#AAAAAA"/>
<path d="M228.762 102.502C191.01 177.884 150.797 258.71 111.604 333.141L110.932 331.933C130.404 333.73 158.952 335.852 178.756 337.482C243.123 342.405 318.014 347.177 382.411 352.032L381.051 354.259C368.246 333.456 355.489 312.655 342.779 291.856C317.493 250.398 254.637 145.539 228.769 102.502H228.762ZM228.762 102.2C274.985 176.888 340.446 280.931 385.053 355.181C332.065 351.104 265.668 345.32 212.627 341.069C181.127 338.509 142.19 335.693 110.819 333.594L109.573 333.511L110.139 332.386C147.589 256.958 189.727 177.009 228.762 102.2V102.2Z" fill="#40C3D5"/>
<path d="M228.769 102.494C191.871 177.348 152.76 257.495 114.692 331.526L113.937 330.076C139.019 333.7 164.093 337.422 189.198 340.895C231.94 347.094 296.548 355.241 339.94 360.987L415.307 371.013L413.933 373.279C359.986 296.092 282.452 181.501 228.777 102.525L228.769 102.494ZM228.769 102.2C283.97 181.267 362.87 292.958 416.311 371.625L418.154 374.313L414.937 373.86L339.646 363.207C267.042 352.546 186.05 341.22 113.68 332.077L112.283 331.895L112.91 330.619C149.62 255.796 190.716 176.54 228.769 102.2V102.2Z" fill="#808080"/>
<path d="M228.754 106.406C200.576 161.236 168.82 223.436 140.242 277.587L110.109 333.896L109.497 332.847C150.012 334.455 194.468 335.648 235.164 336.547C266.46 337.181 329.543 338.751 360.847 339.567L359.503 341.787C321.276 274.491 266.634 175.144 228.754 106.376V106.406ZM228.754 106.104C268.605 176.005 325.013 273.162 363.391 342.663C330.721 341.59 267.774 339.378 235.119 338.132C194.008 336.547 149.302 335.112 108.312 334.289C146.063 259.949 189.327 179.599 228.754 106.134V106.104Z" fill="white"/>
</svg>
