<svg width="900" height="50" viewBox="0 0 900 50" fill="none" xmlns="http://www.w3.org/2000/svg">
<path d="M0 18.7119C0 17.7041 0.111976 16.7896 0.335927 15.9685C0.57854 15.1286 1.02644 14.3355 1.67963 13.589C2.35149 12.8425 3.31261 12.1146 4.563 11.4055C5.30951 10.9949 6.05601 10.603 6.80251 10.2297C7.56768 9.8378 8.20221 9.40856 8.7061 8.94199C9.22865 8.45677 9.48993 7.88756 9.48993 7.23437C9.48993 6.58118 9.20066 5.98397 8.62212 5.44276C8.06224 4.90154 7.24108 4.63094 6.15865 4.63094C5.43081 4.63094 4.77762 4.76157 4.19908 5.02285C3.62054 5.26546 3.12598 5.56407 2.71541 5.91865C2.32349 6.25458 2.00623 6.56251 1.76361 6.84245L0.223951 5.10683C0.42924 4.88288 0.811823 4.56562 1.3717 4.15504C1.93158 3.7258 2.65009 3.33389 3.52723 2.9793C4.40437 2.62471 5.42148 2.44741 6.57856 2.44741C7.73564 2.44741 8.72476 2.6527 9.54591 3.06328C10.3857 3.45519 11.0296 3.99641 11.4775 4.68692C11.9254 5.35878 12.1493 6.11461 12.1493 6.95443C12.1493 7.68227 11.9907 8.3168 11.6734 8.85801C11.3748 9.39923 10.9829 9.87512 10.4977 10.2857C10.0311 10.6963 9.53658 11.0509 9.01403 11.3495C8.51014 11.6294 8.05291 11.872 7.64233 12.0773C6.52258 12.6372 5.61744 13.1317 4.92692 13.561C4.23641 13.9716 3.71386 14.4008 3.35927 14.8487C3.00468 15.2966 2.7434 15.8378 2.57544 16.4723H12.4573V18.7119H0Z" fill="white"/>
<path d="M29.4539 10.5097C29.4539 12.152 29.146 13.617 28.5301 14.9047C27.9143 16.1737 27.0745 17.1722 26.0107 17.9C24.9469 18.6279 23.7339 18.9918 22.3715 18.9918C21.0091 18.9918 19.7961 18.6279 18.7323 17.9C17.6685 17.1722 16.8287 16.1737 16.2128 14.9047C15.597 13.617 15.289 12.152 15.289 10.5097C15.289 8.86734 15.597 7.41166 16.2128 6.14261C16.8287 4.85489 17.6685 3.84711 18.7323 3.11927C19.7961 2.37276 21.0091 1.99951 22.3715 1.99951C23.7339 1.99951 24.9469 2.37276 26.0107 3.11927C27.0745 3.84711 27.9143 4.85489 28.5301 6.14261C29.146 7.41166 29.4539 8.86734 29.4539 10.5097ZM26.9625 10.5097C26.9625 9.27792 26.7665 8.19549 26.3746 7.26236C25.9827 6.32923 25.4415 5.60139 24.751 5.07884C24.0605 4.55629 23.2673 4.29501 22.3715 4.29501C21.457 4.29501 20.6545 4.55629 19.964 5.07884C19.2735 5.60139 18.7323 6.32923 18.3404 7.26236C17.9485 8.19549 17.7525 9.27792 17.7525 10.5097C17.7525 11.7414 17.9485 12.8238 18.3404 13.7569C18.7323 14.6714 19.2735 15.3899 19.964 15.9125C20.6545 16.435 21.457 16.6963 22.3715 16.6963C23.2673 16.6963 24.0605 16.435 24.751 15.9125C25.4415 15.3899 25.9827 14.6714 26.3746 13.7569C26.7665 12.8238 26.9625 11.7414 26.9625 10.5097Z" fill="white"/>
<path d="M328.34 20.8834C326.922 20.8834 325.644 20.5475 324.505 19.8757C323.367 19.2038 322.508 18.308 321.93 17.1882L323.469 15.8445C323.992 16.703 324.682 17.3935 325.541 17.9161C326.418 18.4386 327.361 18.6999 328.368 18.6999C329.227 18.6999 329.992 18.5133 330.664 18.14C331.336 17.7668 331.868 17.2536 332.259 16.6004C332.651 15.9285 332.847 15.1634 332.847 14.3049C332.847 13.4651 332.651 12.7279 332.259 12.0934C331.886 11.4588 331.373 10.9643 330.72 10.6097C330.085 10.2551 329.367 10.0778 328.564 10.0778C327.762 10.0778 327.006 10.2551 326.297 10.6097C325.606 10.9643 325.037 11.4682 324.589 12.1214H322.378L324.617 0.72784H334.275V2.99535H326.437L325.233 9.32196C325.644 8.89272 326.157 8.5568 326.773 8.31418C327.407 8.05291 328.107 7.92227 328.872 7.92227C330.104 7.92227 331.205 8.19288 332.175 8.73409C333.165 9.27531 333.939 10.0218 334.499 10.9736C335.077 11.9254 335.367 13.0265 335.367 14.2769C335.367 15.5833 335.049 16.731 334.415 17.7201C333.799 18.7279 332.959 19.5024 331.896 20.0436C330.832 20.6035 329.647 20.8834 328.34 20.8834Z" fill="white"/>
<path d="M352.019 8.51014C352.019 10.1524 351.711 11.6175 351.095 12.9052C350.479 14.1742 349.639 15.1727 348.576 15.9005C347.512 16.6284 346.299 16.9923 344.937 16.9923C343.574 16.9923 342.361 16.6284 341.297 15.9005C340.234 15.1727 339.394 14.1742 338.778 12.9052C338.162 11.6175 337.854 10.1524 337.854 8.51014C337.854 6.86783 338.162 5.41215 338.778 4.14309C339.394 2.85538 340.234 1.8476 341.297 1.11975C342.361 0.373251 343.574 0 344.937 0C346.299 0 347.512 0.373251 348.576 1.11975C349.639 1.8476 350.479 2.85538 351.095 4.14309C351.711 5.41215 352.019 6.86783 352.019 8.51014ZM349.528 8.51014C349.528 7.27841 349.332 6.19598 348.94 5.26285C348.548 4.32972 348.007 3.60188 347.316 3.07933C346.625 2.55677 345.832 2.2955 344.937 2.2955C344.022 2.2955 343.22 2.55677 342.529 3.07933C341.839 3.60188 341.297 4.32972 340.905 5.26285C340.513 6.19598 340.318 7.27841 340.318 8.51014C340.318 9.74187 340.513 10.8243 340.905 11.7574C341.297 12.6719 341.839 13.3904 342.529 13.913C343.22 14.4355 344.022 14.6968 344.937 14.6968C345.832 14.6968 346.625 14.4355 347.316 13.913C348.007 13.3904 348.548 12.6719 348.94 11.7574C349.332 10.8243 349.528 9.74187 349.528 8.51014Z" fill="white"/>
<path d="M444.211 13.4371C444.211 14.7061 443.894 15.8632 443.259 16.9083C442.643 17.9347 441.794 18.7559 440.712 19.3718C439.648 19.9876 438.444 20.2956 437.1 20.2956C435.682 20.2956 434.432 19.9596 433.349 19.2878C432.267 18.5973 431.418 17.6082 430.802 16.3204C430.205 15.0327 429.906 13.5024 429.906 11.7294C429.906 7.81029 430.587 4.88027 431.95 2.93936C433.312 0.979786 435.113 0 437.352 0C438.64 0 439.807 0.317264 440.852 0.951791C441.915 1.56766 442.746 2.42614 443.343 3.52723L441.831 5.01091C441.421 4.13376 440.814 3.44325 440.012 2.93936C439.209 2.41681 438.314 2.15553 437.324 2.15553C435.794 2.15553 434.572 2.83671 433.657 4.19908C432.743 5.56145 432.267 7.47437 432.229 9.93783C432.64 8.96737 433.303 8.19288 434.217 7.61434C435.15 7.0358 436.195 6.74653 437.352 6.74653C438.64 6.74653 439.797 7.04513 440.824 7.64233C441.869 8.23953 442.69 9.04202 443.287 10.0498C443.903 11.0576 444.211 12.1867 444.211 13.4371ZM437.128 18.168C437.987 18.168 438.771 17.9534 439.48 17.5242C440.208 17.0949 440.786 16.5257 441.216 15.8165C441.645 15.0887 441.859 14.2955 441.859 13.4371C441.859 12.5786 441.645 11.7948 441.216 11.0856C440.786 10.3764 440.208 9.80719 439.48 9.37795C438.771 8.94871 437.987 8.73409 437.128 8.73409C436.27 8.73409 435.477 8.94871 434.749 9.37795C434.04 9.80719 433.471 10.3764 433.041 11.0856C432.612 11.7948 432.397 12.5786 432.397 13.4371C432.397 14.2955 432.612 15.0887 433.041 15.8165C433.471 16.5257 434.04 17.0949 434.749 17.5242C435.477 17.9534 436.27 18.168 437.128 18.168Z" fill="white"/>
<path d="M461.132 11.8134C461.132 13.4557 460.824 14.9207 460.208 16.2085C459.592 17.4775 458.752 18.476 457.688 19.2038C456.625 19.9316 455.412 20.2956 454.049 20.2956C452.687 20.2956 451.474 19.9316 450.41 19.2038C449.346 18.476 448.506 17.4775 447.891 16.2085C447.275 14.9207 446.967 13.4557 446.967 11.8134C446.967 10.1711 447.275 8.71543 447.891 7.44637C448.506 6.15865 449.346 5.15087 450.41 4.42303C451.474 3.67653 452.687 3.30328 454.049 3.30328C455.412 3.30328 456.625 3.67653 457.688 4.42303C458.752 5.15087 459.592 6.15865 460.208 7.44637C460.824 8.71543 461.132 10.1711 461.132 11.8134ZM458.64 11.8134C458.64 10.5817 458.444 9.49926 458.052 8.56613C457.66 7.633 457.119 6.90516 456.429 6.38261C455.738 5.86005 454.945 5.59878 454.049 5.59878C453.135 5.59878 452.332 5.86005 451.642 6.38261C450.951 6.90516 450.41 7.633 450.018 8.56613C449.626 9.49926 449.43 10.5817 449.43 11.8134C449.43 13.0452 449.626 14.1276 450.018 15.0607C450.41 15.9752 450.951 16.6937 451.642 17.2162C452.332 17.7388 453.135 18.0001 454.049 18.0001C454.945 18.0001 455.738 17.7388 456.429 17.2162C457.119 16.6937 457.66 15.9752 458.052 15.0607C458.444 14.1276 458.64 13.0452 458.64 11.8134Z" fill="white"/>
<path d="M550.1 2.65942H539.882V0.391914H553.991L543.997 20.2676H541.198L550.1 2.65942Z" fill="white" fill-opacity="0.333333"/>
<path d="M569.784 8.51014C569.784 10.1524 569.476 11.6175 568.86 12.9052C568.244 14.1742 567.404 15.1727 566.341 15.9005C565.277 16.6284 564.064 16.9923 562.701 16.9923C561.339 16.9923 560.126 16.6284 559.062 15.9005C557.998 15.1727 557.159 14.1742 556.543 12.9052C555.927 11.6175 555.619 10.1524 555.619 8.51014C555.619 6.86783 555.927 5.41215 556.543 4.14309C557.159 2.85538 557.998 1.8476 559.062 1.11975C560.126 0.373251 561.339 0 562.701 0C564.064 0 565.277 0.373251 566.341 1.11975C567.404 1.8476 568.244 2.85538 568.86 4.14309C569.476 5.41215 569.784 6.86783 569.784 8.51014ZM567.292 8.51014C567.292 7.27841 567.097 6.19598 566.705 5.26285C566.313 4.32972 565.771 3.60188 565.081 3.07933C564.39 2.55677 563.597 2.2955 562.701 2.2955C561.787 2.2955 560.985 2.55677 560.294 3.07933C559.603 3.60188 559.062 4.32972 558.67 5.26285C558.278 6.19598 558.082 7.27841 558.082 8.51014C558.082 9.74187 558.278 10.8243 558.67 11.7574C559.062 12.6719 559.603 13.3904 560.294 13.913C560.985 14.4355 561.787 14.6968 562.701 14.6968C563.597 14.6968 564.39 14.4355 565.081 13.913C565.771 13.3904 566.313 12.6719 566.705 11.7574C567.097 10.8243 567.292 9.74187 567.292 8.51014Z" fill="white" fill-opacity="0.333333"/>
<path d="M659.856 14.2489C659.856 15.4246 659.529 16.4511 658.876 17.3282C658.242 18.2054 657.383 18.8865 656.301 19.3718C655.237 19.857 654.07 20.0996 652.801 20.0996C651.476 20.0996 650.291 19.8383 649.246 19.3158C648.201 18.7746 647.371 18.0561 646.755 17.1603C646.157 16.2644 645.859 15.2567 645.859 14.1369C645.859 13.3158 646.046 12.5786 646.419 11.9254C646.792 11.2722 647.259 10.7217 647.818 10.2738C648.397 9.80719 648.985 9.46193 649.582 9.23798C648.761 8.88339 648.042 8.35151 647.427 7.64233C646.829 6.93315 646.531 6.12133 646.531 5.20686C646.531 4.36705 646.717 3.62987 647.091 2.99535C647.464 2.34216 647.958 1.79161 648.574 1.34371C649.19 0.895804 649.871 0.559878 650.618 0.335927C651.364 0.111976 652.111 0 652.857 0C653.604 0 654.35 0.111976 655.097 0.335927C655.843 0.559878 656.525 0.895804 657.14 1.34371C657.775 1.77295 658.279 2.31416 658.652 2.96735C659.025 3.60188 659.212 4.33905 659.212 5.17887C659.212 6.09334 658.904 6.91449 658.288 7.64233C657.672 8.35151 656.944 8.88339 656.105 9.23798C657.112 9.6299 657.99 10.2644 658.736 11.1416C659.483 12 659.856 13.0358 659.856 14.2489ZM649.022 5.29084C649.022 5.94403 649.218 6.50391 649.61 6.97048C650.002 7.43704 650.497 7.79163 651.094 8.03425C651.691 8.2582 652.279 8.37017 652.857 8.37017C653.455 8.37017 654.042 8.24886 654.621 8.00625C655.218 7.76364 655.713 7.40905 656.105 6.94248C656.497 6.47592 656.693 5.90671 656.693 5.23486C656.693 4.60033 656.506 4.05911 656.133 3.61121C655.778 3.16331 655.302 2.81805 654.705 2.57544C654.126 2.33282 653.501 2.21152 652.829 2.21152C652.176 2.21152 651.551 2.34215 650.954 2.60343C650.375 2.84604 649.909 3.20063 649.554 3.6672C649.199 4.1151 649.022 4.65632 649.022 5.29084ZM657.364 14.0809C657.364 13.2784 657.131 12.5972 656.665 12.0374C656.217 11.4588 655.647 11.0203 654.957 10.7217C654.266 10.4231 653.557 10.2738 652.829 10.2738C652.083 10.2738 651.364 10.4324 650.674 10.7497C650.002 11.0669 649.451 11.5148 649.022 12.0934C648.593 12.6532 648.378 13.3251 648.378 14.1089C648.378 14.8927 648.602 15.5646 649.05 16.1245C649.498 16.6844 650.067 17.1229 650.758 17.4402C651.467 17.7388 652.176 17.8881 652.885 17.8881C653.632 17.8881 654.341 17.7295 655.013 17.4122C655.703 17.0949 656.263 16.647 656.693 16.0685C657.14 15.4899 657.364 14.8274 657.364 14.0809Z" fill="white" fill-opacity="0.333333"/>
<path d="M676.894 11.6734C676.894 13.3158 676.587 14.7808 675.971 16.0685C675.355 17.3375 674.515 18.336 673.451 19.0638C672.387 19.7917 671.174 20.1556 669.812 20.1556C668.45 20.1556 667.237 19.7917 666.173 19.0638C665.109 18.336 664.269 17.3375 663.653 16.0685C663.038 14.7808 662.73 13.3158 662.73 11.6734C662.73 10.0311 663.038 8.57546 663.653 7.3064C664.269 6.01869 665.109 5.01091 666.173 4.28306C667.237 3.53656 668.45 3.16331 669.812 3.16331C671.174 3.16331 672.387 3.53656 673.451 4.28306C674.515 5.01091 675.355 6.01869 675.971 7.3064C676.587 8.57546 676.894 10.0311 676.894 11.6734ZM674.403 11.6734C674.403 10.4417 674.207 9.35929 673.815 8.42616C673.423 7.49303 672.882 6.76519 672.192 6.24264C671.501 5.72008 670.708 5.45881 669.812 5.45881C668.898 5.45881 668.095 5.72008 667.405 6.24264C666.714 6.76519 666.173 7.49303 665.781 8.42616C665.389 9.35929 665.193 10.4417 665.193 11.6734C665.193 12.9052 665.389 13.9876 665.781 14.9207C666.173 15.8352 666.714 16.5537 667.405 17.0763C668.095 17.5988 668.898 17.8601 669.812 17.8601C670.708 17.8601 671.501 17.5988 672.192 17.0763C672.882 16.5537 673.423 15.8352 673.815 14.9207C674.207 13.9876 674.403 12.9052 674.403 11.6734Z" fill="white" fill-opacity="0.333333"/>
<path d="M753.835 7.58634C753.835 6.31729 754.143 5.16954 754.759 4.14309C755.394 3.09799 756.252 2.2675 757.334 1.65164C758.417 1.03577 759.621 0.72784 760.946 0.72784C762.383 0.72784 763.633 1.0731 764.697 1.76361C765.779 2.43547 766.619 3.41525 767.216 4.70297C767.832 5.97203 768.14 7.50236 768.14 9.29397C768.14 13.2131 767.459 16.1431 766.097 18.084C764.734 20.0436 762.933 21.0234 760.694 21.0234C759.406 21.0234 758.23 20.7061 757.166 20.0716C756.121 19.4558 755.3 18.5973 754.703 17.4962L756.215 16.0125C756.625 16.871 757.232 17.5615 758.034 18.084C758.855 18.6066 759.751 18.8679 760.722 18.8679C762.252 18.8679 763.474 18.1867 764.389 16.8243C765.322 15.462 765.798 13.549 765.817 11.0856C765.406 12.056 764.734 12.8305 763.801 13.4091C762.887 13.9876 761.851 14.2769 760.694 14.2769C759.425 14.2769 758.268 13.9783 757.222 13.3811C756.177 12.7839 755.347 11.9814 754.731 10.9736C754.134 9.96582 753.835 8.83674 753.835 7.58634ZM760.918 2.85538C760.059 2.85538 759.266 3.07 758.538 3.49923C757.829 3.92847 757.26 4.49768 756.831 5.20686C756.401 5.91604 756.187 6.7092 756.187 7.58634C756.187 8.44482 756.401 9.22865 756.831 9.93783C757.26 10.647 757.829 11.2162 758.538 11.6455C759.266 12.0747 760.059 12.2893 760.918 12.2893C761.795 12.2893 762.588 12.0747 763.297 11.6455C764.006 11.2162 764.576 10.647 765.005 9.93783C765.434 9.22865 765.649 8.44482 765.649 7.58634C765.649 6.72786 765.434 5.94403 765.005 5.23486C764.576 4.50701 763.997 3.92847 763.269 3.49923C762.56 3.07 761.776 2.85538 760.918 2.85538Z" fill="white" fill-opacity="0.333333"/>
<path d="M784.989 8.51014C784.989 10.1524 784.681 11.6175 784.065 12.9052C783.449 14.1742 782.609 15.1727 781.545 15.9005C780.482 16.6284 779.269 16.9923 777.906 16.9923C776.544 16.9923 775.331 16.6284 774.267 15.9005C773.203 15.1727 772.363 14.1742 771.748 12.9052C771.132 11.6175 770.824 10.1524 770.824 8.51014C770.824 6.86783 771.132 5.41215 771.748 4.14309C772.363 2.85538 773.203 1.8476 774.267 1.11975C775.331 0.373251 776.544 0 777.906 0C779.269 0 780.482 0.373251 781.545 1.11975C782.609 1.8476 783.449 2.85538 784.065 4.14309C784.681 5.41215 784.989 6.86783 784.989 8.51014ZM782.497 8.51014C782.497 7.27841 782.301 6.19598 781.909 5.26285C781.517 4.32972 780.976 3.60188 780.286 3.07933C779.595 2.55677 778.802 2.2955 777.906 2.2955C776.992 2.2955 776.189 2.55677 775.499 3.07933C774.808 3.60188 774.267 4.32972 773.875 5.26285C773.483 6.19598 773.287 7.27841 773.287 8.51014C773.287 9.74187 773.483 10.8243 773.875 11.7574C774.267 12.6719 774.808 13.3904 775.499 13.913C776.189 14.4355 776.992 14.6968 777.906 14.6968C778.802 14.6968 779.595 14.4355 780.286 13.913C780.976 13.3904 781.517 12.6719 781.909 11.7574C782.301 10.8243 782.497 9.74187 782.497 8.51014Z" fill="white" fill-opacity="0.333333"/>
<path d="M866.451 16.4723V18.7119H856.401V16.4723H860.376V5.55473C860.171 5.83467 859.797 6.15194 859.256 6.50653C858.715 6.84245 858.127 7.13172 857.493 7.37434C856.858 7.61695 856.298 7.73826 855.813 7.73826V5.38677C856.224 5.38677 856.671 5.2748 857.157 5.05084C857.661 4.80823 858.146 4.52829 858.612 4.21103C859.079 3.89376 859.471 3.59516 859.788 3.31522C860.124 3.03529 860.32 2.83933 860.376 2.72735H862.895V16.4723H866.451Z" fill="white" fill-opacity="0.333333"/>
<path d="M882.805 10.5097C882.805 12.152 882.497 13.617 881.881 14.9047C881.265 16.1737 880.425 17.1722 879.361 17.9C878.298 18.6279 877.084 18.9918 875.722 18.9918C874.36 18.9918 873.147 18.6279 872.083 17.9C871.019 17.1722 870.179 16.1737 869.563 14.9047C868.948 13.617 868.64 12.152 868.64 10.5097C868.64 8.86734 868.948 7.41166 869.563 6.14261C870.179 4.85489 871.019 3.84711 872.083 3.11927C873.147 2.37276 874.36 1.99951 875.722 1.99951C877.084 1.99951 878.298 2.37276 879.361 3.11927C880.425 3.84711 881.265 4.85489 881.881 6.14261C882.497 7.41166 882.805 8.86734 882.805 10.5097ZM880.313 10.5097C880.313 9.27792 880.117 8.19549 879.725 7.26236C879.333 6.32923 878.792 5.60139 878.102 5.07884C877.411 4.55629 876.618 4.29501 875.722 4.29501C874.808 4.29501 874.005 4.55629 873.315 5.07884C872.624 5.60139 872.083 6.32923 871.691 7.26236C871.299 8.19549 871.103 9.27792 871.103 10.5097C871.103 11.7414 871.299 12.8238 871.691 13.7569C872.083 14.6714 872.624 15.3899 873.315 15.9125C874.005 16.435 874.808 16.6963 875.722 16.6963C876.618 16.6963 877.411 16.435 878.102 15.9125C878.792 15.3899 879.333 14.6714 879.725 13.7569C880.117 12.8238 880.313 11.7414 880.313 10.5097Z" fill="white" fill-opacity="0.333333"/>
<path d="M900 10.5097C900 12.152 899.692 13.617 899.076 14.9047C898.46 16.1737 897.621 17.1722 896.557 17.9C895.493 18.6279 894.28 18.9918 892.918 18.9918C891.555 18.9918 890.342 18.6279 889.278 17.9C888.215 17.1722 887.375 16.1737 886.759 14.9047C886.143 13.617 885.835 12.152 885.835 10.5097C885.835 8.86734 886.143 7.41166 886.759 6.14261C887.375 4.85489 888.215 3.84711 889.278 3.11927C890.342 2.37276 891.555 1.99951 892.918 1.99951C894.28 1.99951 895.493 2.37276 896.557 3.11927C897.621 3.84711 898.46 4.85489 899.076 6.14261C899.692 7.41166 900 8.86734 900 10.5097ZM897.509 10.5097C897.509 9.27792 897.313 8.19549 896.921 7.26236C896.529 6.32923 895.988 5.60139 895.297 5.07884C894.607 4.55629 893.813 4.29501 892.918 4.29501C892.003 4.29501 891.201 4.55629 890.51 5.07884C889.82 5.60139 889.278 6.32923 888.886 7.26236C888.495 8.19549 888.299 9.27792 888.299 10.5097C888.299 11.7414 888.495 12.8238 888.886 13.7569C889.278 14.6714 889.82 15.3899 890.51 15.9125C891.201 16.435 892.003 16.6963 892.918 16.6963C893.813 16.6963 894.607 16.435 895.297 15.9125C895.988 15.3899 896.529 14.6714 896.921 13.7569C897.313 12.8238 897.509 11.7414 897.509 10.5097Z" fill="white" fill-opacity="0.333333"/>
<path d="M117.018 10.1058C118.213 10.3111 119.155 10.8616 119.846 11.7574C120.555 12.6532 120.91 13.7637 120.91 15.0887C120.91 16.2271 120.63 17.2256 120.07 18.084C119.529 18.9612 118.754 19.633 117.746 20.0996C116.739 20.5848 115.563 20.8274 114.219 20.8274C112.801 20.8274 111.55 20.5568 110.468 20.0156C109.404 19.4931 108.574 18.7466 107.976 17.7761L109.628 16.1245C110.057 16.871 110.636 17.4682 111.364 17.9161C112.11 18.364 113.062 18.5879 114.219 18.5879C115.507 18.5879 116.515 18.2893 117.242 17.6921C117.989 17.1136 118.362 16.2458 118.362 15.0887C118.362 13.913 117.961 12.9798 117.158 12.2893C116.375 11.5801 115.227 11.2255 113.715 11.2255H112.987V9.154H113.771C115.115 9.154 116.141 8.8274 116.851 8.17421C117.578 7.52102 117.942 6.7092 117.942 5.73875C117.942 4.74963 117.597 4.01246 116.906 3.52723C116.216 3.042 115.348 2.79939 114.303 2.79939C113.277 2.79939 112.371 3.02334 111.588 3.47124C110.822 3.90048 110.225 4.50701 109.796 5.29084L108.284 3.72319C108.77 2.79006 109.581 2.03422 110.72 1.45568C111.877 0.877141 113.155 0.587871 114.555 0.587871C115.731 0.587871 116.767 0.793159 117.662 1.20374C118.577 1.61431 119.286 2.19285 119.79 2.93936C120.294 3.68586 120.546 4.563 120.546 5.57078C120.546 6.67187 120.228 7.66099 119.594 8.53813C118.978 9.39661 118.12 9.91917 117.018 10.1058Z" fill="white"/>
<path d="M137.791 8.51014C137.791 10.1524 137.483 11.6175 136.867 12.9052C136.251 14.1742 135.412 15.1727 134.348 15.9005C133.284 16.6284 132.071 16.9923 130.709 16.9923C129.346 16.9923 128.133 16.6284 127.069 15.9005C126.006 15.1727 125.166 14.1742 124.55 12.9052C123.934 11.6175 123.626 10.1524 123.626 8.51014C123.626 6.86783 123.934 5.41215 124.55 4.14309C125.166 2.85538 126.006 1.8476 127.069 1.11975C128.133 0.373251 129.346 0 130.709 0C132.071 0 133.284 0.373251 134.348 1.11975C135.412 1.8476 136.251 2.85538 136.867 4.14309C137.483 5.41215 137.791 6.86783 137.791 8.51014ZM135.3 8.51014C135.3 7.27841 135.104 6.19598 134.712 5.26285C134.32 4.32972 133.779 3.60188 133.088 3.07933C132.398 2.55677 131.604 2.2955 130.709 2.2955C129.794 2.2955 128.992 2.55677 128.301 3.07933C127.611 3.60188 127.069 4.32972 126.677 5.26285C126.286 6.19598 126.09 7.27841 126.09 8.51014C126.09 9.74187 126.286 10.8243 126.677 11.7574C127.069 12.6719 127.611 13.3904 128.301 13.913C128.992 14.4355 129.794 14.6968 130.709 14.6968C131.604 14.6968 132.398 14.4355 133.088 13.913C133.779 13.3904 134.32 12.6719 134.712 11.7574C135.104 10.8243 135.3 9.74187 135.3 8.51014Z" fill="white"/>
<path d="M222.939 20.2676V15.5366H213.953V13.3531L223.723 0.72784H225.403V13.2971H227.866V15.5366H225.403V20.2676H222.939ZM216.501 13.2971H223.191V4.53501L216.501 13.2971Z" fill="white"/>
<path d="M244.568 8.51014C244.568 10.1524 244.26 11.6175 243.644 12.9052C243.028 14.1742 242.188 15.1727 241.125 15.9005C240.061 16.6284 238.848 16.9923 237.485 16.9923C236.123 16.9923 234.91 16.6284 233.846 15.9005C232.782 15.1727 231.943 14.1742 231.327 12.9052C230.711 11.6175 230.403 10.1524 230.403 8.51014C230.403 6.86783 230.711 5.41215 231.327 4.14309C231.943 2.85538 232.782 1.8476 233.846 1.11975C234.91 0.373251 236.123 0 237.485 0C238.848 0 240.061 0.373251 241.125 1.11975C242.188 1.8476 243.028 2.85538 243.644 4.14309C244.26 5.41215 244.568 6.86783 244.568 8.51014ZM242.076 8.51014C242.076 7.27841 241.88 6.19598 241.489 5.26285C241.097 4.32972 240.555 3.60188 239.865 3.07933C239.174 2.55677 238.381 2.2955 237.485 2.2955C236.571 2.2955 235.768 2.55677 235.078 3.07933C234.387 3.60188 233.846 4.32972 233.454 5.26285C233.062 6.19598 232.866 7.27841 232.866 8.51014C232.866 9.74187 233.062 10.8243 233.454 11.7574C233.846 12.6719 234.387 13.3904 235.078 13.913C235.768 14.4355 236.571 14.6968 237.485 14.6968C238.381 14.6968 239.174 14.4355 239.865 13.913C240.555 13.3904 241.097 12.6719 241.489 11.7574C241.88 10.8243 242.076 9.74187 242.076 8.51014Z" fill="white"/>
<path d="M11.9977 43.0181L481.895 43.0181" stroke="white" stroke-width="2"/>
<circle cx="13.997" cy="43.0182" r="5.99869" fill="white"/>
<circle cx="121.974" cy="43.0182" r="5.99869" fill="white"/>
<circle cx="229.95" cy="43.0182" r="5.99869" fill="white"/>
<circle cx="337.926" cy="43.0182" r="5.99869" fill="white"/>
<circle cx="445.903" cy="43.0182" r="5.99869" fill="white"/>
<path fill-rule="evenodd" clip-rule="evenodd" d="M451.56 45.018L548.222 45.018C549.045 47.3478 551.267 49.0171 553.879 49.0171C556.491 49.0171 558.713 47.3478 559.537 45.018L656.198 45.018C657.022 47.3478 659.244 49.0171 661.856 49.0171C664.468 49.0171 666.69 47.3478 667.513 45.018L764.175 45.018C764.998 47.3478 767.22 49.0171 769.832 49.0171C772.444 49.0171 774.666 47.3478 775.489 45.018L872.151 45.0179C872.975 47.3478 875.197 49.0171 877.809 49.0171C881.121 49.0171 883.807 46.3314 883.807 43.0184C883.807 39.7054 881.121 37.0197 877.809 37.0197C874.496 37.0197 871.81 39.7052 871.81 43.0179L775.831 43.018C775.831 39.7052 773.145 37.0197 769.832 37.0197C766.519 37.0197 763.834 39.7052 763.833 43.018L667.854 43.018C667.854 39.7052 665.169 37.0197 661.856 37.0197C658.543 37.0197 655.857 39.7052 655.857 43.018L559.878 43.018C559.878 39.7052 557.192 37.0197 553.879 37.0197C550.566 37.0197 547.881 39.7052 547.881 43.018L451.902 43.018C451.901 39.7052 449.216 37.0197 445.903 37.0197C442.59 37.0197 439.904 39.7052 439.904 43.018L339.926 43.018L339.926 45.018L440.246 45.018C441.069 47.3478 443.291 49.0171 445.903 49.0171C448.515 49.0171 450.737 47.3478 451.56 45.018Z" fill="white" fill-opacity="0.333333"/>
</svg>
