<svg width="484" height="441" viewBox="0 0 484 441" fill="none" xmlns="http://www.w3.org/2000/svg">
<path d="M235.357 7.9216C235.242 7.7872 235.088 7.6576 234.896 7.5328C234.704 7.408 234.488 7.2976 234.248 7.2016C234.008 7.096 233.744 7.0144 233.456 6.9568C233.178 6.8896 232.885 6.856 232.578 6.856C231.781 6.856 231.195 7.0048 230.821 7.3024C230.456 7.6 230.274 8.008 230.274 8.5264C230.274 8.8048 230.327 9.0352 230.432 9.2176C230.538 9.4 230.701 9.5584 230.922 9.6928C231.152 9.8176 231.435 9.928 231.771 10.024C232.107 10.12 232.506 10.2208 232.967 10.3264C233.495 10.4416 233.97 10.576 234.392 10.7296C234.824 10.8736 235.189 11.056 235.487 11.2768C235.794 11.4976 236.024 11.7664 236.178 12.0832C236.341 12.4 236.423 12.7888 236.423 13.2496C236.423 13.7392 236.327 14.1664 236.135 14.5312C235.943 14.8864 235.679 15.184 235.343 15.424C235.016 15.6544 234.627 15.8272 234.176 15.9424C233.725 16.048 233.235 16.1008 232.707 16.1008C231.92 16.1008 231.171 15.9808 230.461 15.7408C229.76 15.4912 229.122 15.1312 228.546 14.6608L229.165 13.5664C229.319 13.7296 229.515 13.8928 229.755 14.056C230.005 14.2192 230.283 14.368 230.591 14.5024C230.907 14.6272 231.243 14.7328 231.599 14.8192C231.963 14.896 232.343 14.9344 232.736 14.9344C233.466 14.9344 234.032 14.8048 234.435 14.5456C234.839 14.2864 235.04 13.8976 235.04 13.3792C235.04 13.0912 234.973 12.8512 234.839 12.6592C234.714 12.4576 234.527 12.2848 234.277 12.1408C234.027 11.9968 233.715 11.872 233.341 11.7664C232.976 11.6512 232.559 11.536 232.088 11.4208C231.57 11.296 231.114 11.1616 230.72 11.0176C230.327 10.8736 229.995 10.7008 229.727 10.4992C229.467 10.2976 229.271 10.0528 229.136 9.7648C229.002 9.4768 228.935 9.1312 228.935 8.728C228.935 8.2384 229.026 7.8064 229.208 7.432C229.391 7.0576 229.645 6.7408 229.971 6.4816C230.298 6.2224 230.687 6.0304 231.138 5.9056C231.589 5.7712 232.079 5.704 232.607 5.704C233.298 5.704 233.922 5.8096 234.479 6.0208C235.035 6.232 235.53 6.5152 235.962 6.8704L235.357 7.9216ZM238.377 16V5.776H242.64C243.091 5.776 243.504 5.872 243.878 6.064C244.262 6.2464 244.588 6.496 244.857 6.8128C245.136 7.12 245.352 7.4704 245.505 7.864C245.659 8.248 245.736 8.6416 245.736 9.0448C245.736 9.4672 245.664 9.8752 245.52 10.2688C245.376 10.6624 245.169 11.0128 244.9 11.32C244.641 11.6272 244.324 11.872 243.95 12.0544C243.585 12.2368 243.177 12.328 242.726 12.328H239.673V16H238.377ZM239.673 11.176H242.654C242.923 11.176 243.163 11.1232 243.374 11.0176C243.595 10.9024 243.782 10.7488 243.936 10.5568C244.089 10.3552 244.209 10.1248 244.296 9.8656C244.382 9.6064 244.425 9.3328 244.425 9.0448C244.425 8.7472 244.372 8.4688 244.267 8.2096C244.171 7.9504 244.036 7.7248 243.864 7.5328C243.7 7.3408 243.504 7.192 243.273 7.0864C243.052 6.9808 242.817 6.928 242.568 6.928H239.673V11.176ZM251.746 16.072C251.026 16.072 250.369 15.928 249.773 15.64C249.188 15.3424 248.684 14.9536 248.261 14.4736C247.839 13.984 247.513 13.4272 247.282 12.8032C247.052 12.1792 246.937 11.5408 246.937 10.888C246.937 10.2064 247.057 9.5536 247.297 8.9296C247.546 8.3056 247.887 7.7536 248.319 7.2736C248.751 6.7936 249.26 6.4144 249.845 6.136C250.441 5.848 251.084 5.704 251.775 5.704C252.495 5.704 253.148 5.8576 253.733 6.1648C254.319 6.4624 254.823 6.856 255.245 7.3456C255.668 7.8352 255.994 8.392 256.225 9.016C256.455 9.6304 256.57 10.2592 256.57 10.9024C256.57 11.584 256.445 12.2368 256.196 12.8608C255.956 13.4848 255.62 14.0368 255.188 14.5168C254.765 14.9872 254.257 15.3664 253.661 15.6544C253.076 15.9328 252.437 16.072 251.746 16.072ZM248.247 10.888C248.247 11.4064 248.329 11.9104 248.492 12.4C248.665 12.88 248.905 13.3072 249.212 13.6816C249.519 14.056 249.889 14.3536 250.321 14.5744C250.753 14.7952 251.233 14.9056 251.761 14.9056C252.308 14.9056 252.797 14.7904 253.229 14.56C253.661 14.32 254.026 14.0128 254.324 13.6384C254.631 13.2544 254.861 12.8224 255.015 12.3424C255.178 11.8624 255.26 11.3776 255.26 10.888C255.26 10.3696 255.173 9.8704 255.001 9.3904C254.837 8.9008 254.597 8.4736 254.281 8.1088C253.973 7.7344 253.604 7.4368 253.172 7.216C252.749 6.9952 252.279 6.8848 251.761 6.8848C251.213 6.8848 250.724 7 250.292 7.2304C249.86 7.4608 249.49 7.7632 249.183 8.1376C248.885 8.512 248.655 8.9392 248.492 9.4192C248.329 9.8992 248.247 10.3888 248.247 10.888ZM258.621 16V5.776H262.998C263.45 5.776 263.862 5.872 264.237 6.064C264.621 6.2464 264.947 6.496 265.216 6.8128C265.494 7.12 265.71 7.4704 265.864 7.864C266.018 8.248 266.094 8.6416 266.094 9.0448C266.094 9.4 266.042 9.7456 265.936 10.0816C265.84 10.408 265.696 10.7056 265.504 10.9744C265.322 11.2432 265.096 11.4736 264.827 11.6656C264.568 11.8576 264.275 11.9968 263.949 12.0832L266.426 16H264.957L262.624 12.328H259.917V16H258.621ZM259.917 11.176H263.013C263.282 11.176 263.522 11.1184 263.733 11.0032C263.954 10.888 264.141 10.7344 264.294 10.5424C264.448 10.3408 264.568 10.1104 264.654 9.8512C264.741 9.592 264.784 9.3232 264.784 9.0448C264.784 8.7568 264.731 8.488 264.626 8.2384C264.53 7.9792 264.395 7.7536 264.222 7.5616C264.059 7.36 263.862 7.2064 263.632 7.1008C263.411 6.9856 263.176 6.928 262.926 6.928H259.917V11.176ZM275.623 6.928H272.095V16H270.799V6.928H267.271V5.776H275.623V6.928Z" fill="#AAAAAA"/>
<path d="M28.4335 404.922C28.3183 404.787 28.1647 404.658 27.9727 404.533C27.7807 404.408 27.5647 404.298 27.3247 404.202C27.0847 404.096 26.8207 404.014 26.5327 403.957C26.2543 403.89 25.9615 403.856 25.6543 403.856C24.8575 403.856 24.2719 404.005 23.8975 404.302C23.5327 404.6 23.3503 405.008 23.3503 405.526C23.3503 405.805 23.4031 406.035 23.5087 406.218C23.6143 406.4 23.7775 406.558 23.9983 406.693C24.2287 406.818 24.5119 406.928 24.8479 407.024C25.1839 407.12 25.5823 407.221 26.0431 407.326C26.5711 407.442 27.0463 407.576 27.4687 407.73C27.9007 407.874 28.2655 408.056 28.5631 408.277C28.8703 408.498 29.1007 408.766 29.2543 409.083C29.4175 409.4 29.4991 409.789 29.4991 410.25C29.4991 410.739 29.4031 411.166 29.2111 411.531C29.0191 411.886 28.7551 412.184 28.4191 412.424C28.0927 412.654 27.7039 412.827 27.2527 412.942C26.8015 413.048 26.3119 413.101 25.7839 413.101C24.9967 413.101 24.2479 412.981 23.5375 412.741C22.8367 412.491 22.1983 412.131 21.6223 411.661L22.2415 410.566C22.3951 410.73 22.5919 410.893 22.8319 411.056C23.0815 411.219 23.3599 411.368 23.6671 411.502C23.9839 411.627 24.3199 411.733 24.6751 411.819C25.0399 411.896 25.4191 411.934 25.8127 411.934C26.5423 411.934 27.1087 411.805 27.5119 411.546C27.9151 411.286 28.1167 410.898 28.1167 410.379C28.1167 410.091 28.0495 409.851 27.9151 409.659C27.7903 409.458 27.6031 409.285 27.3535 409.141C27.1039 408.997 26.7919 408.872 26.4175 408.766C26.0527 408.651 25.6351 408.536 25.1647 408.421C24.6463 408.296 24.1903 408.162 23.7967 408.018C23.4031 407.874 23.0719 407.701 22.8031 407.499C22.5439 407.298 22.3471 407.053 22.2127 406.765C22.0783 406.477 22.0111 406.131 22.0111 405.728C22.0111 405.238 22.1023 404.806 22.2847 404.432C22.4671 404.058 22.7215 403.741 23.0479 403.482C23.3743 403.222 23.7631 403.03 24.2143 402.906C24.6655 402.771 25.1551 402.704 25.6831 402.704C26.3743 402.704 26.9983 402.81 27.5551 403.021C28.1119 403.232 28.6063 403.515 29.0383 403.87L28.4335 404.922ZM35.6009 413.072C34.8809 413.072 34.2233 412.928 33.6281 412.64C33.0425 412.342 32.5385 411.954 32.1161 411.474C31.6937 410.984 31.3673 410.427 31.1369 409.803C30.9065 409.179 30.7913 408.541 30.7913 407.888C30.7913 407.206 30.9113 406.554 31.1513 405.93C31.4009 405.306 31.7417 404.754 32.1737 404.274C32.6057 403.794 33.1145 403.414 33.7001 403.136C34.2953 402.848 34.9385 402.704 35.6297 402.704C36.3497 402.704 37.0025 402.858 37.5881 403.165C38.1737 403.462 38.6777 403.856 39.1001 404.346C39.5225 404.835 39.8489 405.392 40.0793 406.016C40.3097 406.63 40.4249 407.259 40.4249 407.902C40.4249 408.584 40.3001 409.237 40.0505 409.861C39.8105 410.485 39.4745 411.037 39.0425 411.517C38.6201 411.987 38.1113 412.366 37.5161 412.654C36.9305 412.933 36.2921 413.072 35.6009 413.072ZM32.1017 407.888C32.1017 408.406 32.1833 408.91 32.3465 409.4C32.5193 409.88 32.7593 410.307 33.0665 410.682C33.3737 411.056 33.7433 411.354 34.1753 411.574C34.6073 411.795 35.0873 411.906 35.6153 411.906C36.1625 411.906 36.6521 411.79 37.0841 411.56C37.5161 411.32 37.8809 411.013 38.1785 410.638C38.4857 410.254 38.7161 409.822 38.8697 409.342C39.0329 408.862 39.1145 408.378 39.1145 407.888C39.1145 407.37 39.0281 406.87 38.8553 406.39C38.6921 405.901 38.4521 405.474 38.1353 405.109C37.8281 404.734 37.4585 404.437 37.0265 404.216C36.6041 403.995 36.1337 403.885 35.6153 403.885C35.0681 403.885 34.5785 404 34.1465 404.23C33.7145 404.461 33.3449 404.763 33.0377 405.138C32.7401 405.512 32.5097 405.939 32.3465 406.419C32.1833 406.899 32.1017 407.389 32.1017 407.888ZM42.4756 413V402.776H46.8532C47.3044 402.776 47.7172 402.872 48.0916 403.064C48.4756 403.246 48.802 403.496 49.0708 403.813C49.3492 404.12 49.5652 404.47 49.7188 404.864C49.8724 405.248 49.9492 405.642 49.9492 406.045C49.9492 406.4 49.8964 406.746 49.7908 407.082C49.6948 407.408 49.5508 407.706 49.3588 407.974C49.1764 408.243 48.9508 408.474 48.682 408.666C48.4228 408.858 48.13 408.997 47.8036 409.083L50.2804 413H48.8116L46.4788 409.328H43.7716V413H42.4756ZM43.7716 408.176H46.8676C47.1364 408.176 47.3764 408.118 47.5876 408.003C47.8084 407.888 47.9956 407.734 48.1492 407.542C48.3028 407.341 48.4228 407.11 48.5092 406.851C48.5956 406.592 48.6388 406.323 48.6388 406.045C48.6388 405.757 48.586 405.488 48.4804 405.238C48.3844 404.979 48.25 404.754 48.0772 404.562C47.914 404.36 47.7172 404.206 47.4868 404.101C47.266 403.986 47.0308 403.928 46.7812 403.928H43.7716V408.176ZM52.1896 413V402.776H53.4856V413H52.1896ZM63.553 403.928H60.025V413H58.729V403.928H55.201V402.776H63.553V403.928ZM72.2164 411.848V413H65.2756V402.776H72.0868V403.928H66.5716V407.24H71.3668V408.32H66.5716V411.848H72.2164ZM80.2491 404.922C80.1339 404.787 79.9803 404.658 79.7883 404.533C79.5963 404.408 79.3803 404.298 79.1403 404.202C78.9003 404.096 78.6363 404.014 78.3483 403.957C78.0699 403.89 77.7771 403.856 77.4699 403.856C76.6731 403.856 76.0875 404.005 75.7131 404.302C75.3483 404.6 75.1659 405.008 75.1659 405.526C75.1659 405.805 75.2187 406.035 75.3243 406.218C75.4299 406.4 75.5931 406.558 75.8139 406.693C76.0443 406.818 76.3275 406.928 76.6635 407.024C76.9995 407.12 77.3979 407.221 77.8587 407.326C78.3867 407.442 78.8619 407.576 79.2843 407.73C79.7163 407.874 80.0811 408.056 80.3787 408.277C80.6859 408.498 80.9163 408.766 81.0699 409.083C81.2331 409.4 81.3147 409.789 81.3147 410.25C81.3147 410.739 81.2187 411.166 81.0267 411.531C80.8347 411.886 80.5707 412.184 80.2347 412.424C79.9083 412.654 79.5195 412.827 79.0683 412.942C78.6171 413.048 78.1275 413.101 77.5995 413.101C76.8123 413.101 76.0635 412.981 75.3531 412.741C74.6523 412.491 74.0139 412.131 73.4379 411.661L74.0571 410.566C74.2107 410.73 74.4075 410.893 74.6475 411.056C74.8971 411.219 75.1755 411.368 75.4827 411.502C75.7995 411.627 76.1355 411.733 76.4907 411.819C76.8555 411.896 77.2347 411.934 77.6283 411.934C78.3579 411.934 78.9243 411.805 79.3275 411.546C79.7307 411.286 79.9323 410.898 79.9323 410.379C79.9323 410.091 79.8651 409.851 79.7307 409.659C79.6059 409.458 79.4187 409.285 79.1691 409.141C78.9195 408.997 78.6075 408.872 78.2331 408.766C77.8683 408.651 77.4507 408.536 76.9803 408.421C76.4619 408.296 76.0059 408.162 75.6123 408.018C75.2187 407.874 74.8875 407.701 74.6187 407.499C74.3595 407.298 74.1627 407.053 74.0283 406.765C73.8939 406.477 73.8267 406.131 73.8267 405.728C73.8267 405.238 73.9179 404.806 74.1003 404.432C74.2827 404.058 74.5371 403.741 74.8635 403.482C75.1899 403.222 75.5787 403.03 76.0299 402.906C76.4811 402.771 76.9707 402.704 77.4987 402.704C78.1899 402.704 78.8139 402.81 79.3707 403.021C79.9275 403.232 80.4219 403.515 80.8539 403.87L80.2491 404.922ZM0.945977 428.816C0.945977 428.202 1.05158 427.592 1.26278 426.987C1.48358 426.373 1.80038 425.826 2.21318 425.346C2.63558 424.856 3.14918 424.462 3.75398 424.165C4.35878 423.867 5.04518 423.718 5.81318 423.718C6.72518 423.718 7.50758 423.925 8.16038 424.338C8.81318 424.75 9.29798 425.288 9.61478 425.95L8.59238 426.613C8.43878 426.286 8.25158 426.013 8.03078 425.792C7.81958 425.571 7.58438 425.394 7.32518 425.259C7.07558 425.125 6.81638 425.029 6.54758 424.971C6.27878 424.914 6.01478 424.885 5.75558 424.885C5.18918 424.885 4.68518 425.005 4.24358 425.245C3.81158 425.475 3.44678 425.782 3.14918 426.166C2.85158 426.541 2.62598 426.968 2.47238 427.448C2.32838 427.918 2.25638 428.394 2.25638 428.874C2.25638 429.411 2.34278 429.925 2.51558 430.414C2.69798 430.894 2.94758 431.322 3.26438 431.696C3.58118 432.07 3.95558 432.368 4.38758 432.589C4.81958 432.81 5.28998 432.92 5.79878 432.92C6.06758 432.92 6.34118 432.886 6.61958 432.819C6.90758 432.752 7.18118 432.646 7.44038 432.502C7.69958 432.349 7.93958 432.162 8.16038 431.941C8.39078 431.71 8.57798 431.437 8.72198 431.12L9.80198 431.71C9.63878 432.094 9.40838 432.435 9.11078 432.733C8.82278 433.021 8.49158 433.266 8.11718 433.467C7.75238 433.669 7.36358 433.822 6.95078 433.928C6.53798 434.034 6.13478 434.086 5.74118 434.086C5.04038 434.086 4.39718 433.933 3.81158 433.626C3.22598 433.318 2.71718 432.92 2.28518 432.43C1.86278 431.931 1.53158 431.37 1.29158 430.746C1.06118 430.112 0.945977 429.469 0.945977 428.816ZM15.8788 432.906C16.474 432.906 16.9684 432.79 17.362 432.56C17.7556 432.33 18.0676 432.032 18.298 431.667C18.538 431.293 18.706 430.87 18.802 430.4C18.898 429.92 18.946 429.435 18.946 428.946V423.776H20.242V428.946C20.242 429.637 20.1604 430.294 19.9972 430.918C19.8436 431.533 19.594 432.075 19.2484 432.546C18.9028 433.016 18.4516 433.39 17.8948 433.669C17.3476 433.938 16.6804 434.072 15.8932 434.072C15.0772 434.072 14.3908 433.928 13.834 433.64C13.2772 433.352 12.826 432.973 12.4804 432.502C12.1444 432.022 11.8996 431.475 11.746 430.861C11.602 430.237 11.53 429.598 11.53 428.946V423.776H12.826V428.946C12.826 429.454 12.874 429.949 12.97 430.429C13.0756 430.899 13.2436 431.317 13.474 431.682C13.714 432.046 14.026 432.344 14.41 432.574C14.8036 432.795 15.2932 432.906 15.8788 432.906ZM22.7943 434V423.776H24.0903V432.848H29.7927V434H22.7943ZM37.2515 424.928H33.7235V434H32.4275V424.928H28.8995V423.776H37.2515V424.928ZM43.1788 432.906C43.774 432.906 44.2684 432.79 44.662 432.56C45.0556 432.33 45.3676 432.032 45.598 431.667C45.838 431.293 46.006 430.87 46.102 430.4C46.198 429.92 46.246 429.435 46.246 428.946V423.776H47.542V428.946C47.542 429.637 47.4604 430.294 47.2972 430.918C47.1436 431.533 46.894 432.075 46.5484 432.546C46.2028 433.016 45.7516 433.39 45.1948 433.669C44.6476 433.938 43.9804 434.072 43.1932 434.072C42.3772 434.072 41.6908 433.928 41.134 433.64C40.5772 433.352 40.126 432.973 39.7804 432.502C39.4444 432.022 39.1996 431.475 39.046 430.861C38.902 430.237 38.83 429.598 38.83 428.946V423.776H40.126V428.946C40.126 429.454 40.174 429.949 40.27 430.429C40.3756 430.899 40.5436 431.317 40.774 431.682C41.014 432.046 41.326 432.344 41.71 432.574C42.1036 432.795 42.5932 432.906 43.1788 432.906ZM50.0943 434V423.776H54.4719C54.9231 423.776 55.3359 423.872 55.7103 424.064C56.0943 424.246 56.4207 424.496 56.6895 424.813C56.9679 425.12 57.1839 425.47 57.3375 425.864C57.4911 426.248 57.5679 426.642 57.5679 427.045C57.5679 427.4 57.5151 427.746 57.4095 428.082C57.3135 428.408 57.1695 428.706 56.9775 428.974C56.7951 429.243 56.5695 429.474 56.3007 429.666C56.0415 429.858 55.7487 429.997 55.4223 430.083L57.8991 434H56.4303L54.0975 430.328H51.3903V434H50.0943ZM51.3903 429.176H54.4863C54.7551 429.176 54.9951 429.118 55.2063 429.003C55.4271 428.888 55.6143 428.734 55.7679 428.542C55.9215 428.341 56.0415 428.11 56.1279 427.851C56.2143 427.592 56.2575 427.323 56.2575 427.045C56.2575 426.757 56.2047 426.488 56.0991 426.238C56.0031 425.979 55.8687 425.754 55.6959 425.562C55.5327 425.36 55.3359 425.206 55.1055 425.101C54.8847 424.986 54.6495 424.928 54.3999 424.928H51.3903V429.176ZM66.7492 432.848V434H59.8084V423.776H66.6196V424.928H61.1044V428.24H65.8996V429.32H61.1044V432.848H66.7492ZM68.7771 434V423.776H70.0731V432.848H75.7755V434H68.7771ZM77.4365 434V423.776H78.7325V432.848H84.4349V434H77.4365ZM93.0367 432.848V434H86.0959V423.776H92.9071V424.928H87.3919V428.24H92.1871V429.32H87.3919V432.848H93.0367ZM101.069 425.922C100.954 425.787 100.801 425.658 100.609 425.533C100.417 425.408 100.201 425.298 99.9606 425.202C99.7206 425.096 99.4566 425.014 99.1686 424.957C98.8902 424.89 98.5974 424.856 98.2902 424.856C97.4934 424.856 96.9078 425.005 96.5334 425.302C96.1686 425.6 95.9862 426.008 95.9862 426.526C95.9862 426.805 96.039 427.035 96.1446 427.218C96.2502 427.4 96.4134 427.558 96.6342 427.693C96.8646 427.818 97.1478 427.928 97.4838 428.024C97.8198 428.12 98.2182 428.221 98.679 428.326C99.207 428.442 99.6822 428.576 100.105 428.73C100.537 428.874 100.901 429.056 101.199 429.277C101.506 429.498 101.737 429.766 101.89 430.083C102.053 430.4 102.135 430.789 102.135 431.25C102.135 431.739 102.039 432.166 101.847 432.531C101.655 432.886 101.391 433.184 101.055 433.424C100.729 433.654 100.34 433.827 99.8886 433.942C99.4374 434.048 98.9478 434.101 98.4198 434.101C97.6326 434.101 96.8838 433.981 96.1734 433.741C95.4726 433.491 94.8342 433.131 94.2582 432.661L94.8774 431.566C95.031 431.73 95.2278 431.893 95.4678 432.056C95.7174 432.219 95.9958 432.368 96.303 432.502C96.6198 432.627 96.9558 432.733 97.311 432.819C97.6758 432.896 98.055 432.934 98.4486 432.934C99.1782 432.934 99.7446 432.805 100.148 432.546C100.551 432.286 100.753 431.898 100.753 431.379C100.753 431.091 100.685 430.851 100.551 430.659C100.426 430.458 100.239 430.285 99.9894 430.141C99.7398 429.997 99.4278 429.872 99.0534 429.766C98.6886 429.651 98.271 429.536 97.8006 429.421C97.2822 429.296 96.8262 429.162 96.4326 429.018C96.039 428.874 95.7078 428.701 95.439 428.499C95.1798 428.298 94.983 428.053 94.8486 427.765C94.7142 427.477 94.647 427.131 94.647 426.728C94.647 426.238 94.7382 425.806 94.9206 425.432C95.103 425.058 95.3574 424.741 95.6838 424.482C96.0102 424.222 96.399 424.03 96.8502 423.906C97.3014 423.771 97.791 423.704 98.319 423.704C99.0102 423.704 99.6342 423.81 100.191 424.021C100.748 424.232 101.242 424.515 101.674 424.87L101.069 425.922Z" fill="#AAAAAA"/>
<path d="M436.148 403.928H432.62V413H431.324V403.928H427.796V402.776H436.148V403.928ZM444.812 411.848V413H437.871V402.776H444.682V403.928H439.167V407.24H443.962V408.32H439.167V411.848H444.812ZM455.681 413V405.094L452.283 411.157H451.548L448.136 405.094V413H446.84V402.776H448.208L451.908 409.414L455.624 402.776H456.977V413H455.681ZM459.676 413V402.776H463.938C464.389 402.776 464.802 402.872 465.176 403.064C465.56 403.246 465.887 403.496 466.156 403.813C466.434 404.12 466.65 404.47 466.804 404.864C466.957 405.248 467.034 405.642 467.034 406.045C467.034 406.467 466.962 406.875 466.818 407.269C466.674 407.662 466.468 408.013 466.199 408.32C465.94 408.627 465.623 408.872 465.248 409.054C464.884 409.237 464.476 409.328 464.024 409.328H460.972V413H459.676ZM460.972 408.176H463.952C464.221 408.176 464.461 408.123 464.672 408.018C464.893 407.902 465.08 407.749 465.234 407.557C465.388 407.355 465.508 407.125 465.594 406.866C465.68 406.606 465.724 406.333 465.724 406.045C465.724 405.747 465.671 405.469 465.565 405.21C465.469 404.95 465.335 404.725 465.162 404.533C464.999 404.341 464.802 404.192 464.572 404.086C464.351 403.981 464.116 403.928 463.866 403.928H460.972V408.176ZM474.902 404.922C474.787 404.787 474.633 404.658 474.441 404.533C474.249 404.408 474.033 404.298 473.793 404.202C473.553 404.096 473.289 404.014 473.001 403.957C472.723 403.89 472.43 403.856 472.123 403.856C471.326 403.856 470.741 404.005 470.366 404.302C470.001 404.6 469.819 405.008 469.819 405.526C469.819 405.805 469.872 406.035 469.977 406.218C470.083 406.4 470.246 406.558 470.467 406.693C470.697 406.818 470.981 406.928 471.317 407.024C471.653 407.12 472.051 407.221 472.512 407.326C473.04 407.442 473.515 407.576 473.937 407.73C474.369 407.874 474.734 408.056 475.032 408.277C475.339 408.498 475.569 408.766 475.723 409.083C475.886 409.4 475.968 409.789 475.968 410.25C475.968 410.739 475.872 411.166 475.68 411.531C475.488 411.886 475.224 412.184 474.888 412.424C474.561 412.654 474.173 412.827 473.721 412.942C473.27 413.048 472.781 413.101 472.253 413.101C471.465 413.101 470.717 412.981 470.006 412.741C469.305 412.491 468.667 412.131 468.091 411.661L468.71 410.566C468.864 410.73 469.061 410.893 469.301 411.056C469.55 411.219 469.829 411.368 470.136 411.502C470.453 411.627 470.789 411.733 471.144 411.819C471.509 411.896 471.888 411.934 472.281 411.934C473.011 411.934 473.577 411.805 473.981 411.546C474.384 411.286 474.585 410.898 474.585 410.379C474.585 410.091 474.518 409.851 474.384 409.659C474.259 409.458 474.072 409.285 473.822 409.141C473.573 408.997 473.261 408.872 472.886 408.766C472.521 408.651 472.104 408.536 471.633 408.421C471.115 408.296 470.659 408.162 470.265 408.018C469.872 407.874 469.541 407.701 469.272 407.499C469.013 407.298 468.816 407.053 468.681 406.765C468.547 406.477 468.48 406.131 468.48 405.728C468.48 405.238 468.571 404.806 468.753 404.432C468.936 404.058 469.19 403.741 469.517 403.482C469.843 403.222 470.232 403.03 470.683 402.906C471.134 402.771 471.624 402.704 472.152 402.704C472.843 402.704 473.467 402.81 474.024 403.021C474.581 403.232 475.075 403.515 475.507 403.87L474.902 404.922ZM421.565 434V423.776H425.107C425.923 423.776 426.638 423.91 427.253 424.179C427.877 424.448 428.395 424.813 428.808 425.274C429.221 425.734 429.528 426.277 429.729 426.901C429.941 427.515 430.046 428.173 430.046 428.874C430.046 429.651 429.931 430.357 429.701 430.99C429.47 431.614 429.139 432.152 428.707 432.603C428.275 433.045 427.752 433.39 427.137 433.64C426.533 433.88 425.856 434 425.107 434H421.565ZM428.736 428.874C428.736 428.298 428.654 427.77 428.491 427.29C428.337 426.8 428.102 426.382 427.785 426.037C427.478 425.691 427.099 425.422 426.648 425.23C426.197 425.029 425.683 424.928 425.107 424.928H422.861V432.848H425.107C425.693 432.848 426.211 432.747 426.662 432.546C427.123 432.344 427.502 432.066 427.8 431.71C428.107 431.355 428.337 430.938 428.491 430.458C428.654 429.968 428.736 429.44 428.736 428.874ZM431.921 426.786L432.209 425.13H431.777V423.488H432.972V425.13L432.54 426.786H431.921ZM439.057 422.552L438.222 422.264L439.057 420.81H440.324L439.057 422.552ZM442.196 432.848V434H435.255V423.776H442.066V424.928H436.551V428.24H441.346V429.32H436.551V432.848H442.196ZM443.365 428.816C443.365 428.202 443.47 427.592 443.682 426.987C443.902 426.373 444.219 425.826 444.632 425.346C445.054 424.856 445.568 424.462 446.173 424.165C446.778 423.867 447.464 423.718 448.232 423.718C449.144 423.718 449.926 423.925 450.579 424.338C451.232 424.75 451.717 425.288 452.034 425.95L451.011 426.613C450.858 426.286 450.67 426.013 450.45 425.792C450.238 425.571 450.003 425.394 449.744 425.259C449.494 425.125 449.235 425.029 448.966 424.971C448.698 424.914 448.434 424.885 448.174 424.885C447.608 424.885 447.104 425.005 446.662 425.245C446.23 425.475 445.866 425.782 445.568 426.166C445.27 426.541 445.045 426.968 444.891 427.448C444.747 427.918 444.675 428.394 444.675 428.874C444.675 429.411 444.762 429.925 444.934 430.414C445.117 430.894 445.366 431.322 445.683 431.696C446 432.07 446.374 432.368 446.806 432.589C447.238 432.81 447.709 432.92 448.218 432.92C448.486 432.92 448.76 432.886 449.038 432.819C449.326 432.752 449.6 432.646 449.859 432.502C450.118 432.349 450.358 432.162 450.579 431.941C450.81 431.71 450.997 431.437 451.141 431.12L452.221 431.71C452.058 432.094 451.827 432.435 451.53 432.733C451.242 433.021 450.91 433.266 450.536 433.467C450.171 433.669 449.782 433.822 449.37 433.928C448.957 434.034 448.554 434.086 448.16 434.086C447.459 434.086 446.816 433.933 446.23 433.626C445.645 433.318 445.136 432.92 444.704 432.43C444.282 431.931 443.95 431.37 443.71 430.746C443.48 430.112 443.365 429.469 443.365 428.816ZM454.093 434V423.776H458.47C458.922 423.776 459.334 423.872 459.709 424.064C460.093 424.246 460.419 424.496 460.688 424.813C460.966 425.12 461.182 425.47 461.336 425.864C461.49 426.248 461.566 426.642 461.566 427.045C461.566 427.4 461.514 427.746 461.408 428.082C461.312 428.408 461.168 428.706 460.976 428.974C460.794 429.243 460.568 429.474 460.299 429.666C460.04 429.858 459.747 429.997 459.421 430.083L461.898 434H460.429L458.096 430.328H455.389V434H454.093ZM455.389 429.176H458.485C458.754 429.176 458.994 429.118 459.205 429.003C459.426 428.888 459.613 428.734 459.766 428.542C459.92 428.341 460.04 428.11 460.126 427.851C460.213 427.592 460.256 427.323 460.256 427.045C460.256 426.757 460.203 426.488 460.098 426.238C460.002 425.979 459.867 425.754 459.694 425.562C459.531 425.36 459.334 425.206 459.104 425.101C458.883 424.986 458.648 424.928 458.398 424.928H455.389V429.176ZM466.917 423.776H468.012L472.188 434H470.805L469.596 431.005H465.304L464.109 434H462.727L466.917 423.776ZM469.308 429.997L467.464 425.274L465.564 429.997H469.308ZM475.098 426.195V434H473.802V423.776H474.81L481.146 431.739V423.79H482.442V434H481.348L475.098 426.195Z" fill="#AAAAAA"/>
<path d="M250.565 38.6042C187.339 151.376 121.976 268.315 55.6393 378.798L54.4388 376.714C151.921 378.066 251.192 376.208 348.682 375.499L446.745 375.023L444.102 379.553C387.218 282.653 306.491 137.861 250.581 38.574L250.565 38.6042ZM250.565 38C309.126 137.392 393.357 277.518 449.365 376.54L452 381.131H446.715L348.629 380.686C250.331 379.968 150.29 378.103 52 379.508C114.841 266.004 184.13 149.767 250.573 38.0229L250.565 38Z" fill="#AAAAAA"/>
<path d="M250.769 120.223C230.98 165.872 206.781 221.488 186.743 266.948C179.585 283.08 172.332 299.188 164.983 315.27L164.228 313.76C225.514 326.278 296.471 339.71 358.331 350.869C374.436 353.799 407.008 359.855 423.105 362.845L421.708 365.026C372.48 296.017 299.597 190.886 250.807 120.261L250.769 120.223ZM250.769 119.921C302.074 191.588 376.338 294.62 425.974 366.219L422.576 365.555L390.254 359.228C317.333 344.671 236.869 328.8 163.805 315.882L162.453 315.632L163.005 314.349C190.45 251.138 222.169 182.709 250.769 119.921V119.921Z" fill="#40C3D5"/>
<path d="M250.769 74.3391C220.145 155.059 188.472 240.001 156.564 319.905L155.809 318.637C200.771 327.003 247.447 335.414 292.387 343.138C326.446 348.853 395.124 360.617 429.168 366.461L427.741 368.552C376.754 285.431 301.273 159.152 250.732 74.3166L250.769 74.3391ZM250.769 74.0449C303.667 160.043 380.635 284.109 431.773 369.768L428.753 369.216L360.498 356.811C294.229 344.482 220.568 331.299 154.397 320.328C184.75 239.329 218.869 154.727 250.739 74.0449H250.769Z" fill="#808080"/>
<path d="M250.769 146.513C231.977 185.472 208.971 232.934 189.936 271.697C183.141 285.438 176.346 299.157 169.324 312.839L168.494 311.17C237.753 325.206 312.591 338.834 381.933 351.103L412.451 356.668L411.077 358.933C364.114 298.176 297.392 208.984 250.769 146.543V146.513ZM250.769 146.211C299.96 209.633 368.116 296.741 415.562 360.126C414.203 359.832 383.738 354.018 381.503 353.565C311.964 339.808 236.673 325.251 166.591 313.193C193.017 258.831 223.301 200.158 250.769 146.211Z" fill="white"/>
</svg>
