<svg width="427" height="420" viewBox="0 0 427 420" fill="none" xmlns="http://www.w3.org/2000/svg">
<path d="M214.23 419.965C145.696 353.793 70.318 281.045 3.07137 214.011L0.292969 211.233L3.07137 208.454C32.4298 178.688 77.5695 134.466 107.595 104.589C142.442 69.9758 177.515 35.5883 212.813 1.42628L214.286 0L215.684 1.42628C266.334 53.5769 319.633 107.209 371.988 157.693C386.195 171.585 412.839 197.285 427 211.205C417.572 220.735 408.2 230.357 398.688 239.832C338.739 299.808 275.355 361.387 214.249 419.993L214.23 419.965ZM214.23 419.224C264.584 366.796 317.494 312.219 368.672 260.596C385.799 243.259 403.05 226.072 420.424 209.038V213.391L394.696 187.024C344.167 134.734 291.21 80.6296 239.106 30.0071L212.748 4.26981H215.619C181.395 39.5061 147.008 74.5787 112.457 109.488C82.7744 139.874 38.2272 184.255 8.60014 214.011V208.454C75.2818 275.507 148.335 350.931 214.202 419.252L214.23 419.224Z" fill="#AAAAAA"/>
<path d="M214.229 315.821C189.983 292.233 159.411 262.54 135.637 238.674C126.524 229.585 117.479 220.423 108.502 211.186C117.893 201.999 139.889 180.522 149.03 171.613C170.59 150.488 192.678 127.973 213.664 106.329L214.359 105.616L215.09 106.329C230.455 121.036 252.275 142.791 267.695 157.897C283.578 173.789 305.768 195.433 321.355 211.224L319.948 212.613C286.709 245.75 248.07 283.138 214.229 315.821ZM214.229 315.451C246.811 281.619 284.152 243.055 317.151 209.816V212.594C302.194 197.545 280.327 175.734 265.231 160.342C249.895 145.014 228.612 123.028 213.664 107.737H215.09C193.548 128.797 171.146 151.034 150.113 172.678L111.78 212.289V210.112C120.424 218.67 128.997 227.282 137.499 235.951C161.115 259.975 190.872 290.945 214.229 315.432V315.451Z" fill="#40C3D5"/>
<path d="M214.396 360.711C170.923 312.302 124.829 261.615 82.8845 211.992L82.0791 211.066L83.0052 210.316C110.335 189.209 138.045 167.362 164.922 145.588C175.285 137.16 202.782 114.711 213.451 105.987L214.507 105.125L215.387 106.199C242.245 139.012 273.881 178.012 300.424 211.038C276.345 254.205 239.299 317.358 214.294 360.729L214.396 360.711ZM214.396 360.34C237.808 316.812 272.742 252.807 296.405 210.242L296.59 212.455L275.687 186.394C257.165 163.129 231.779 131.27 213.34 107.904L215.276 108.117C196.614 122.815 167.802 144.922 149.52 159.61C127.645 176.827 106.112 194.479 84.5794 212.131L84.7368 210.445C128.098 258.41 172.368 310.968 214.396 360.34V360.34Z" fill="white"/>
<path d="M214.211 270.923C195.689 257.336 174.332 241.342 155.976 227.394C149.067 222.152 142.186 216.836 135.304 211.539C141.96 202.388 148.693 193.291 155.503 184.245C174.841 158.665 195.068 132.715 213.85 106.672L214.248 106.135L214.767 106.561C234.994 123.287 257.508 141.208 277.874 157.916C299.054 175.244 321.939 194.127 343.027 211.687L340.249 213.002C299.749 232.108 254.98 252.752 214.23 270.923H214.211ZM214.211 270.561C254.035 250.473 298.165 228.728 338.498 209.436L338.082 212.752C330.237 206.269 314.678 193.155 306.908 186.607C286.839 169.687 264.852 151.136 244.913 133.91C234.605 125.103 224.343 116.23 213.933 107.543L214.859 107.432C195.54 133.104 176.712 160.064 157.995 186.107C151.679 194.862 145.295 203.558 138.843 212.196L138.527 209.936C144.844 214.882 151.16 219.809 157.448 224.81C175.656 239.23 196.263 255.845 214.22 270.571L214.211 270.561Z" fill="#808080"/>
</svg>
